<?xml version="1.0" encoding="UTF-8"?>
<svg width="116px" height="96px" viewBox="0 0 116 96" version="1.1" xmlns="http://www.w3.org/2000/svg" xmlns:xlink="http://www.w3.org/1999/xlink">
    <title>Nissan Brand VI Dark</title>
    <defs>
        <filter id="filter-1">
            <feColorMatrix in="SourceGraphic" type="matrix" values="0 0 0 0 1.000000 0 0 0 0 1.000000 0 0 0 0 1.000000 0 0 0 1.000000 0"></feColorMatrix>
        </filter>
    </defs>
    <g id="Page-1" stroke="none" stroke-width="1" fill="none" fill-rule="evenodd">
        <g id="Artboard" transform="translate(-679.000000, -61.000000)" fill="#FFFFFF">
            <g filter="url(#filter-1)" id="Nissan-logo---Responsive">
                <g transform="translate(679.000000, 61.000000)">
                    <g fill="none">
                        <path d="M67.2768626,51.8096842 C67.1907105,51.8245895 66.8171023,51.8368842 66.6703216,51.8368842 L54.8350146,51.8368842 L54.8350146,54.5573895 L66.8530556,54.5573895 C66.9525205,54.5573895 67.6441111,54.5518316 67.8025936,54.5387789 C70.2547047,54.3212632 71.3715439,52.2949053 71.3715439,50.5036632 C71.3715439,48.6866526 70.2090848,46.7339789 67.9869386,46.5178947 C67.5510058,46.4766316 67.1948655,46.4742737 67.0209503,46.4771368 L66.9942398,46.7141895 L66.9942398,46.4771368 L59.170345,46.4771368 C58.8147135,46.4771368 58.4469561,46.448 58.2967836,46.4087579 C57.6721813,46.2415158 57.4496784,45.7045053 57.4496784,45.2576 C57.4496784,44.8470737 57.6771842,44.3004632 58.3201023,44.1103158 C58.5102135,44.0534737 58.7094825,44.0512842 59.1415146,44.0512842 L70.4812778,44.0512842 L70.4812778,41.3558737 L58.9581023,41.3558737 C58.4697661,41.3558737 58.1143889,41.3744842 57.8062427,41.4156632 C55.8322924,41.6832842 54.4538596,43.2651789 54.4538596,45.2631579 C54.4538596,46.8973474 55.4880234,48.8051368 57.7596901,49.1321263 C58.1652661,49.1898947 58.7504386,49.1856 58.9969386,49.1856 L66.6516667,49.1850947 C66.7963275,49.1850947 67.1366111,49.1937684 67.2069912,49.2033684 C68.0655439,49.3214316 68.3714854,49.9625263 68.3714854,50.5232 C68.3714854,51.0681263 68.0325585,51.6773895 67.2768626,51.8096842 Z" id="Path" fill="#000000"></path>
                        <path d="M44.8832661,51.8096842 C44.7978772,51.8245895 44.4240146,51.8368842 44.2768099,51.8368842 L32.4418421,51.8368842 L32.4418421,54.5573895 L44.4609006,54.5573895 C44.5601111,54.5573895 45.2529737,54.5518316 45.4099298,54.5387789 C47.8625497,54.3212632 48.9798977,52.2946526 48.9798977,50.5036632 C48.9798977,48.6866526 47.8169298,46.7339789 45.5938509,46.5178947 C45.1578333,46.4766316 44.801269,46.4742737 44.6282865,46.4771368 L44.601576,46.7141895 L44.601576,46.4771368 L36.7772573,46.4771368 C36.4216257,46.4771368 36.054038,46.448 35.9041199,46.4087579 C35.2799415,46.2415158 35.0575234,45.7045053 35.0575234,45.2576 C35.0575234,44.8470737 35.2846053,44.3004632 35.9254883,44.1103158 C36.1171257,44.0534737 36.3163099,44.0512842 36.7488509,44.0512842 L48.0876813,44.0512842 L48.0876813,41.3558737 L36.5659474,41.3558737 C36.0771023,41.3558737 35.7217251,41.3744842 35.4140877,41.4156632 C33.4396287,41.6828632 32.0607719,43.2651789 32.0607719,45.2631579 C32.0607719,46.8973474 33.0949357,48.8051368 35.3666023,49.1321263 C35.7721784,49.1898947 36.3539591,49.1848421 36.6042749,49.1856 L44.2580702,49.1850947 C44.403155,49.1850947 44.7440322,49.1937684 44.8143275,49.2033684 C45.6723713,49.3214316 45.9783129,49.9625263 45.9783129,50.5232 C45.9783129,51.0681263 45.639386,51.6778947 44.8832661,51.8096842 Z" id="Path" fill="#000000"></path>
                        <polygon id="Path" fill="#000000" points="26.2587368 41.2837895 23.2859825 41.2837895 23.2859825 54.6298105 26.2587368 54.6298105"></polygon>
                        <polygon id="Path" fill="#000000" points="16.7085789 54.6296421 16.7085789 41.2846316 13.7348918 41.2846316 13.7348918 51.2298105 3.82811871 41.2846316 0 41.2846316 0 54.6296421 2.97443333 54.6296421 2.97443333 44.6175158 12.9523158 54.6296421"></polygon>
                        <polygon id="Path" fill="#000000" points="112.488626 41.2847158 112.488626 51.2301474 102.580292 41.2847158 98.7526316 41.2847158 98.7526316 54.6297263 101.726404 54.6297263 101.726404 44.6173474 111.704269 54.6297263 115.460702 54.6297263 115.460702 41.2847158"></polygon>
                        <path d="M88.2134211,49.7232842 L81.496614,49.7232842 L84.8580702,44.3608421 L88.2134211,49.7232842 Z M83.2546754,41.2838737 L74.8631608,54.6296421 L78.4707778,54.6296421 L79.9629211,52.2464 L89.7490643,52.2464 L91.2423099,54.6296421 L94.8452632,54.6296421 L86.4581579,41.2838737 L83.2546754,41.2838737 Z" id="Shape" fill="#000000"></path>
                        <path d="M16.5445848,33.7002105 C22.5390205,16.3008842 39.0959854,4.61098105 57.7449357,4.61098105 C76.3937164,4.61098105 92.9509357,16.3008842 98.945117,33.7002105 L98.9951462,33.8447158 L112.111287,33.8447158 L112.111287,32.2804211 L111.920497,32.2587789 C111.58386,32.2207158 106.654708,31.6499368 106.654708,31.6499368 C103.291725,31.2601263 102.572661,29.7888842 101.661111,27.9221895 L101.439795,27.4714105 C93.5555263,10.7834105 76.4041462,0 57.7449357,0 C39.0838596,0 21.9325643,10.7843368 14.0506696,27.4714105 L13.8282515,27.9231158 C12.9182281,29.7874526 12.1995029,31.2601263 8.83465497,31.6499368 C8.83465497,31.6499368 3.90373918,32.2207158 3.56945058,32.2587789 L3.37877135,32.2804211 L3.37877135,33.8447158 L16.4945556,33.8447158 L16.5445848,33.7002105 Z" id="Path" fill="#000000"></path>
                        <path d="M99.1460819,62.0816842 L98.9934503,62.0816842 L98.9434211,62.2260211 C92.9475439,79.6238316 76.3921053,91.312 57.7446813,91.312 L57.7401023,91.312 C39.0912368,91.3094737 22.5356287,79.6165895 16.543652,62.2168421 L16.4936228,62.0723368 L3.37856784,62.0713263 L3.37856784,63.6351158 L3.56851784,63.6576 C3.90790263,63.6973474 8.83278947,64.2671158 8.83278947,64.2671158 C12.1989942,64.6573474 12.9168713,66.1301053 13.8258772,67.9957895 L14.046345,68.4437053 C21.9282398,85.1343158 39.0788567,95.92 57.7390848,95.9216842 L57.7461228,95.9216842 C76.4022807,95.9216842 93.5538304,85.1402105 101.435556,68.4586105 L101.659415,68.0040421 C102.569269,66.1397895 103.288333,64.6670316 106.653012,64.2781474 C106.653012,64.2781474 111.596579,63.7055158 111.920497,63.6691368 L112.110439,63.6471579 L112.110439,62.0833684 L111.895906,62.0833684 C110.584123,62.0833684 100.255205,62.0824421 99.1460819,62.0816842 Z" id="Path" fill="#000000"></path>
                    </g>
                </g>
            </g>
        </g>
    </g>
</svg>