<svg xmlns="http://www.w3.org/2000/svg" width="313.906" height="42.562" viewBox="0 0 313.906 42.562">
  <defs>
    <style>
      .cls-1 {
        fill: #fff;
        fill-rule: evenodd;
      }
    </style>
  </defs>
  <path id="_комплект_17_легкосплавних_дисків" data-name="+ комплект 17” легкосплавних дисків" class="cls-1" d="M17.082,229.152v-3.785h3.785V223.5H17.082v-3.785h-1.87V223.5H11.428v1.87h3.784v3.785h1.87Zm16.082-4.181a60.165,60.165,0,0,1,5.743-5.259H36.112a63.67,63.67,0,0,0-4.731,4.709H30.457v-4.709h-1.98V231h1.98v-4.885h1.3c1.65,1.585,3.367,3.477,4.687,4.885h2.684C38.071,229.834,35.188,226.841,33.164,224.971Zm12.342-5.5c-3.212,0-6.051,2.025-6.051,5.919,0,3.939,2.838,5.875,6.029,5.875,3.212,0,6.073-1.914,6.073-5.875C51.557,221.5,48.718,219.47,45.506,219.47Zm0,1.849a3.835,3.835,0,0,1,3.983,4.07,3.735,3.735,0,0,1-3.961,4,3.747,3.747,0,0,1-4-4A3.835,3.835,0,0,1,45.506,221.319Zm17.248-1.607c-1.078,2.267-2.222,5.369-3.08,7.371-0.77-1.914-1.826-4.73-3.059-7.371h-2c-0.572,2.553-1.144,5.611-1.958,11.288h2.068a77.951,77.951,0,0,1,1.144-8.163c1.122,2.376,1.694,3.938,3.014,7.173h1.584c1.3-3.235,1.8-4.665,3.058-7.283,0.33,1.5.682,4.6,1.122,8.273h2.046c-0.792-5.765-1.342-8.8-1.87-11.288H62.754ZM78.837,231V219.712H68.451V231h1.98v-9.593h6.425V231h1.98ZM90.65,219.712V231H88.67v-9.593H84.907c-0.726,7.811-1.8,9.857-4.313,9.857a5.007,5.007,0,0,1-.528-0.022l-0.022-1.694a1.9,1.9,0,0,0,.33.022c1.452,0,2.112-2.509,2.706-9.858H90.65Zm13.244,6.381v-1.166c0-3.41-1.892-5.457-4.994-5.457-2.992,0-5.831,1.673-5.831,5.963,0,4.159,2.926,5.831,6.051,5.831a14.93,14.93,0,0,0,4.554-.77V228.58a13.186,13.186,0,0,1-4.466.836c-1.452,0-3.895-.352-4.159-3.323h8.845ZM95.137,224.4a3.412,3.412,0,0,1,3.718-3.08,2.867,2.867,0,0,1,3.014,3.08H95.137Zm15.907,0.572a60.15,60.15,0,0,1,5.742-5.259h-2.794a63.9,63.9,0,0,0-4.731,4.709h-0.924v-4.709h-1.98V231h1.98v-4.885h1.3c1.651,1.585,3.367,3.477,4.687,4.885h2.684C115.95,229.834,113.068,226.841,111.044,224.971Zm16.94-3.564v-1.7H117.335v1.7h4.334V231h1.98v-9.593h4.335Zm11.9,9.593V216.434l-5.479,1.584v1.8l3.543-.968V231h1.936Zm13.421-14.3H142.788v1.826h8.1a67.368,67.368,0,0,0-6.469,12.454L146.529,231a68.238,68.238,0,0,1,6.777-13.026V216.7Zm1.912,3.85,1.5-4.114h-1.893l-1.122,4.114h1.518Zm3.081,0,1.5-4.114H157.9l-1.122,4.114H158.3Zm17.512-.836V231h-1.98v-9.593h-3.763c-0.726,7.811-1.8,9.857-4.312,9.857a5,5,0,0,1-.528-0.022l-0.022-1.694a1.9,1.9,0,0,0,.33.022c1.452,0,2.112-2.509,2.706-9.858h7.569Zm13.244,6.381v-1.166c0-3.41-1.892-5.457-4.994-5.457-2.993,0-5.831,1.673-5.831,5.963,0,4.159,2.926,5.831,6.051,5.831a14.929,14.929,0,0,0,4.554-.77V228.58a13.186,13.186,0,0,1-4.466.836c-1.453,0-3.9-.352-4.159-3.323h8.845ZM180.3,224.4a3.412,3.412,0,0,1,3.719-3.08,2.867,2.867,0,0,1,3.014,3.08H180.3Zm18.393-2.992v-1.7h-7.173V231h1.98v-9.593h5.193Zm6.665,3.564a60.29,60.29,0,0,1,5.743-5.259h-2.794a63.707,63.707,0,0,0-4.731,4.709H202.65v-4.709h-1.98V231h1.98v-4.885h1.3c1.65,1.585,3.367,3.477,4.687,4.885h2.684C210.263,229.834,207.381,226.841,205.356,224.971Zm12.343-5.5c-3.213,0-6.051,2.025-6.051,5.919,0,3.939,2.838,5.875,6.029,5.875,3.212,0,6.072-1.914,6.072-5.875C223.749,221.5,220.911,219.47,217.7,219.47Zm0,1.849a3.834,3.834,0,0,1,3.982,4.07,3.983,3.983,0,1,1-7.965,0A3.835,3.835,0,0,1,217.7,221.319Zm14.014-1.849c-3.389,0-6.2,2.135-6.2,5.9s2.838,5.9,6.249,5.9a11.532,11.532,0,0,0,3.938-.638v-1.958a9.974,9.974,0,0,1-3.762.748,4.043,4.043,0,0,1-4.357-4c0-2.772,2.024-4.092,4.357-4.092a9.568,9.568,0,0,1,3.586.792v-1.959A9.135,9.135,0,0,0,231.713,219.47ZM248.5,231V219.712H238.114V231h1.98v-9.593h6.425V231h1.98Zm11.814-11.288V231h-1.98v-9.593H254.57c-0.726,7.811-1.8,9.857-4.313,9.857a5,5,0,0,1-.528-0.022l-0.022-1.694a1.9,1.9,0,0,0,.33.022c1.453,0,2.113-2.509,2.707-9.858h7.569Zm7.721-.242a15.3,15.3,0,0,0-4.422.66v1.959a12.539,12.539,0,0,1,4.2-.77c1.914,0,3.565.418,3.565,2.64v0.66a8.716,8.716,0,0,0-3.719-.792c-2.42,0-4.753.968-4.753,3.674,0,2.509,2.025,3.763,4.467,3.763a7.7,7.7,0,0,0,4.225-1.3L271.863,231h1.5v-6.667C273.359,220.725,271.6,219.47,268.034,219.47ZM265,227.479c0-1.474,1.276-2,2.9-2a7.729,7.729,0,0,1,3.477.792v2.047a6.774,6.774,0,0,1-3.653,1.144C266.384,229.46,265,229.02,265,227.479Zm11.439-7.767V231h5.127c3.631,0,5.017-1.166,5.017-3.322,0-1.255-.66-2.091-2.332-2.619v-0.022a2.771,2.771,0,0,0,1.826-2.508c0-1.672-1.452-2.817-4.291-2.817h-5.347Zm1.981,1.7h3.344c1.54,0,2.245.484,2.245,1.43,0,1.078-.661,1.584-2.245,1.584h-3.344v-3.014Zm0,4.554h3.344c1.98,0,2.751.638,2.751,1.673,0,1.056-.771,1.672-2.773,1.672h-3.322v-3.345ZM297.185,231h1.98V219.712h-1.98v4.709h-6.1v-4.709h-1.981V231h1.981v-4.885h6.1V231Zm7-11.288h-1.937V231h1.739l6.38-8.779V231H312.3V219.712h-2.157l-5.962,8.3v-8.3Zm16.654,5.743,4.511-5.743h-2.509l-3.3,4.357-3.433-4.357h-2.486l4.621,5.743L313.661,231h2.618l3.3-4.137,3.1,4.137h2.575Zm-174,28.851h-1.8v-9.572l-7.745-.022c-0.484,6.007-1.012,8.78-1.98,9.594h-1.364v4.708h1.848V256h9.2v3.014h1.848v-4.708Zm-3.784,0h-5.589c0.814-1.32,1.254-3.609,1.65-7.877h3.939v7.877Zm7.259-9.594h-1.936V256h1.738l6.381-8.779V256h1.936V244.712h-2.156l-5.963,8.3v-8.3Zm16.742-.242c-3.388,0-6.205,2.135-6.205,5.9s2.839,5.9,6.249,5.9a11.538,11.538,0,0,0,3.939-.638v-1.958a9.975,9.975,0,0,1-3.763.748,4.043,4.043,0,0,1-4.356-4c0-2.772,2.024-4.092,4.356-4.092a9.572,9.572,0,0,1,3.587.792v-1.959A9.139,9.139,0,0,0,167.055,244.47Zm11.088,5.5a60.048,60.048,0,0,1,5.743-5.259h-2.795a63.664,63.664,0,0,0-4.73,4.709h-0.924v-4.709h-1.981V256h1.981v-4.885h1.3c1.65,1.585,3.366,3.477,4.686,4.885h2.685C183.05,254.834,180.167,251.841,178.143,249.971Zm9.5-6.909v-2.024H185.4v2.024h2.244ZM187.514,256V244.712h-1.98V256h1.98Zm3.08-11.288V256h5.127c3.63,0,5.016-1.166,5.016-3.322,0-1.255-.66-2.091-2.332-2.619v-0.022a2.771,2.771,0,0,0,1.826-2.508c0-1.672-1.452-2.817-4.29-2.817h-5.347Zm1.98,1.7h3.345c1.54,0,2.244.484,2.244,1.43,0,1.078-.66,1.584-2.244,1.584h-3.345v-3.014Zm0,4.554h3.345c1.98,0,2.75.638,2.75,1.673,0,1.056-.77,1.672-2.772,1.672h-3.323v-3.345Z" transform="translate(-11.438 -216.438)"/>
</svg>
