<svg xmlns="http://www.w3.org/2000/svg" width="235.656" height="37.562" viewBox="0 0 235.656 37.562">
  <defs>
    <style>
      .cls-1 {
        fill: #fff;
        fill-rule: evenodd;
      }
    </style>
  </defs>
  <path id="_комплект_зимових_шин" data-name="+ комплект зимових  шин" class="cls-1" d="M56.882,230.984v-4.129H61.01v-2.04H56.882v-4.128h-2.04v4.128H50.713v2.04h4.128v4.129h2.04Zm18.024-4.561a65.484,65.484,0,0,1,6.265-5.736H78.121a69.255,69.255,0,0,0-5.16,5.136H71.953v-5.136h-2.16V233h2.16v-5.328h1.416c1.8,1.728,3.672,3.792,5.112,5.328H81.41C80.258,231.728,77.113,228.464,74.905,226.423Zm13.7-6c-3.5,0-6.6,2.208-6.6,6.456,0,4.3,3.1,6.409,6.576,6.409,3.5,0,6.625-2.088,6.625-6.409C95.21,222.631,92.113,220.423,88.609,220.423Zm0,2.016a4.183,4.183,0,0,1,4.344,4.44,4.344,4.344,0,1,1-8.689,0A4.183,4.183,0,0,1,88.609,222.439Zm19.056-1.752c-1.176,2.472-2.424,5.856-3.36,8.041-0.84-2.089-1.992-5.161-3.336-8.041H98.785c-0.624,2.784-1.248,6.12-2.136,12.313H98.9a85.012,85.012,0,0,1,1.248-8.905c1.224,2.592,1.848,4.3,3.288,7.825h1.728c1.416-3.528,1.968-5.089,3.337-7.945,0.36,1.632.744,5.017,1.224,9.025h2.232c-0.864-6.289-1.464-9.6-2.04-12.313h-2.257ZM125.45,233V220.687H114.121V233h2.16V222.535h7.008V233h2.161Zm13.127-12.313V233h-2.16V222.535h-4.1c-0.792,8.521-1.968,10.753-4.7,10.753a5.46,5.46,0,0,1-.576-0.024l-0.024-1.848a2.073,2.073,0,0,0,.36.024c1.584,0,2.305-2.736,2.953-10.753h8.256Zm14.688,6.961v-1.273c0-3.72-2.064-5.952-5.448-5.952-3.264,0-6.361,1.824-6.361,6.5,0,4.537,3.193,6.361,6.6,6.361a16.287,16.287,0,0,0,4.968-.84V230.36a14.384,14.384,0,0,1-4.872.912c-1.584,0-4.248-.384-4.536-3.624h9.648Zm-9.552-1.849c0.216-2.328,2.088-3.36,4.056-3.36,2.232,0,3.216,1.512,3.288,3.36h-7.344Zm17.592,0.624a65.472,65.472,0,0,1,6.264-5.736h-3.048a69.257,69.257,0,0,0-5.16,5.136h-1.008v-5.136h-2.161V233h2.161v-5.328h1.416c1.8,1.728,3.672,3.792,5.112,5.328h2.928C166.657,231.728,163.513,228.464,161.305,226.423Zm18.72-3.888v-1.848H168.408v1.848h4.728V233H175.3V222.535h4.728Zm12.695-2.112a14.513,14.513,0,0,0-4.632.744l0.024,2.064a14.278,14.278,0,0,1,4.512-.84c1.848,0,2.64.624,2.64,1.7,0,1.176-.888,1.728-2.616,1.728h-3.432l-0.024,1.681h3.456c2.16,0,3,.7,3,1.824,0,1.2-.984,1.992-3.1,1.992a12.76,12.76,0,0,1-4.656-.888v2.136a12.819,12.819,0,0,0,4.608.72c3.889,0,5.4-1.584,5.4-3.792a2.952,2.952,0,0,0-2.425-2.977V226.5a3.172,3.172,0,0,0,2.041-2.928C197.521,221.911,195.985,220.423,192.72,220.423Zm10.3,0.264H200.9V233h1.9l6.961-9.577V233h2.112V220.687h-2.352l-6.5,9.049v-9.049Zm22.032,0c-1.176,2.472-2.424,5.856-3.36,8.041-0.84-2.089-1.992-5.161-3.336-8.041h-2.184c-0.624,2.784-1.248,6.12-2.136,12.313h2.256a85.086,85.086,0,0,1,1.248-8.905c1.224,2.592,1.848,4.3,3.288,7.825h1.728c1.416-3.528,1.968-5.089,3.337-7.945,0.36,1.632.744,5.017,1.224,9.025h2.232c-0.864-6.289-1.464-9.6-2.04-12.313h-2.257Zm12.336-.264c-3.5,0-6.6,2.208-6.6,6.456,0,4.3,3.1,6.409,6.576,6.409,3.5,0,6.625-2.088,6.625-6.409C243.985,222.631,240.888,220.423,237.384,220.423Zm0,2.016a4.184,4.184,0,0,1,4.345,4.44,4.345,4.345,0,1,1-8.689,0A4.183,4.183,0,0,1,237.384,222.439Zm9.48-1.752V233h5.592c3.96,0,5.473-1.272,5.473-3.624,0-1.368-.72-2.281-2.545-2.857V226.5a3.024,3.024,0,0,0,1.993-2.736c0-1.824-1.585-3.072-4.681-3.072h-5.832Zm2.16,1.848h3.648c1.68,0,2.448.528,2.448,1.56,0,1.176-.72,1.728-2.448,1.728h-3.648v-3.288Zm0,4.969h3.648c2.16,0,3,.7,3,1.824,0,1.152-.84,1.824-3.024,1.824h-3.624V227.5Zm14.016-6.817h-2.112V233h1.9l6.96-9.577V233H271.9V220.687h-2.353l-6.5,9.049v-9.049Zm18.408,6.264,4.92-6.264h-2.736l-3.6,4.752-3.744-4.752h-2.713l5.041,6.264L273.623,233h2.857l3.6-4.512L283.464,233h2.808ZM164.87,245.687h-2.16v10.465h-5.233V245.687h-2.064v10.465h-5.232V245.687H148.02V258h16.85V245.687Zm5.71,0h-2.112V258h1.9l6.961-9.577V258h2.112V245.687h-2.352l-6.5,9.049v-9.049ZM191.845,258h2.16V245.687h-2.16v5.136H185.2v-5.136h-2.16V258h2.16v-5.328h6.649V258Z" transform="translate(-50.719 -220.438)"/>
</svg>
