<svg xmlns="http://www.w3.org/2000/svg" width="219.75" height="21.125" viewBox="0 0 219.75 21.125">
  <defs>
    <style>
      .cls-1 {
        fill: #fff;
        fill-rule: evenodd;
      }
    </style>
  </defs>
  <path id="Спеціальна_версія" data-name="Спеціальна версія" class="cls-1" d="M67.521,221.255c-4.879,0-9.232,2.592-9.232,8.231,0,5.76,4.855,7.944,9.185,7.944a13.224,13.224,0,0,0,5.262-.96v-2.208a11.637,11.637,0,0,1-5.094,1.056c-3.3,0-6.984-1.608-6.984-5.856,0-4.079,3.038-6.095,6.817-6.095a11.148,11.148,0,0,1,5.142,1.248v-2.352A13.753,13.753,0,0,0,67.521,221.255Zm19.733,15.887V224.831H75.965v12.311h2.153V226.679H85.1v10.463h2.153Zm14.878-5.352v-1.272c0-3.719-2.057-5.951-5.43-5.951-3.253,0-6.338,1.824-6.338,6.5,0,4.536,3.181,6.36,6.577,6.36a16.183,16.183,0,0,0,4.951-.84V234.5a14.294,14.294,0,0,1-4.856.912c-1.579,0-4.233-.384-4.52-3.624h9.615Zm-9.52-1.848c0.215-2.328,2.081-3.359,4.042-3.359,2.224,0,3.2,1.511,3.277,3.359H92.613Zm25.689,5.352H116.34V224.831h-2.153v10.463h-6.744V224.831H105.29v12.311h11v3.288H118.3v-5.136Zm4.45-12.263v-2.208h-2.44v2.208h2.44Zm-0.144,14.111V224.831h-2.152v12.311h2.152Zm8.874-12.575a16.572,16.572,0,0,0-4.807.72v2.135a13.606,13.606,0,0,1,4.568-.839c2.081,0,3.875.456,3.875,2.879v0.72a9.444,9.444,0,0,0-4.043-.864c-2.631,0-5.166,1.056-5.166,4.008,0,2.736,2.2,4.1,4.855,4.1a8.348,8.348,0,0,0,4.593-1.416l0.287,1.128h1.626V229.87C137.269,225.935,135.356,224.567,131.481,224.567Zm-3.3,8.735c0-1.608,1.388-2.184,3.158-2.184a8.373,8.373,0,0,1,3.779.864v2.232a7.346,7.346,0,0,1-3.971,1.248C129.687,235.462,128.18,234.982,128.18,233.3Zm22.412-8.471v12.311H148.44V226.679h-4.09c-0.79,8.519-1.962,10.751-4.688,10.751a5.416,5.416,0,0,1-.574-0.024l-0.024-1.848a2.056,2.056,0,0,0,.359.024c1.578,0,2.3-2.736,2.942-10.751h8.227Zm9.879,3.839a9.334,9.334,0,0,0-3.9.912v-4.751H154.42V237a37.688,37.688,0,0,0,5.382.432c4.137,0,5.907-1.488,5.907-4.536C165.709,230.182,163.8,228.67,160.471,228.67Zm-0.646,6.816a16.763,16.763,0,0,1-3.252-.312V231.6a8.194,8.194,0,0,1,3.683-.912c2.1,0,3.205.792,3.205,2.28C163.461,234.574,162.528,235.486,159.825,235.486Zm17.294,1.656h2.152V224.831h-2.152v5.135h-6.625v-5.135h-2.153v12.311h2.153v-5.328h6.625v5.328Zm11.027-12.575a16.584,16.584,0,0,0-4.808.72v2.135a13.615,13.615,0,0,1,4.569-.839c2.08,0,3.874.456,3.874,2.879v0.72a9.439,9.439,0,0,0-4.042-.864c-2.631,0-5.166,1.056-5.166,4.008,0,2.736,2.2,4.1,4.855,4.1a8.341,8.341,0,0,0,4.592-1.416l0.287,1.128h1.627V229.87C193.934,225.935,192.02,224.567,188.146,224.567Zm-3.3,8.735c0-1.608,1.387-2.184,3.157-2.184a8.373,8.373,0,0,1,3.779.864v2.232a7.339,7.339,0,0,1-3.97,1.248C186.352,235.462,184.845,234.982,184.845,233.3ZM204,224.831v12.311h5.573c3.947,0,5.454-1.272,5.454-3.624,0-1.368-.718-2.28-2.536-2.856v-0.024a3.022,3.022,0,0,0,1.985-2.736c0-1.823-1.578-3.071-4.664-3.071H204Zm2.153,1.848h3.636c1.674,0,2.439.528,2.439,1.559,0,1.176-.717,1.728-2.439,1.728h-3.636v-3.287Zm0,4.967h3.636c2.152,0,2.989.7,2.989,1.824,0,1.152-.837,1.824-3.013,1.824h-3.612v-3.648Zm23.034,0.144v-1.272c0-3.719-2.057-5.951-5.429-5.951-3.253,0-6.338,1.824-6.338,6.5,0,4.536,3.181,6.36,6.577,6.36a16.179,16.179,0,0,0,4.951-.84V234.5a14.291,14.291,0,0,1-4.855.912c-1.579,0-4.234-.384-4.521-3.624h9.615Zm-9.519-1.848c0.215-2.328,2.081-3.359,4.042-3.359,2.224,0,3.205,1.511,3.277,3.359h-7.319Zm18.992-5.375a7.6,7.6,0,0,0-4.425,1.416l-0.311-1.152h-1.579v17.11H234.5v-5.519a7.7,7.7,0,0,0,3.875,1.008,6.254,6.254,0,0,0,6.457-6.576A5.87,5.87,0,0,0,238.664,224.567Zm-0.574,10.847a6.371,6.371,0,0,1-3.588-1.1v-6.384a5.741,5.741,0,0,1,3.755-1.391,4.077,4.077,0,0,1,4.305,4.391A4.2,4.2,0,0,1,238.09,235.414Zm15.882-10.847c-3.683,0-6.745,2.328-6.745,6.431s3.086,6.432,6.793,6.432a12.5,12.5,0,0,0,4.281-.7V234.6a10.812,10.812,0,0,1-4.09.816,4.4,4.4,0,0,1-4.736-4.368c0-3.024,2.2-4.463,4.736-4.463a10.388,10.388,0,0,1,3.9.863v-2.135A9.9,9.9,0,0,0,253.972,224.567Zm9.735-1.536v-2.208h-2.439v2.208h2.439Zm-0.143,14.111V224.831h-2.153v12.311h2.153Zm14.47-12.311h-5.166c-4.138,0-5.908,1.464-5.908,4.343a3.865,3.865,0,0,0,3.373,3.936c-2.033,1.824-3.851,3.72-4.138,4.032l2.894-.024a53.016,53.016,0,0,1,3.994-3.84,19.473,19.473,0,0,0,2.8-.264v4.128h2.152V224.831Zm-5.62,6.527c-2.1,0-3.2-.768-3.2-2.256,0-1.608.932-2.447,3.635-2.423l3.038,0.024v4.439A23.822,23.822,0,0,1,272.414,231.358Z" transform="translate(-58.281 -220.813)"/>
</svg>
