<svg xmlns="http://www.w3.org/2000/svg" width="206.344" height="49.906" viewBox="0 0 206.344 49.906">
  <defs>
    <style>
      .cls-1 {
        fill: #fff;
        fill-rule: evenodd;
      }
    </style>
  </defs>
  <path id="Стильні_накладки_на_дзеркала" data-name="Стильні накладки на дзеркала" class="cls-1" d="M73.8,201.111c-4.9,0-9.265,2.592-9.265,8.232,0,5.761,4.872,7.945,9.217,7.945a13.311,13.311,0,0,0,5.28-.96V214.12a11.713,11.713,0,0,1-5.112,1.056c-3.312,0-7.009-1.608-7.009-5.857,0-4.08,3.048-6.1,6.841-6.1a11.219,11.219,0,0,1,5.16,1.248v-2.352A13.843,13.843,0,0,0,73.8,201.111Zm18.648,5.424v-1.848H80.833v1.848h4.728V217h2.16V206.535H92.45Zm4.511-1.848H94.849V217h1.9l6.961-9.577V217h2.112V204.687h-2.352l-6.5,9.049v-9.049Zm21.985,0V217h-2.16V206.535h-4.105c-0.792,8.521-1.968,10.753-4.7,10.753a5.46,5.46,0,0,1-.576-0.024l-0.024-1.848a2.073,2.073,0,0,0,.36.024c1.584,0,2.3-2.736,2.952-10.753h8.257Zm9.671,3.84a9.4,9.4,0,0,0-3.912.912v-4.752h-2.16v12.169a37.944,37.944,0,0,0,5.4.432c4.153,0,5.929-1.488,5.929-4.536C133.874,210.039,131.954,208.527,128.617,208.527Zm-0.648,6.817a16.884,16.884,0,0,1-3.264-.312v-3.576a8.236,8.236,0,0,1,3.7-.913c2.113,0,3.217.793,3.217,2.281C131.618,214.432,130.682,215.344,127.969,215.344ZM145.081,217h2.161V204.687h-2.161v5.136h-6.648v-5.136h-2.16V217h2.16v-5.328h6.648V217Zm8.064-14.113v-2.208H150.7v2.208h2.448ZM153,217V204.687h-2.16V217H153Zm18.432,0h2.16V204.687h-2.16v5.136h-6.649v-5.136h-2.16V217h2.16v-5.328h6.649V217Zm10.823-12.577a16.688,16.688,0,0,0-4.824.72v2.136a13.679,13.679,0,0,1,4.584-.84c2.089,0,3.889.456,3.889,2.88v0.72a9.5,9.5,0,0,0-4.057-.864c-2.64,0-5.184,1.056-5.184,4.009,0,2.736,2.208,4.1,4.872,4.1a8.394,8.394,0,0,0,4.609-1.416L186.433,217h1.632v-7.273C188.065,205.791,186.145,204.423,182.256,204.423Zm-3.312,8.737c0-1.608,1.392-2.185,3.168-2.185a8.414,8.414,0,0,1,3.793.865v2.232a7.386,7.386,0,0,1-3.985,1.248C180.456,215.32,178.944,214.84,178.944,213.16Zm17.832-2.737a65.612,65.612,0,0,1,6.265-5.736h-3.048a69.106,69.106,0,0,0-5.161,5.136h-1.008v-5.136h-2.16V217h2.16v-5.328h1.416c1.8,1.728,3.673,3.792,5.113,5.328h2.928C202.129,215.728,198.985,212.464,196.776,210.423Zm17.833-5.736V217h-2.161V206.535h-4.1c-0.792,8.521-1.968,10.753-4.7,10.753a5.46,5.46,0,0,1-.576-0.024l-0.024-1.848a2.073,2.073,0,0,0,.36.024c1.584,0,2.3-2.736,2.952-10.753h8.257Zm8.663-.264a16.688,16.688,0,0,0-4.824.72v2.136a13.679,13.679,0,0,1,4.584-.84c2.088,0,3.888.456,3.888,2.88v0.72a9.5,9.5,0,0,0-4.056-.864c-2.64,0-5.184,1.056-5.184,4.009,0,2.736,2.208,4.1,4.872,4.1a8.393,8.393,0,0,0,4.608-1.416L227.448,217h1.633v-7.273C229.081,205.791,227.16,204.423,223.272,204.423Zm-3.312,8.737c0-1.608,1.392-2.185,3.168-2.185a8.413,8.413,0,0,1,3.792.865v2.232a7.385,7.385,0,0,1-3.984,1.248C221.472,215.32,219.96,214.84,219.96,213.16Zm24.985,1.992h-1.969V204.711l-8.448-.024c-0.528,6.553-1.1,9.577-2.16,10.465h-1.489v5.136H232.9V217h10.032v3.288h2.017v-5.136Zm-4.129,0h-6.1c0.888-1.44,1.368-3.937,1.8-8.593h4.3v8.593Zm11.16-4.729a65.472,65.472,0,0,1,6.264-5.736h-3.048a69.257,69.257,0,0,0-5.16,5.136h-1.009v-5.136h-2.16V217h2.16v-5.328h1.417c1.8,1.728,3.672,3.792,5.112,5.328h2.928C257.328,215.728,254.184,212.464,251.976,210.423Zm10.031-5.736H259.9V217h1.9l6.961-9.577V217h2.112V204.687h-2.352l-6.5,9.049v-9.049ZM105.314,245.8h2.16V233.487h-2.16v5.136H98.665v-5.136H96.5V245.8h2.16v-5.328h6.649V245.8Zm10.823-12.577a16.688,16.688,0,0,0-4.824.72v2.136a13.679,13.679,0,0,1,4.584-.84c2.088,0,3.888.456,3.888,2.88v0.72a9.5,9.5,0,0,0-4.056-.864c-2.64,0-5.184,1.056-5.184,4.009,0,2.736,2.208,4.1,4.872,4.1a8.393,8.393,0,0,0,4.608-1.416l0.288,1.128h1.633v-7.273C121.946,234.591,120.025,233.223,116.137,233.223Zm-3.312,8.737c0-1.608,1.392-2.185,3.168-2.185a8.413,8.413,0,0,1,3.792.865v2.232a7.385,7.385,0,0,1-3.984,1.248C114.337,244.12,112.825,243.64,112.825,241.96Zm31.008,1.992h-1.968V233.511l-8.448-.024c-0.529,6.553-1.1,9.577-2.161,10.465h-1.488v5.136h2.016V245.8h10.033v3.288h2.016v-5.136Zm-4.128,0h-6.1c0.888-1.44,1.368-3.936,1.8-8.593h4.3v8.593Zm10.559-10.729a14.513,14.513,0,0,0-4.632.744l0.024,2.064a14.278,14.278,0,0,1,4.512-.84c1.848,0,2.641.624,2.641,1.7,0,1.176-.889,1.728-2.617,1.728H146.76l-0.024,1.681h3.456c2.16,0,3,.7,3,1.824,0,1.2-.985,1.992-3.1,1.992a12.76,12.76,0,0,1-4.656-.888v2.136a12.819,12.819,0,0,0,4.608.72c3.889,0,5.4-1.584,5.4-3.792a2.952,2.952,0,0,0-2.424-2.977V239.3a3.173,3.173,0,0,0,2.04-2.928C155.065,234.711,153.529,233.223,150.264,233.223Zm19.153,7.225v-1.273c0-3.72-2.064-5.952-5.448-5.952-3.265,0-6.361,1.824-6.361,6.5,0,4.537,3.192,6.361,6.6,6.361a16.287,16.287,0,0,0,4.968-.84V243.16a14.384,14.384,0,0,1-4.872.912c-1.585,0-4.249-.384-4.537-3.624h9.649Zm-9.553-1.849c0.216-2.328,2.088-3.36,4.057-3.36,2.232,0,3.216,1.512,3.288,3.36h-7.345Zm18.817-5.376a7.641,7.641,0,0,0-4.441,1.416l-0.312-1.152h-1.584V250.6h2.16v-5.52a7.748,7.748,0,0,0,3.889,1.008,6.266,6.266,0,0,0,6.48-6.577A5.881,5.881,0,0,0,178.681,233.223Zm-0.576,10.849a6.408,6.408,0,0,1-3.6-1.1v-6.385a5.767,5.767,0,0,1,3.769-1.392,4.084,4.084,0,0,1,4.32,4.392A4.2,4.2,0,0,1,178.105,244.072Zm14.76-4.849a65.472,65.472,0,0,1,6.264-5.736h-3.048a69.3,69.3,0,0,0-5.161,5.136h-1.008v-5.136h-2.16V245.8h2.16v-5.328h1.416c1.8,1.728,3.673,3.792,5.113,5.328h2.928C198.217,244.528,195.073,241.264,192.865,239.223Zm13.223-6a16.688,16.688,0,0,0-4.824.72v2.136a13.679,13.679,0,0,1,4.584-.84c2.089,0,3.889.456,3.889,2.88v0.72a9.5,9.5,0,0,0-4.057-.864c-2.64,0-5.184,1.056-5.184,4.009,0,2.736,2.208,4.1,4.872,4.1a8.4,8.4,0,0,0,4.609-1.416l0.288,1.128H211.9v-7.273C211.9,234.591,209.977,233.223,206.088,233.223Zm-3.312,8.737c0-1.608,1.392-2.185,3.168-2.185a8.417,8.417,0,0,1,3.793.865v2.232a7.389,7.389,0,0,1-3.985,1.248C204.288,244.12,202.776,243.64,202.776,241.96Zm22.249-8.473V245.8h-2.161V235.335h-4.1c-0.792,8.521-1.968,10.753-4.7,10.753a5.46,5.46,0,0,1-.576-0.024l-0.024-1.848a2.073,2.073,0,0,0,.36.024c1.584,0,2.3-2.736,2.952-10.753h8.257Zm8.663-.264a16.688,16.688,0,0,0-4.824.72v2.136a13.679,13.679,0,0,1,4.584-.84c2.088,0,3.889.456,3.889,2.88v0.72a9.508,9.508,0,0,0-4.057-.864c-2.64,0-5.184,1.056-5.184,4.009,0,2.736,2.208,4.1,4.872,4.1a8.4,8.4,0,0,0,4.609-1.416l0.288,1.128H239.5v-7.273C239.5,234.591,237.577,233.223,233.688,233.223Zm-3.312,8.737c0-1.608,1.392-2.185,3.168-2.185a8.42,8.42,0,0,1,3.793.865v2.232a7.392,7.392,0,0,1-3.985,1.248C231.888,244.12,230.376,243.64,230.376,241.96Z" transform="translate(-64.531 -200.688)"/>
</svg>
