<svg xmlns="http://www.w3.org/2000/svg" xmlns:xlink="http://www.w3.org/1999/xlink" width="169.719" height="42.469" viewBox="0 0 169.719 42.469">
  <defs>
    <style>
      .cls-1 {
        fill: #fff;
        fill-rule: evenodd;
        filter: url(#filter);
      }
    </style>
    <filter id="filter" x="111.844" y="24.125" width="169.719" height="42.469" filterUnits="userSpaceOnUse">
      <feFlood result="flood" flood-color="#fdfeff"/>
      <feComposite result="composite" operator="in" in2="SourceGraphic"/>
      <feBlend result="blend" in2="SourceGraphic"/>
    </filter>
  </defs>
  <path id="Nissan_Qashqai_N-Style" data-name="Nissan Qashqai N-Style" class="cls-1" d="M124.855,40V25.053h-2.139V36.229l-8.393-11.175H111.84V40h2.138V27.951L123.038,40h1.817Zm5.775-13.521V24.363h-2.345v2.116h2.345ZM130.492,40V28.2h-2.069V40h2.069Zm7.75-12.049c-2.253,0-4.989.437-4.989,3.449a3.16,3.16,0,0,0,2.667,3.012l3.449,0.828c0.92,0.23,1.633.575,1.633,1.449,0,1.472-1.771,1.679-3.38,1.679a17.158,17.158,0,0,1-4.484-.736v2a18.64,18.64,0,0,0,4.461.644c3.2,0,5.5-.759,5.5-3.564,0-2.368-1.517-3.035-3.4-3.472l-2.621-.6c-1.127-.253-1.7-0.69-1.7-1.334,0-1.38,1.61-1.449,2.92-1.449a14.3,14.3,0,0,1,4.323.713v-2A15.771,15.771,0,0,0,138.242,27.951Zm11.8,0c-2.253,0-4.99.437-4.99,3.449a3.161,3.161,0,0,0,2.668,3.012l3.449,0.828c0.92,0.23,1.632.575,1.632,1.449,0,1.472-1.77,1.679-3.38,1.679a17.174,17.174,0,0,1-4.484-.736v2a18.655,18.655,0,0,0,4.461.644c3.2,0,5.5-.759,5.5-3.564,0-2.368-1.518-3.035-3.4-3.472l-2.622-.6c-1.126-.253-1.7-0.69-1.7-1.334,0-1.38,1.609-1.449,2.92-1.449a14.3,14.3,0,0,1,4.323.713v-2A15.777,15.777,0,0,0,150.041,27.951Zm12.351,0a15.984,15.984,0,0,0-4.622.69v2.047a13.1,13.1,0,0,1,4.392-.8c2,0,3.725.437,3.725,2.759v0.69A9.1,9.1,0,0,0,162,32.5c-2.53,0-4.967,1.012-4.967,3.84,0,2.621,2.115,3.932,4.668,3.932a8.043,8.043,0,0,0,4.415-1.357L166.393,40h1.563V33.033C167.956,29.261,166.117,27.951,162.392,27.951Zm-3.174,8.37c0-1.541,1.334-2.093,3.036-2.093a8.073,8.073,0,0,1,3.633.828v2.139a7.078,7.078,0,0,1-3.817,1.2C160.667,38.39,159.218,37.931,159.218,36.321Zm18.905-8.37a8.919,8.919,0,0,0-4.852,1.61L172.926,28.2h-1.517V40h2.069V31.4a7.457,7.457,0,0,1,4.185-1.472c2.507,0,3.059.9,3.059,2.989V40h2.069V32.55C182.791,28.962,181.089,27.951,178.123,27.951Zm21.367-3.173c-4.944,0-8.049,3.012-8.049,7.726,0,4.691,3.1,7.772,8.072,7.772a9.127,9.127,0,0,0,1.609-.138l3.288,2.369,1.288-1.633-2.069-1.564a7.308,7.308,0,0,0,3.725-6.807C207.354,27.882,204.525,24.777,199.49,24.777Zm0,2.024c3.311,0,5.633,1.932,5.633,5.7a5.31,5.31,0,0,1-5.61,5.7c-3.427,0-5.8-2.093-5.8-5.7C193.718,28.664,196.109,26.8,199.49,26.8Zm15.594,1.15a15.989,15.989,0,0,0-4.622.69v2.047a13.106,13.106,0,0,1,4.392-.8c2,0,3.725.437,3.725,2.759v0.69a9.1,9.1,0,0,0-3.886-.828c-2.529,0-4.967,1.012-4.967,3.84,0,2.621,2.116,3.932,4.668,3.932a8.041,8.041,0,0,0,4.415-1.357L219.085,40h1.564V33.033C220.649,29.261,218.809,27.951,215.084,27.951Zm-3.173,8.37c0-1.541,1.333-2.093,3.035-2.093a8.071,8.071,0,0,1,3.633.828v2.139a7.074,7.074,0,0,1-3.817,1.2C213.359,38.39,211.911,37.931,211.911,36.321Zm16.49-8.37c-2.254,0-4.99.437-4.99,3.449a3.161,3.161,0,0,0,2.667,3.012l3.45,0.828c0.92,0.23,1.632.575,1.632,1.449,0,1.472-1.77,1.679-3.38,1.679a17.166,17.166,0,0,1-4.484-.736v2a18.647,18.647,0,0,0,4.461.644c3.2,0,5.5-.759,5.5-3.564,0-2.368-1.518-3.035-3.4-3.472l-2.622-.6c-1.127-.253-1.7-0.69-1.7-1.334,0-1.38,1.609-1.449,2.92-1.449a14.3,14.3,0,0,1,4.323.713v-2A15.777,15.777,0,0,0,228.4,27.951Zm14.213,0a9.4,9.4,0,0,0-4.645,1.449V24.111H235.9V40h2.069V31.4a7.588,7.588,0,0,1,4.185-1.472c2.507,0,3.059.9,3.059,2.989V40h2.069V32.55C247.282,28.962,245.58,27.951,242.614,27.951ZM262.048,28.2h-1.541l-0.207.874a7.174,7.174,0,0,0-3.932-1.127,6.015,6.015,0,0,0-6.324,6.209c0,4.024,2.921,6.117,6.278,6.117a7.691,7.691,0,0,0,3.656-.92V44.6h2.07V28.2Zm-5.5,10.164a4.043,4.043,0,0,1-4.323-4.208,4.113,4.113,0,0,1,4.392-4.323,5.752,5.752,0,0,1,3.357,1.058V37.31A6.309,6.309,0,0,1,256.552,38.367Zm13.8-10.417a15.994,15.994,0,0,0-4.622.69v2.047a13.11,13.11,0,0,1,4.392-.8c2,0,3.725.437,3.725,2.759v0.69a9.1,9.1,0,0,0-3.886-.828c-2.529,0-4.967,1.012-4.967,3.84,0,2.621,2.116,3.932,4.668,3.932a8.038,8.038,0,0,0,4.415-1.357L274.353,40h1.564V33.033C275.917,29.261,274.077,27.951,270.352,27.951Zm-3.173,8.37c0-1.541,1.334-2.093,3.035-2.093a8.068,8.068,0,0,1,3.633.828v2.139a7.071,7.071,0,0,1-3.817,1.2C268.628,38.39,267.179,37.931,267.179,36.321Zm14.4-9.842V24.363h-2.346v2.116h2.346ZM281.439,40V28.2h-2.07V40h2.07ZM124.855,62V47.053h-2.139V58.229l-8.393-11.175H111.84V62h2.138V49.951L123.038,62h1.817Zm10.351-6.025V54.021h-7.588v1.955h7.588Zm8.28-9.2c-3.334,0-6.117,1.173-6.117,4.093,0,2.392,1.633,3.472,3.542,3.978l3.518,0.966c1.288,0.345,2.23.966,2.23,2.185,0,1.4-1.609,2.3-4.116,2.3a16.711,16.711,0,0,1-5.381-1.219v2.185a14.927,14.927,0,0,0,5.381,1.012c4.024,0,6.347-1.564,6.347-4.346,0-2.277-1.518-3.4-3.357-3.909l-3.795-1.081c-1.241-.345-2.184-0.966-2.184-2.07,0-1.656,1.978-2.138,3.932-2.138a15.189,15.189,0,0,1,4.76.9v-2.07A14.728,14.728,0,0,0,143.486,46.777ZM157.953,50.2h-3.932V47.191h-1.794L151.951,50.2H149.7v1.771h2.253v6.737c0,2.9,1.886,3.564,4.047,3.564a9.467,9.467,0,0,0,2.3-.414v-1.84a9.08,9.08,0,0,1-2.392.414c-1.172,0-1.885-.437-1.885-1.748V51.974h3.932V50.2Zm11.292,0a74.785,74.785,0,0,1-3.932,9.29,68.12,68.12,0,0,1-4.254-9.29h-2.3a87.536,87.536,0,0,0,5.381,11.5c-0.874,1.61-1.793,3.173-2.759,4.9h2.391a107.458,107.458,0,0,0,7.888-16.4h-2.415ZM175.226,62V46.111h-2.069V62h2.069ZM189.3,56.872V55.653c0-3.564-1.977-5.7-5.22-5.7-3.127,0-6.093,1.748-6.093,6.232,0,4.346,3.058,6.094,6.323,6.094a15.6,15.6,0,0,0,4.76-.8v-2a13.78,13.78,0,0,1-4.668.874c-1.517,0-4.07-.368-4.346-3.472H189.3ZM180.148,55.1c0.207-2.23,2-3.219,3.886-3.219,2.139,0,3.082,1.449,3.151,3.219h-7.037Z" transform="translate(-111.844 -24.125)"/>
</svg>
