<svg width="61.006mm" height="20.803mm" version="1.1" viewBox="0 0 61.006 20.803" xmlns="http://www.w3.org/2000/svg">
 <g transform="translate(50.536 -137.9)" fill="#fff">
  <path d="m-46.773 144.71-0.38498-1.6912h-1.7462l-0.38498 1.6912h-1.2466l1.6591-6.728h1.6912l1.6637 6.728zm-0.61872-2.7957-0.35748-1.5583q-0.03208-0.14207-0.14666-0.71038-0.10999-0.57289-0.13291-0.76538-0.05958 0.39415-0.15124 0.87079-0.09166 0.47206-0.47664 2.1632z" style="font-feature-settings:normal;font-variant-caps:normal;font-variant-ligatures:no-common-ligatures;font-variant-numeric:normal"/>
  <path d="m-40.801 138.01v4.3356q0 1.1962-0.54081 1.8287-0.54081 0.62788-1.5628 0.62788-0.99912 0-1.5216-0.6233-0.52248-0.62789-0.52248-1.8516v-4.3173h1.2374v4.409q0 1.2787 0.84788 1.2787 0.39415 0 0.60955-0.3254t0.21541-0.92579v-4.4364z" style="font-feature-settings:normal;font-variant-caps:normal;font-variant-ligatures:no-common-ligatures;font-variant-numeric:normal"/>
  <path d="m-37.584 144.71h-1.242v-5.6052h-1.2833v-1.0954h3.8086v1.0954h-1.2833z" style="font-feature-settings:normal;font-variant-caps:normal;font-variant-ligatures:no-common-ligatures;font-variant-numeric:normal"/>
  <path d="m-31.108 141.35q0 1.6637-0.6233 2.5574-0.6233 0.8937-1.7828 0.8937-1.1641 0-1.7874-0.88912-0.6233-0.89371-0.6233-2.5711 0-1.6637 0.6233-2.5482 0.6233-0.88912 1.7966-0.88912 1.1595 0 1.7782 0.8937 0.61872 0.88913 0.61872 2.5528zm-3.5427 0q0 1.1458 0.28874 1.7462 0.28874 0.60039 0.84788 0.60039 1.1274 0 1.1274-2.3466 0-2.3466-1.1183-2.3466-0.56831 0-0.85704 0.60039-0.28874 0.59581-0.28874 1.7462z" style="font-feature-settings:normal;font-variant-caps:normal;font-variant-ligatures:no-common-ligatures;font-variant-numeric:normal"/>
  <path d="m-27.735 144.71-1.2741-5.706h-0.05041q0.08708 0.65997 0.08708 1.21v4.496h-1.1549v-6.7005h1.9157l1.1458 5.266h0.03666l1.1366-5.266h1.9432v6.7005h-1.1824v-4.5419q0-0.56373 0.06416-1.155h-0.03666l-1.2695 5.6968z" style="font-feature-settings:normal;font-variant-caps:normal;font-variant-ligatures:no-common-ligatures;font-variant-numeric:normal"/>
  <path d="m-18.147 141.35q0 1.6637-0.6233 2.5574-0.6233 0.8937-1.7828 0.8937-1.1641 0-1.7874-0.88912-0.6233-0.89371-0.6233-2.5711 0-1.6637 0.6233-2.5482 0.6233-0.88912 1.7966-0.88912 1.1595 0 1.7782 0.8937 0.61872 0.88913 0.61872 2.5528zm-3.5427 0q0 1.1458 0.28874 1.7462 0.28874 0.60039 0.84788 0.60039 1.1274 0 1.1274-2.3466 0-2.3466-1.1183-2.3466-0.56831 0-0.85704 0.60039-0.28874 0.59581-0.28874 1.7462z" style="font-feature-settings:normal;font-variant-caps:normal;font-variant-ligatures:no-common-ligatures;font-variant-numeric:normal"/>
  <path d="m-17.166 138.01h1.7095q1.045 0 1.5216 0.4079 0.47664 0.40331 0.47664 1.2878 0 0.58206-0.25207 0.9762-0.25207 0.38957-0.68747 0.47206v0.0458q0.56831 0.14207 0.82038 0.53164 0.25207 0.38956 0.25207 1.0358 0 0.91204-0.49039 1.4299-0.48581 0.51331-1.3337 0.51331h-2.0166zm1.1733 2.6949h0.57289q0.39415 0 0.55456-0.21082 0.16041-0.21083 0.16041-0.62789t-0.18332-0.5958q-0.18332-0.18333-0.57747-0.18333h-0.52706zm0 1.0404v1.8745h0.62789q0.38956 0 0.57747-0.23832 0.19249-0.23832 0.19249-0.73788 0-0.89829-0.7883-0.89829z" style="font-feature-settings:normal;font-variant-caps:normal;font-variant-ligatures:no-common-ligatures;font-variant-numeric:normal"/>
  <path d="m-12.175 144.71v-6.7005h1.1733v6.7005z" style="font-feature-settings:normal;font-variant-caps:normal;font-variant-ligatures:no-common-ligatures;font-variant-numeric:normal"/>
  <path d="m-9.5763 144.71v-6.7005h1.2466v5.6097h1.7278v1.0908z" style="font-feature-settings:normal;font-variant-caps:normal;font-variant-ligatures:no-common-ligatures;font-variant-numeric:normal"/>
  <path d="m-5.5753 144.71v-6.7005h1.1733v6.7005z" style="font-feature-settings:normal;font-variant-caps:normal;font-variant-ligatures:no-common-ligatures;font-variant-numeric:normal"/>
  <path d="m1.1436 138.01v4.3356q0 1.1962-0.54081 1.8287-0.54081 0.62788-1.5628 0.62788-0.99912 0-1.5216-0.6233-0.52247-0.62789-0.52247-1.8516v-4.3173h1.2374v4.409q0 1.2787 0.84788 1.2787 0.39415 0 0.60955-0.3254t0.21541-0.92579v-4.4364zm-1.9799 7.75q0 0.20166 0.091662 0.29332 0.096245 0.0917 0.23832 0.0917 0.18332 0 0.36665-0.0642v0.76996q-0.31623 0.0733-0.55456 0.0733-0.47664 0-0.76996-0.2704-0.28874-0.2704-0.28874-0.7333 0-0.64622 0.72872-1.2099h0.76996q-0.58206 0.60039-0.58206 1.0495z" style="font-feature-settings:normal;font-variant-caps:normal;font-variant-ligatures:no-common-ligatures;font-variant-numeric:normal"/>
  <path d="m-44.879 158.57-0.57878-2.5425h-2.6252l-0.57878 2.5425h-1.8741l2.4942-10.115h2.5425l2.5011 10.115zm-0.93018-4.203-0.53744-2.3427q-0.04823-0.2136-0.22049-1.068-0.16536-0.86128-0.19982-1.1507-0.08957 0.59255-0.22738 1.3091-0.1378 0.70969-0.71658 3.2522z" style="font-feature-settings:normal;font-variant-caps:normal;font-variant-ligatures:no-common-ligatures;font-variant-numeric:normal"/>
  <path d="m-35.901 148.49v6.5181q0 1.7983-0.81304 2.7492-0.81304 0.94395-2.3496 0.94395-1.5021 0-2.2875-0.93706-0.78548-0.94396-0.78548-2.7836v-6.4906h1.8604v6.6284q0 1.9224 1.2747 1.9224 0.59256 0 0.9164-0.48921 0.32384-0.4892 0.32384-1.3918v-6.6697z" style="font-feature-settings:normal;font-variant-caps:normal;font-variant-ligatures:no-common-ligatures;font-variant-numeric:normal"/>
  <path d="m-27.881 158.57h-1.9982l-1.6536-4.3064-0.75103 0.75103v3.5553h-1.8741v-10.073h1.8741v4.9954l0.65457-1.509 1.7157-3.4864h2.005l-2.3289 4.3615z" style="font-feature-settings:normal;font-variant-caps:normal;font-variant-ligatures:no-common-ligatures;font-variant-numeric:normal"/>
  <path d="m-23.871 149.99q-0.80615 0-1.2747 0.94396-0.46164 0.94395-0.46164 2.6252 0 3.5002 1.8259 3.5002 0.79926 0 1.6743-0.50988v1.6674q-0.73725 0.4892-1.8879 0.4892-1.7019 0-2.6183-1.3505-0.9095-1.3574-0.9095-3.8103t0.93707-3.8241q0.94396-1.3711 2.6183-1.3711 0.55122 0 1.0542 0.15158 0.50987 0.15158 1.0886 0.53055l-0.62012 1.5227q-0.31006-0.2136-0.66146-0.38585-0.3514-0.17915-0.76481-0.17915z" style="font-feature-settings:normal;font-variant-caps:normal;font-variant-ligatures:no-common-ligatures;font-variant-numeric:normal"/>
  <path d="m-20.343 158.57v-10.073h1.7639v10.073z" style="font-feature-settings:normal;font-variant-caps:normal;font-variant-ligatures:no-common-ligatures;font-variant-numeric:normal"/>
  <path d="m-9.5045 153.52q0 2.5011-0.93707 3.8447-0.93707 1.3436-2.6803 1.3436-1.7501 0-2.6872-1.3367-0.93707-1.3436-0.93707-3.8654 0-2.5011 0.93707-3.831 0.93707-1.3367 2.701-1.3367 1.7432 0 2.6734 1.3436 0.93018 1.3367 0.93018 3.8378zm-5.3261 0q0 1.7226 0.43408 2.6252 0.43408 0.90262 1.2747 0.90262 1.695 0 1.695-3.5278t-1.6812-3.5278q-0.85438 0-1.2885 0.90262-0.43408 0.89572-0.43408 2.6252z" style="font-feature-settings:normal;font-variant-caps:normal;font-variant-ligatures:no-common-ligatures;font-variant-numeric:normal"/>
  <path d="m-0.97447 158.57h-2.2875l-3.1144-7.2967h-0.089573q0.17225 0.83371 0.17225 1.7914v5.5053h-1.7363v-10.073h2.3013l3.0868 7.2209h0.075792q-0.13091-0.72347-0.13091-1.7226v-5.4984h1.7225z" style="font-feature-settings:normal;font-variant-caps:normal;font-variant-ligatures:no-common-ligatures;font-variant-numeric:normal"/>
  <path d="m5.585 158.57-0.57878-2.5425h-2.6252l-0.57878 2.5425h-1.8741l2.4942-10.115h2.5425l2.5011 10.115zm-0.93018-4.203-0.53743-2.3427q-0.048231-0.2136-0.22049-1.068-0.16536-0.86128-0.19982-1.1507-0.089573 0.59255-0.22738 1.3091-0.1378 0.70969-0.71658 3.2522z" style="font-feature-settings:normal;font-variant-caps:normal;font-variant-ligatures:no-common-ligatures;font-variant-numeric:normal"/>
  <path d="m8.7062 158.57v-10.073h1.7639v10.073z" style="font-feature-settings:normal;font-variant-caps:normal;font-variant-ligatures:no-common-ligatures;font-variant-numeric:normal"/>
 </g>
</svg>
