<svg width="66.286mm" height="9.7412mm" version="1.1" viewBox="0 0 66.286 9.7412" xmlns="http://www.w3.org/2000/svg">
 <g transform="translate(-132.45 -208.27)">
  <g transform="matrix(.49955 0 0 .49955 -459.87 -857.77)">
   <path d="m1207.5 2148.8h3.2l2.5-2.6 1.8 2.6h3.2l-3-4.5 4.4-4.5h-3.2l-2.6 2.6-1.8-2.6h-3.1l3.1 4.5z" fill="#12100b"/>
  </g>
  <g transform="matrix(.49955 0 0 .49955 -459.87 -857.77)">
   <path d="m1197.5 2148.8 2.3-14.8h-2.9l-2.3 14.8z" fill="#fed000"/>
  </g>
  <g transform="matrix(.49955 0 0 .49955 -459.87 -857.77)">
   <path d="m1195.3 2134h-2.8l-2.3 14.8h2.9z" fill="#d71016"/>
  </g>
  <g transform="matrix(.49955 0 0 .49955 -459.87 -857.77)">
   <path d="m1188 2134-2.3 14.8h2.9l2.3-14.8z" fill="#12100b"/>
  </g>
  <g transform="matrix(.49955 0 0 .49955 -459.87 -857.77)">
   <path d="m1202.9 2148.8h3.8l0.4-2.5h-4.7l0.6-4h4.7l0.4-2.5h-4.7l0.5-3.3h4.7l0.4-2.5h-7.6l-2.3 14.8z" fill="#13120d"/>
  </g>
  <g transform="matrix(.49955 0 0 .49955 -459.87 -857.77)">
   <path d="m1252.2 2138.5c0.9 0 1.7-0.7 1.8-1.6 0.1-0.8-0.5-1.6-1.3-1.6-0.9 0-1.7 0.8-1.8 1.6-0.1 0.9 0.5 1.6 1.3 1.6z" fill="#13120d"/>
  </g>
  <g transform="matrix(.49955 0 0 .49955 -459.87 -857.77)">
   <path d="m1278.2 2141.6c0.8 0 1.3 0.3 1.7 0.9l0.4-2.5c-0.6-0.4-1.3-0.6-2-0.6-2.7 0-5 2.2-5.4 4.8s1.1 4.8 3.8 4.8c0.8 0 1.5-0.2 2.3-0.6l0.4-2.5c-0.5 0.5-1.2 0.8-1.9 0.8-1.5 0-2.2-1.2-2-2.6 0.2-1.1 1.3-2.5 2.7-2.5z" fill="#13120d"/>
  </g>
  <g transform="matrix(.49955 0 0 .49955 -459.87 -857.77)">
   <path d="m1247.6 2143.3c-0.8-0.4-1.7-0.6-1.6-1.3 0-0.4 0.6-0.8 1-0.8 0.5 0 0.9 0.3 1.3 0.6l1.3-1.5c-0.6-0.7-1.8-0.9-2.8-0.9-1.7 0-3.1 1.2-3.3 2.9-0.2 1.5 0.6 2 1.4 2.4s1.7 0.6 1.6 1.4c-0.1 0.6-0.6 1-1.2 1-0.8 0-1.3-0.5-1.7-1l-1.4 1.6c0.7 0.9 1.7 1.5 3 1.5 1.9 0 3.7-1.2 4-3.2 0.1-1.7-0.8-2.3-1.6-2.7z" fill="#13120d"/>
  </g>
  <g transform="matrix(.49955 0 0 .49955 -459.87 -857.77)">
   <path d="m1238.7 2148-0.1 0.8h2.5l1.4-9h-2.5l-0.1 0.8c-0.5-0.8-1.4-1.1-2.3-1.1-2.6 0-4.5 2.4-4.8 4.7-0.4 2.4 0.8 4.8 3.4 4.8 0.8 0.1 1.8-0.3 2.5-1zm-3.4-3.7c0.2-1.2 1.2-2.5 2.5-2.5s1.9 1.3 1.7 2.5-1.2 2.5-2.5 2.5-1.9-1.3-1.7-2.5z" fill="#13120d"/>
  </g>
  <g transform="matrix(.49955 0 0 .49955 -459.87 -857.77)">
   <path d="m1296.8 2139.5c-0.9 0-1.8 0.4-2.4 1.2l0.1-0.9h-2.6l-1.4 9h2.6l0.6-4c0.2-1.4 0.7-3 2.4-3 0.4 0 0.7 0.1 1 0.3l0.4-2.5c-0.2-0.1-0.5-0.1-0.7-0.1z" fill="#13120d"/>
  </g>
  <g transform="matrix(.49955 0 0 .49955 -459.87 -857.77)">
   <path d="m1286.5 2148-0.1 0.8h2.5l1.4-9h-2.5l-0.1 0.8c-0.5-0.8-1.4-1.1-2.3-1.1-2.6 0-4.5 2.4-4.8 4.7-0.4 2.4 0.8 4.8 3.4 4.8 0.8 0.1 1.8-0.3 2.5-1zm-3.4-3.7c0.2-1.2 1.2-2.5 2.5-2.5s1.9 1.3 1.7 2.5-1.2 2.5-2.5 2.5-1.9-1.3-1.7-2.5z" fill="#13120d"/>
  </g>
  <g transform="matrix(.49955 0 0 .49955 -459.87 -857.77)">
   <path d="m1219 2148.8h2.7l2.3-14.8h-2.7z" fill="#13120d"/>
  </g>
  <g transform="matrix(.49955 0 0 .49955 -459.87 -857.77)">
   <path d="m1250.8 2139.8-1.5 9h2.6l1.4-9z" fill="#13120d"/>
  </g>
  <g transform="matrix(.49955 0 0 .49955 -459.87 -857.77)">
   <path d="m1259.9 2139.5c-0.9 0-1.9 0.3-2.5 1.1l0.1-0.8h-2.6l-1.4 9h2.6l0.7-4.5c0.2-1.1 0.5-2.8 2-2.8s1.2 1.4 1 2.5l-0.7 4.8h2.6l0.8-5.5c0.2-2.1-0.2-3.8-2.6-3.8z" fill="#13120d"/>
  </g>
  <g transform="matrix(.49955 0 0 .49955 -459.87 -857.77)">
   <path d="m1229 2146.3c-0.4 0.5-0.9 0.8-1.6 0.8-1.3 0-1.4-1.3-1.2-2.4h5.8v-0.3c0.4-2.7-0.6-4.9-3.5-4.9s-4.7 2.2-5.1 4.9 1 4.7 3.8 4.7c1.9 0 3.6-1 4.5-2.8zm-0.7-5c1 0 1.5 0.9 1.4 1.8h-3.4c0.2-0.9 0.9-1.8 2-1.8z" fill="#12100b"/>
  </g>
  <g transform="matrix(.49955 0 0 .49955 -459.87 -857.77)">
   <path d="m1270.2 2139.8-0.1 0.8c-0.4-0.7-1.3-1.2-2.2-1.2-2.7 0-4.6 2.4-4.9 4.9-0.4 2.4 0.7 4.7 3.3 4.7 0.9 0 2-0.5 2.6-1.2l-0.1 0.6c-0.2 1.4-0.5 3-2.3 3-0.8 0-1.3-0.4-1.5-1.1h-2.8c0 2.1 1.9 3.2 4 3.2 3.4 0 4.7-2.4 5.2-5.4l1.3-8.5zm-0.3 4.5c-0.2 1.2-1.2 2.5-2.5 2.5s-1.9-1.3-1.7-2.5 1.2-2.5 2.5-2.5c1.2-0.1 1.9 1.3 1.7 2.5z" fill="#12100b"/>
  </g>
  <g transform="matrix(1.0694 0 -.23463 1.0015 0 -15.321)" stroke-width=".202" style="font-feature-settings:normal;font-variant-caps:normal;font-variant-ligatures:no-common-ligatures;font-variant-numeric:normal" aria-label="com">
   <path d="m228.81 228.05c-0.18314-0.11312-0.404-0.16699-0.61408-0.16699-0.79723 0-1.3736 0.63024-1.3736 1.4167 0 0.75952 0.55483 1.4005 1.3359 1.4005 0.23163 0 0.4471-0.0485 0.65179-0.1616v-0.7272c-0.13466 0.15083-0.3232 0.25317-0.52789 0.25317-0.43094 0-0.69488-0.34474-0.69488-0.75952 0-0.38784 0.2424-0.78645 0.66795-0.78645 0.23162 0 0.39322 0.097 0.55482 0.25856z"/>
   <path d="m230.49 227.89c-0.82416 0-1.3898 0.58715-1.3898 1.4113 0 0.81877 0.56021 1.4059 1.3898 1.4059s1.3898-0.58715 1.3898-1.4059c0-0.82416-0.5656-1.4113-1.3898-1.4113zm0 0.66795c0.38784 0 0.62485 0.37707 0.62485 0.74336 0 0.35552-0.23701 0.73797-0.62485 0.73797s-0.62485-0.38245-0.62485-0.73797c0-0.36629 0.23701-0.74336 0.62485-0.74336z"/>
   <path d="m232.99 227.97h-0.75413v2.6448h0.75413v-1.2982c0-0.28011-0.0215-0.82955 0.39862-0.82955 0.39322 0 0.3609 0.52789 0.3609 0.78645v1.3413h0.75414v-1.2982c0-0.27472-5e-3 -0.82955 0.404-0.82955 0.37168 0 0.35552 0.47941 0.35552 0.73797v1.3898h0.75413v-1.6483c0-0.57637-0.16698-1.0827-0.84032-1.0827-0.30704 0-0.60869 0.15622-0.77029 0.41478-0.17238-0.28011-0.43094-0.41478-0.75952-0.41478-0.2424 0-0.50096 0.11312-0.6464 0.3232h-0.0108z"/>
  </g>
  <g transform="matrix(.30692 0 0 .30119 -196.79 -428.36)">
   <path d="m1252.2 2138.5c0.9 0 1.7-0.7 1.8-1.6 0.1-0.8-0.5-1.6-1.3-1.6-0.9 0-1.7 0.8-1.8 1.6-0.1 0.9 0.5 1.6 1.3 1.6z" fill="#13120d"/>
  </g>
 </g>
</svg>
