<svg width="152.97mm" height="461.71mm" version="1.1" viewBox="0 0 152.97 461.71" xmlns="http://www.w3.org/2000/svg">
 <g transform="matrix(.05651 -.0039002 -.0039002 -.05651 -795.11 519.53)">
  <path d="m15051 1668 1210.2-108.86 38.9 432.08-1210.2 108.86-38.9-432.08" fill="#e8eafc"/>
 </g>
 <g transform="matrix(.056043 -.003868 -.003868 -.056043 -795.11 519.53)">
  <path d="m15479 2864.7 820.8-73.84-69-767.05-820.8 73.83 69 767.06" fill="#ffbe94"/>
 </g>
 <g transform="matrix(.055385 -.0038226 -.0038226 -.055385 -795.11 519.53)">
  <path d="m15480 3532.5c18.7 14.91 34 30.76 46.5 47.39 63.3 84.13 53.4 187.84 19.9 286.81 4.8 9.03 9.2 18.32 13.3 27.76 18.6 19.88 34.4 42.26 47.5 66.32 21.5 11.86 42.1 25.79 61.8 41.59 12.3 9.85 23.5 20.76 33.9 32.39 43 1.46 86.3 2.42 129.4-0.33 27.9-2.47 56.2-5.01 84.2-7.52 196.3-17.66 383.2-34.48 383.2-34.48s-47.6-529.33-82.4-916.4c-1.2-13.42-2.4-26.65-3.5-39.77-17.9-116.81 20-224.23-30.2-334.27-54.8-97.56-164.3-146.48-265.5-134.08-19.9 1.66-40.5 5.61-61.6 12.11-18.7 1.95-37.8 3.43-57 4.72s-38.5 2.39-57.9 3.59c-19.4 1.19-38.8 2.5-58 4.34-56.9 0.55-109.3 21.95-158.3 51.99-4.6 15.03-10 29.88-16.5 44.53-8.6 14.14-17.2 28.27-25.8 42.4 10.1 20.31 13 44.99 11.9 70.06-17.3 128.16-73.9 265.9 37 365.72 9.8 14.42 19.6 29.11 28.6 44.38 7.9 23.41 4.3 47.84-4.9 72.79-27.3 80.83-135 162.87-75.6 247.96" fill="#f09a6f"/>
 </g>
 <g transform="matrix(.060011 -.0041419 -.0041419 -.060011 -795.11 519.53)">
  <path d="m13700 6519.8 37 411.36c39.2 436.02 424.5 757.69 860.5 718.47l945.3-85.04c436-39.23 757.7-424.49 718.5-860.5l-37-411.37c-39.3-436.02-424.5-757.69-860.5-718.46l-945.4 85.04c-436 39.22-757.6 424.48-718.4 860.5" fill="#dbdfff"/>
 </g>
 <g transform="matrix(.059819 -.0041286 -.0041286 -.059819 -795.11 519.53)">
  <path d="m16226 6320.4 36.6 406.78c37 411.53-266.6 775.15-678.1 812.17l-942.5 84.78c-411.5 37.02-775.1-266.58-812.2-678.11l-36.6-406.78c-37-411.53 266.6-775.15 678.2-812.17l942.4-84.78c411.5-37.02 775.2 266.58 812.2 678.11" fill="#7aba6f"/>
 </g>
 <g transform="matrix(.05975 -.0041239 -.0041239 -.05975 -795.11 519.53)">
  <path d="m16119 7241c-123.2-117.49-256.4-224.23-399.1-317.14-170.1-110.67-340.9-214.93-526.8-296.76-186.9-82.24-382.9-145.55-579.1-200.72-248.7-69.9-505.2-107.05-755.3-170.49 100-285.67 359.3-501.39 680.4-530.28l849.4-76.41c438-39.4 825.1 283.74 864.5 721.75l28.1 313.08c18.7 207.67-44.2 403.84-162.1 556.97" fill="#58a84c"/>
 </g>
 <g transform="matrix(.05682 -.0039216 -.0039216 -.05682 -795.11 519.53)">
  <path d="m16294 6016.7-12.6-140.57c-7.6-84.02-81.8-146-165.8-138.44l-204 18.34-298.9-3323c-7-77.89-75.8-135.35-153.7-128.34l-77.7 6.99c-77.9 7-135.3 75.82-128.3 153.71l298.9 3323-241.1 21.69c-84 7.56-146 81.8-138.4 165.82l12.6 140.57c6.3 69.83 68 121.34 137.8 115.06l856.2-77.02c69.8-6.28 121.3-67.98 115-137.81" fill="#dbdfff"/>
 </g>
 <g transform="matrix(.055117 -.0038041 -.0038041 -.055117 -795.11 519.53)">
  <path d="m16298 3927.8c-9.6-106.76-103.9-185.53-210.7-175.92l-737.8 66.37c-106.8 9.61-185.6 103.94-175.9 210.71 9.6 106.76 103.9 185.52 210.7 175.92l99.3-8.94c32.8-88.64 108-153.84 200.7-162.18l611.6-55.02c2.9-16.44 3.7-33.52 2.1-50.94" fill="#ffbe94"/>
 </g>
 <g transform="matrix(.054957 -.0037931 -.0037931 -.054957 -795.11 519.53)">
  <path d="m16040 4017.6 1.8-94.52c10.2-54.06 55-94.79 109.8-99.72 37.5-3.37 74.4 10.6 100.3 37.92l10.7 11.31c19 20.08 30.7 45.97 33.2 73.5l4.3 48.11-260.1 23.4" fill="#ffd3b8"/>
 </g>
 <g transform="matrix(.054966 -.0037937 -.0037937 -.054966 -795.11 519.53)">
  <path d="m15460 3414.1 636.4-57.25c96.8-8.71 182.3 62.71 191.1 159.51l3.3 37.13c8.7 96.81-62.7 182.34-159.5 191.05l-636.4 57.24c-96.8 8.71-182.3-62.7-191-159.51l-3.4-37.12c-8.7-96.81 62.7-182.34 159.5-191.05" fill="#ffbe94"/>
 </g>
 <g transform="matrix(.054794 -.0037818 -.0037818 -.054794 -795.11 519.53)">
  <path d="m16066 3644.2-13.5-150.26c-3.5-38.61 19.6-72.25 51.7-75.14l56.3-5.06c38.2-3.44 76.1 15.84 101.3 51.64 34.6 49.09 38.6 118.8 9.7 170.55l-5 8.94c-19.3 34.51-50.7 56.33-85.6 59.47l-50.6 4.56c-32.1 2.88-60.8-26.09-64.3-64.7" fill="#ffd3b8"/>
 </g>
 <g transform="matrix(.054899 -.003789 -.003789 -.054899 -795.11 519.53)">
  <path d="m15515 2997.5 581.4-52.29c96.9-8.72 182.5 62.78 191.2 159.71l3.4 37.17c8.7 96.92-62.8 182.56-159.7 191.28l-581.3 52.3c-97 8.72-182.6-62.79-191.3-159.71l-3.4-37.17c-8.7-96.93 62.8-182.57 159.7-191.29" fill="#ffbe94"/>
 </g>
 <g transform="matrix(.054728 -.0037772 -.0037772 -.054728 -795.11 519.53)">
  <path d="m16065 3235.7-13.5-150.43c-3.5-38.66 19.7-72.35 51.8-75.23l56.4-5.08c38.2-3.44 76.1 15.87 101.4 51.71 34.6 49.16 38.6 118.94 9.7 170.76l-5 8.95c-19.3 34.55-50.8 56.4-85.8 59.54l-50.6 4.56c-32.1 2.89-60.9-26.12-64.4-64.78" fill="#ffd3b8"/>
 </g>
 <g transform="matrix(.054778 -.0037807 -.0037807 -.054778 -795.11 519.53)">
  <path d="m15559 2682.6 589.1-52.99c72.3-6.51 136.3 46.88 142.8 119.26l2.5 27.75c6.5 72.38-46.9 136.33-119.3 142.84l-589 52.99c-72.4 6.51-136.4-46.88-142.9-119.26l-2.5-27.75c-6.5-72.38 46.9-136.33 119.3-142.84" fill="#ffbe94"/>
 </g>
 <g transform="matrix(.054657 -.0037724 -.0037724 -.054657 -795.11 519.53)">
  <path d="m16123 2834.8-8.4-94.15c-2.2-24.2 15.6-45.57 39.7-47.74l42.4-3.82c28.8-2.59 57 9.09 75.6 31.27 25.5 30.42 27.7 74.13 5.4 106.93l-3.9 5.67c-14.9 21.88-38.7 35.93-65 38.29l-38.1 3.43c-24.2 2.17-45.5-15.68-47.7-39.88" fill="#ffd3b8"/>
 </g>
 <g transform="matrix(.057249 -.0039513 -.0039513 -.057249 -795.11 519.53)">
  <path d="m15169 4331.6 709.3-63.82c242.6-21.81 421.5-236.11 399.7-478.64l-60.9-676.97c-16.2-179.56-123-328.87-271.3-407.43-0.2 0.03-0.4 0.1-0.7 0.13-42.2 6.41-84.8 8.07-127.4 11.29-39.8 3.01-78.2 11.81-117.7 16.5-2.5 0.29-5 0.42-7.5 0.45-6.3 8.29-14.2 15.41-23.2 20.79l90.6 1007.8c4.3 47.34-30.6 89.17-78 93.43l-551.3 49.59c-117.8 10.6-204.8 114.76-194.2 232.63 10.6 117.88 114.8 204.84 232.6 194.24" fill="#ffbe94"/>
 </g>
 <g transform="matrix(.053677 -.0037047 -.0037047 -.053677 -795.11 519.53)">
  <path d="m16278 4290 17.2 190.82c4.4 49.03-25 91.76-65.7 95.42l-71.6 6.43c-48.5 4.37-96.5-20.12-128.6-65.59-43.9-62.34-49-150.86-12.3-216.58l6.4-11.35c24.4-43.83 64.3-71.54 108.7-75.53l64.3-5.78c40.7-3.66 77.2 33.13 81.6 82.16" fill="#ffd3b8"/>
 </g>
 <g transform="matrix(.055105 -.0038033 -.0038033 -.055105 -795.11 519.53)">
  <path d="m15488 4196.8 46.7-4.21c30.8-73.7 100.4-128.33 185.5-135.99l574.1-51.64c2.6-8.26 4.7-16.75 6.2-25.41l-611.7 55.03c-92.7 8.34-168 73.55-200.8 162.22" fill="#f09a6f"/>
 </g>
 <g transform="matrix(.055644 -.0038405 -.0038405 -.055644 -795.11 519.53)">
  <path d="m16134 3072.3 35.1-159.98c13-59.33 53.6-108.89 109.2-133.38l21.7-9.58-34.9 0.14c-84.2 0.35-158.2 56.01-181.9 136.84l50.8 165.96" fill="#f09a6f"/>
 </g>
 <g transform="matrix(.05342 -.003687 -.003687 -.05342 -795.11 519.53)">
  <path d="m16300 1730.4-455.9 41.01-159.4-1771.4h459.6l155.7 1730.4" fill="#141829"/>
 </g>
 <g transform="matrix(.056629 -.0039085 -.0039085 -.056629 -795.11 519.53)">
  <path d="m16161 0 139.4 1549.2-923.7 83.09-146.8-1632.3h931.1" fill="#191d33"/>
 </g>
 <g transform="matrix(.9352 0 0 1.0693 1.1378 3.4722)" fill="#f2f3ff" stroke-width="1.413" style="font-feature-settings:normal;font-variant-caps:normal;font-variant-ligatures:no-common-ligatures;font-variant-numeric:normal" aria-label="8100">
  <path d="m34.897 72.55c7.874 0 13.425-4.4185 13.425-10.99 0-4.5884-3.0023-7.7607-7.0243-9.2901v-0.16994c4.022-1.9827 5.6647-5.2115 5.6647-8.3271 0-4.5318-3.6254-9.2902-11.556-9.2902-6.9676 0-12.292 4.0786-12.292 10.083 0 3.2289 1.7561 6.2878 5.6081 8.1572v0.16994c-4.2485 1.8694-6.911 4.985-6.911 9.5734 0 5.1549 4.4751 10.083 13.086 10.083zm0.22659-4.9283c-3.9087 0-6.2878-2.8324-6.1746-5.948 0-3.059 1.9827-5.4381 5.4381-6.4578 4.0786 1.1329 6.8543 3.1722 6.8543 6.911 0 3.1722-2.4358 5.4948-6.1179 5.4948zm-0.056647-28.324c3.7387 0 5.2682 2.6624 5.2682 5.2115 0 2.7757-2.0959 4.815-4.5884 5.5514-3.5121-0.963-6.0046-2.7757-6.0046-5.778 0-2.6624 1.8127-4.985 5.3248-4.985z"/>
  <path d="m63.57 71.927h6.741v-36.821h-5.8347l-8.9503 4.4185 1.1896 5.2682 6.741-3.3988h0.11329z"/>
  <path d="m95.924 34.483c-8.6104 0-13.482 7.704-13.482 19.147 0.05665 11.216 4.5884 18.92 13.086 18.92 8.7803 0 13.425-7.4208 13.425-19.26 0-10.876-4.1352-18.807-13.029-18.807zm-0.16994 5.3248c4.1919 0 6.2312 5.0416 6.2312 13.595 0 8.837-2.1526 13.822-6.2312 13.822-3.852 0-6.3445-4.6451-6.2878-13.595-0.05665-9.2335 2.5491-13.822 6.2878-13.822z"/>
  <path d="m126.24 34.483c-8.6104 0-13.482 7.704-13.482 19.147 0.0567 11.216 4.5884 18.92 13.086 18.92 8.7803 0 13.425-7.4208 13.425-19.26 0-10.876-4.1352-18.807-13.029-18.807zm-0.16995 5.3248c4.1919 0 6.2312 5.0416 6.2312 13.595 0 8.837-2.1526 13.822-6.2312 13.822-3.852 0-6.3445-4.6451-6.2878-13.595-0.0567-9.2335 2.5491-13.822 6.2878-13.822z"/>
 </g>
</svg>
