<svg width="101.84mm" height="339.66mm" version="1.1" viewBox="0 0 101.84 339.66" xmlns="http://www.w3.org/2000/svg">
 <g transform="matrix(.089795 .015504 .015504 -.089795 -1396.6 86.725)">
  <path d="m15803 968.58 496.6 87.401-31.2 177.3-496.6-87.4 31.2-177.3" fill="#e8eafc"/>
 </g>
 <g transform="matrix(.089166 .015396 .015396 -.089166 -1396.6 86.725)">
  <path d="m15908 1481.4 336.4 59.2 55.3-314.36-336.4-59.2-55.3 314.36" fill="#ffbe94"/>
 </g>
 <g transform="matrix(.088309 .015248 .015248 -.088309 -1396.6 86.725)">
  <path d="m15921 1729.1c5.9 7.96 10.3 15.95 13.5 23.93 16.2 40.42 1 80.75-23 116.65 0.9 4.13 1.7 8.32 2.3 12.53 5.3 9.94 9.2 20.58 11.8 31.6 7.3 7.05 14 14.84 20.2 23.27 3.8 5.26 7.1 10.83 10 16.59 17.1 5.23 34.2 10.27 51.7 13.83 11.4 2.03 23 4.06 34.5 6.08 80.2 14.13 156.7 27.58 156.7 27.58s38.1-216.47 65.9-374.77c1-5.48 1.9-10.89 2.9-16.25 5.5-48.56 32.2-87.36 24-136.71-11.3-44.87-49.7-76.21-91.5-82.18-8.1-1.48-16.8-2.12-25.9-1.8-7.7-1.25-15.4-2.71-23.2-4.27-7.9-1.56-15.7-3.21-23.6-4.82-7.8-1.62-15.7-3.19-23.6-4.52-22.8-5.92-46-3.03-68.8 3.68-3.4 5.51-7.2 10.84-11.4 15.99-5 4.72-9.9 9.44-14.9 14.15 1.9 9.2 0.4 19.36-2.8 29.25-20.7 49.31-58.2 98.18-24.7 150.01 2.4 6.81 4.7 13.73 6.7 20.8 0.6 10.2-3.5 19.57-9.9 28.53-19.6 29.33-71.4 50.47-56.9 90.85" fill="#f09a6f"/>
 </g>
 <g transform="matrix(.089067 .015379 .015379 -.089067 -1396.6 86.725)">
  <path d="m15159 3029.7-37 210.28c-32.3 183.4 90.2 358.24 273.6 390.52l444.9 78.29c183.4 32.28 358.2-90.23 390.5-273.63l37-210.28c32.3-183.41-90.2-358.25-273.6-390.53l-444.9-78.29c-183.4-32.28-358.2 90.23-390.5 273.64" fill="#dbdfff"/>
 </g>
 <g transform="matrix(.088935 .015356 .015356 -.088935 -1396.6 86.725)">
  <path d="m16270 3228-36.3 206.25c-30.4 172.8-195.2 288.23-368 257.82l-441.2-77.65c-172.8-30.41-288.2-195.15-257.8-367.95l36.3-206.25c30.4-172.8 195.2-288.23 368-257.82l441.2 77.65c172.8 30.41 288.2 195.15 257.8 367.95" fill="#7aba6f"/>
 </g>
 <g transform="matrix(.088931 .015355 .015355 -.088931 -1396.6 86.725)">
  <path d="m16108 3618.1c-39.1-64.49-83.8-125.53-134.1-181.77-59.9-66.99-120.9-131.32-191-187.81-70.4-56.77-146.9-106.5-224.5-152.77-98.2-58.64-203.7-104.17-303.3-160.22 75.8-110.62 211.6-172.91 352.3-148.15l372.1 65.49c191.9 33.77 320.1 216.7 286.3 408.59l-24.1 137.16c-16 90.98-65.6 167.62-133.7 219.48" fill="#58a84c"/>
 </g>
 <g transform="matrix(.088054 .015204 .015204 -.088054 -1396.6 86.725)">
  <path d="m16176 2924.8 10.4-59.15c6.2-35.35-17.4-69.05-52.7-75.27l-85.8-15.1 246-1398.2c5.8-32.77-16.1-64.02-48.9-69.78l-32.6-5.75c-32.8-5.77-64 16.12-69.8 48.89l-246.1 1398.2-101.4-17.85c-35.4-6.23-69.1 17.39-75.3 52.74l-10.4 59.15c-5.2 29.38 14.4 57.39 43.8 62.56l360.3 63.39c29.3 5.18 57.3-14.45 62.5-43.83" fill="#dbdfff"/>
 </g>
 <g transform="matrix(.087678 .015139 .015139 -.087678 -1396.6 86.725)">
  <path d="m16292 1973.2c7.7-43.77-21.5-85.49-65.3-93.19l-302.4-53.23c-43.8-7.7-85.5 21.53-93.2 65.3-7.7 43.76 21.5 85.48 65.3 93.18l40.7 7.17c22.7-31.93 59.9-49.88 97.8-43.2l250.7 44.12c3-6.27 5.1-13.01 6.4-20.15" fill="#ffbe94"/>
 </g>
 <g transform="matrix(.087535 .015114 .015114 -.087535 -1396.6 86.725)">
  <path d="m16188 1974.7 10.9-37.58c9.9-20.51 32.2-31.95 54.7-28 15.3 2.7 28.6 12.28 35.9 25.99l3.1 5.68c5.4 10.07 7.3 21.68 5.3 32.95l-3.4 19.7-106.5-18.74" fill="#ffd3b8"/>
 </g>
 <g transform="matrix(.087802 .01516 .01516 -.087802 -1396.6 86.725)">
  <path d="m15969 1665.4 270.2 47.55c36.6 6.45 61.1 41.37 54.7 78.01l-4.6 25.59c-6.4 36.63-41.3 61.1-78 54.66l-270.2-47.56c-36.6-6.45-61.1-41.37-54.6-78l4.5-25.6c6.4-36.63 41.4-61.1 78-54.65" fill="#ffbe94"/>
 </g>
 <g transform="matrix(.087678 .015139 .015139 -.087678 -1396.6 86.725)">
  <path d="m16194 1815.8 10.7-61.23c2.8-15.74 15.6-26.63 28.7-24.33l23 4.04c15.5 2.74 28.5 14.48 34.7 31.43 8.5 23.26 2.6 51.41-14.5 68.89l-2.9 3.02c-11.4 11.66-26.2 16.97-40.5 14.46l-20.6-3.63c-13.1-2.3-21.4-16.92-18.6-32.65" fill="#ffd3b8"/>
 </g>
 <g transform="matrix(.088 .015194 .015194 -.088 -1396.6 86.725)">
  <path d="m15992 1498.4 246.9 43.45c36.6 6.44 61 41.28 54.6 77.83l-4.5 25.54c-6.5 36.55-41.3 60.96-77.9 54.53l-246.8-43.45c-36.6-6.43-61-41.28-54.6-77.83l4.5-25.53c6.5-36.55 41.3-60.97 77.8-54.54" fill="#ffbe94"/>
 </g>
 <g transform="matrix(.087874 .015173 .015173 -.087874 -1396.6 86.725)">
  <path d="m16195 1646 10.8-61.1c2.7-15.7 15.5-26.57 28.5-24.27l23 4.03c15.5 2.73 28.4 14.44 34.6 31.36 8.5 23.2 2.6 51.3-14.4 68.74l-3 3.01c-11.3 11.63-26.1 16.92-40.3 14.42l-20.6-3.62c-13-2.29-21.4-16.88-18.6-32.57" fill="#ffd3b8"/>
 </g>
 <g transform="matrix(.08813 .015217 .015217 -.08813 -1396.6 86.725)">
  <path d="m16008 1370.3 246.5 43.38c27.2 4.79 45.4 30.71 40.6 57.91l-3.3 19c-4.8 27.19-30.7 45.36-57.9 40.57l-246.5-43.38c-27.2-4.79-45.4-30.71-40.6-57.9l3.3-19c4.8-27.2 30.8-45.36 57.9-40.58" fill="#ffbe94"/>
 </g>
 <g transform="matrix(.08804 .015201 .015201 -.08804 -1396.6 86.725)">
  <path d="m16222 1486.7 6.7-38.12c1.7-9.79 11-16.34 20.8-14.62l17.1 3.03c11.7 2.05 21.6 9.67 26.6 20.43 6.8 14.74 3 32.25-9.3 42.83l-2.2 1.83c-8.2 7.05-19.1 10.06-29.8 8.18l-15.4-2.71c-9.8-1.72-16.3-11.06-14.5-20.85" fill="#ffd3b8"/>
 </g>
 <g transform="matrix(.089289 .015417 .015417 -.089289 -1396.6 86.725)">
  <path d="m15724 2104.5 296.6 52.19c101.4 17.85 198-49.88 215.9-151.28l49.8-283.03c13.2-75.07-14-147.8-65.8-196.21-0.1-0.01-0.2-0.01-0.3-0.02-17.9-2.05-35.5-6.06-53.2-9.45-16.6-3.16-33.3-3.81-49.9-6.25-1.1-0.16-2.1-0.38-3.1-0.64-3.5 2.68-7.5 4.72-11.8 5.92l-74.1 421.35c-3.5 19.79-22.4 33.01-42.2 29.53l-230.5-40.57c-49.3-8.67-96.2 24.25-104.9 73.53s24.2 96.26 73.5 104.93" fill="#ffbe94"/>
 </g>
 <g transform="matrix(.086551 .014944 .014944 -.086551 -1396.6 86.725)">
  <path d="m16296 2051.5-13.6 77.17c-3.5 19.83-19.6 33.56-36.1 30.66l-28.9-5.09c-19.6-3.46-36-18.25-43.8-39.62-10.7-29.3-3.2-64.79 18.3-86.82l3.7-3.8c14.3-14.69 33-21.38 50.9-18.22l26 4.57c16.5 2.9 27 21.32 23.5 41.15" fill="#ffd3b8"/>
 </g>
 <g transform="matrix(.087602 .015126 .015126 -.087602 -1396.6 86.725)">
  <path d="m15951 1994.2 19.2 3.37c20.3-26.18 54.1-40.53 89-34.38l235.5 41.44c1.9-3.02 3.7-6.2 5.2-9.51l-250.9-44.15c-38-6.7-75.2 11.28-98 43.23" fill="#f09a6f"/>
 </g>
 <g transform="matrix(.088634 .015304 .015304 -.088634 -1396.6 86.725)">
  <path d="m16201 1623.8 31.4-60.15c11.6-22.3 33.1-37.73 58-41.52l9.7-1.48-14-3.7c-33.7-8.96-69.2 5.29-87.4 35.04l2.3 71.81" fill="#f09a6f"/>
 </g>
 <g transform="matrix(.088833 .015338 .015338 -.088833 -1396.6 86.725)">
  <path d="m16123 1005.2-178.8-31.46 171.4-973.73h184.3l-176.9 1005.2" fill="#141829"/>
 </g>
 <g transform="matrix(.089966 .015534 .015534 -.089966 -1396.6 86.725)">
  <path d="m16470 32.272-169.7 1021.5-1 5.43-379.1-66.722 174.7-992.53 375.1 32.272" fill="#191d33"/>
 </g>
 <g transform="scale(.89875 1.1127)" fill="#f2f3ff" stroke-width=".99895" style="font-feature-settings:normal;font-variant-caps:normal;font-variant-ligatures:no-common-ligatures;font-variant-numeric:normal" aria-label="8000">
  <path d="m24.458 49.579c5.5667 0 9.4914-3.1237 9.4914-7.7693 0-3.2439-2.1225-5.4866-4.966-6.5679v-0.12014c2.8434-1.4017 4.0048-3.6844 4.0048-5.8871 0-3.2038-2.5631-6.5679-8.1698-6.5679-4.9259 0-8.6904 2.8835-8.6904 7.1286 0 2.2827 1.2415 4.4453 3.9648 5.7669v0.12014c-3.0036 1.3216-4.8859 3.5242-4.8859 6.7681 0 3.6444 3.1638 7.1286 9.2511 7.1286zm0.16019-3.4842c-2.7633 0-4.4453-2.0024-4.3652-4.205 0-2.1626 1.4017-3.8446 3.8446-4.5655 2.8835 0.80096 4.8458 2.2427 4.8458 4.8859 0 2.2427-1.7221 3.8847-4.3252 3.8847zm-0.04005-20.024c2.6432 0 3.7245 1.8823 3.7245 3.6844 0 1.9624-1.4818 3.4041-3.2439 3.9247-2.483-0.68082-4.2451-1.9624-4.2451-4.0849 0-1.8823 1.2815-3.5242 3.7645-3.5242z"/>
  <path d="m46.17 22.667c-6.0873 0-9.5314 5.4465-9.5314 13.536 0.04005 7.9295 3.2439 13.376 9.2511 13.376 6.2074 0 9.4914-5.2463 9.4914-13.616 0-7.6892-2.9235-13.296-9.2111-13.296zm-0.12014 3.7645c2.9636 0 4.4053 3.5643 4.4053 9.6115 0 6.2475-1.5218 9.7717-4.4053 9.7717-2.7233 0-4.4854-3.2839-4.4453-9.6115-0.04005-6.5278 1.8022-9.7717 4.4453-9.7717z"/>
  <path d="m67.602 22.667c-6.0873 0-9.5314 5.4465-9.5314 13.536 0.04005 7.9295 3.2439 13.376 9.2511 13.376 6.2074 0 9.4914-5.2463 9.4914-13.616 0-7.6892-2.9235-13.296-9.2111-13.296zm-0.12014 3.7645c2.9636 0 4.4053 3.5643 4.4053 9.6115 0 6.2475-1.5218 9.7717-4.4053 9.7717-2.7233 0-4.4854-3.2839-4.4453-9.6115-0.04005-6.5278 1.8022-9.7717 4.4453-9.7717z"/>
  <path d="m89.034 22.667c-6.0873 0-9.5314 5.4465-9.5314 13.536 0.04005 7.9295 3.2439 13.376 9.2511 13.376 6.2074 0 9.4914-5.2463 9.4914-13.616 0-7.6892-2.9235-13.296-9.2111-13.296zm-0.12014 3.7645c2.9636 0 4.4053 3.5643 4.4053 9.6115 0 6.2475-1.5218 9.7717-4.4053 9.7717-2.7233 0-4.4854-3.2839-4.4453-9.6115-0.04005-6.5278 1.8022-9.7717 4.4453-9.7717z"/>
 </g>
</svg>
