<svg width="117.39mm" height="379.82mm" version="1.1" viewBox="0 0 117.39 379.82" xmlns="http://www.w3.org/2000/svg">
 <g transform="translate(-2.3847,-2.3228)">
  <path d="m77.864 287.3-52.987 0.0463-0.01731-18.918 52.99-0.0468 0.01465 18.919" fill="#e8eafc"/>
  <path d="m69.359 235.18-35.642 0.0312 0.0289 33.308 35.642-0.0312-0.0289-33.308" fill="#ffbe94"/>
  <path d="m79.536 208.89c-0.73561-0.70515-1.33-1.4383-1.7987-2.1936-2.3763-3.8219-1.5577-8.1994 0.24266-12.286-0.17124-0.40285-0.32486-0.81519-0.46287-1.2328-0.71813-0.9163-1.3045-1.929-1.7694-3.0033-0.86891-0.58646-1.695-1.2575-2.474-2.0049-0.48596-0.46586-0.92132-0.97272-1.3175-1.5076-1.8307-0.22493-3.666-0.42973-5.5145-0.4763-1.1975-8.3e-4 -2.4085 1.8e-4 -3.6112 8.3e-4 -8.4242 8e-3 -16.446 0.0148-16.446 0.0148s0.02196 22.715 0.03557 39.325c7.04e-4 0.57566 2.4e-5 1.1436-0.0016 1.7064 0.31505 5.0405-1.7027 9.4698 0.01471 14.345 1.9649 4.3611 6.4388 6.8589 10.797 6.7148 0.85332 5e-3 1.7422-0.0854 2.6644-0.28202 0.80625-0.0118 1.6244-3e-3 2.4443 0.0152 0.82257 0.0179 1.6522 0.0444 2.4812 0.0674 0.83164 0.0223 1.6625 0.0403 2.4836 0.0347 2.4263 0.19252 4.7378-0.52061 6.9402-1.6135 0.2503-0.6224 0.5385-1.2334 0.87015-1.8327 0.41978-0.56934 0.83687-1.1382 1.2567-1.7073-0.35155-0.90285-0.38111-1.9647-0.23703-3.0275 1.2198-5.3907 4.1537-11.04-0.18939-15.71-0.36183-0.65132-0.72289-1.3138-1.0519-1.9978-0.24397-1.0266 3.03e-4 -2.0535 0.48741-3.0801 1.4677-3.3379 6.3631-6.422 4.1559-10.27" fill="#f09a6f"/>
 </g>
 <g transform="matrix(.029881 -.0053349 -.0053349 -.029881 -309.85 438.61)">
  <path d="m12266 10617 110.2 620.5c116.8 657.6 744.7 1096 1402.3 979.2l1425.8-253.3c657.6-116.8 1096-744.6 979.2-1402.2l-110.2-620.48c-116.9-657.62-744.7-1096-1402.3-979.21l-1425.8 253.27c-657.6 116.83-1096 744.63-979.2 1402.2" fill="#dbdfff"/>
 </g>
 <g transform="matrix(.02973 -.0053079 -.0053079 -.02973 -309.85 438.61)">
  <path d="m12404 10662 109.2 614.7c110.5 621.8 704.1 1036.4 1326 925.9l1424.1-252.9c621.8-110.5 1036.4-704.2 925.9-1326l-109.2-614.7c-110.4-621.83-704.1-1036.4-1325.9-925.92l-1424.1 252.97c-621.9 110.47-1036.5 704.15-926 1326" fill="#7aba6f"/>
 </g>
 <g transform="matrix(.029567 -.0052788 -.0052788 -.029567 -309.85 438.61)">
  <path d="m16070 11499c-204-163.5-421.8-309.2-652.4-432.4-274.7-146.9-549.7-283.8-844.9-384.4-296.6-101.1-604.7-172.1-912.2-230.5-389.6-74.1-786.8-97.1-1177.8-161.1 115.3-450.16 483.5-814.34 970.8-900.9l1289.1-228.99c664.7-118.08 1299.3 325.07 1417.4 989.79l84.4 475.2c56 315.1-14.3 623.5-174.4 873.3" fill="#58a84c"/>
 </g>
 <g transform="matrix(.027108 -.0048397 -.0048397 -.027108 -309.85 438.61)">
  <path d="m14524 10234-8-45.5c-30-168.7 82.5-329.83 251.3-359.8l254.9-45.29-968.6-5452.8 566.2-100.59 968.6 5452.8 313.5-55.67c168.7-29.98 329.9 82.52 359.8 251.28l8.1 45.48c30.3 170.49-83.4 333.29-253.9 363.59l-1128.3 200.4c-170.5 30.3-333.3-83.4-363.6-253.9" fill="#dbdfff"/>
 </g>
 <path d="m72.243 165.59-31.465 0.0277c-10.758 9e-3 -19.471 8.738-19.462 19.496l0.02557 30.029c0.0067 7.965 4.1265 14.954 10.34 18.992 0.01097 8e-5 0.02174-2e-3 0.02977-3e-3 1.8855-0.11674 3.7645-0.0229 5.6506 3e-3 1.7644 0.0235 3.4905-0.21321 5.2471-0.26444 0.11249-4e-3 0.22086 7.9e-4 0.32996 9e-3 0.31178-0.33982 0.68623-0.62216 1.1054-0.82391l-0.03859-44.704c-0.0025-2.0999 1.6991-3.8035 3.7983-3.8053l24.454-0.0212c5.23-5e-3 9.4634-4.2468 9.4596-9.4755-0.0038-5.229-4.2471-9.4636-9.4744-9.4593" fill="#ffbe94"/>
 <path d="m82.624 179.46-1.9943 2e-3c-1.5849 3.006-4.7362 5.0573-8.3718 5.0605l-24.511 0.0216c-0.14082 0.33938-0.26005 0.69146-0.3583 1.0528l26.117-0.0227c3.9584-3e-3 7.3921-2.482 9.119-6.114" fill="#f09a6f"/>
 <g transform="matrix(.02679 -.0047829 -.0047829 -.02679 -309.85 438.61)">
  <path d="m14533 6769.2c-29.3-164.96 80.7-322.44 245.7-351.74l1140.1-202.52c164.9-29.31 322.4 80.66 351.7 245.63 29.3 164.96-80.7 322.44-245.6 351.74l-153.5 27.26c-85.9-120.23-226.1-187.71-369.3-162.27l-944.9 167.86c-11.1-23.63-19.4-49.04-24.2-75.96" fill="#ffbe94"/>
 </g>
 <path d="m60.328 185.59-0.4333 3.9859c-0.63363 2.2457-2.6796 3.7973-5.0132 3.7993-1.5971 2e-3 -3.104-0.72786-4.0944-1.9791l-0.4098-0.51832c-0.72696-0.91941-1.1232-2.0573-1.1229-3.2296l-0.0043-2.0482 11.078-0.01" fill="#ffd3b8"/>
 <path d="m82.431 213.23-27.104 0.0238c-4.1212 3e-3 -7.4679-3.3355-7.4701-7.4586l-9.04e-4 -1.5812c-5e-3 -4.1228 3.3348-7.4677 7.4586-7.4715l27.102-0.0236c4.1212-3e-3 7.4679 3.3356 7.4701 7.4586l0.0036 1.581c0.0022 4.123-3.3374 7.4682-7.4586 7.4715" fill="#ffbe94"/>
 <path d="m59.817 201.9 5e-3 6.3793c3e-3 1.6391-1.1004 2.9691-2.4603 2.9705l-2.3916 2e-3c-1.622 1e-3 -3.1441-0.95246-4.073-2.555-1.2725-2.1979-1.1785-5.1482 0.2339-7.2198l0.2424-0.35753c0.94246-1.3813 2.3471-2.1825 3.8285-2.1835l2.1488-2e-3c1.3599-1e-3 2.466 1.3265 2.4663 2.9661" fill="#ffd3b8"/>
 <path d="m66.927 178.84-7e-3 -7.9357c-0.0027-2.0394 1.3683-3.694 3.0592-3.6952l2.9764-3e-3c2.0191-2e-3 3.9111 1.1846 5.0672 3.1785 1.5834 2.7341 1.4662 6.4045-0.28911 8.9812l-0.30399 0.44521c-1.1692 1.7181-2.917 2.7146-4.7624 2.7164l-2.673 2e-3c-1.6936 2e-3 -3.0673-1.6501-3.0673-3.69" fill="#ffd3b8"/>
 <path d="m79.334 230.85-24.727 0.0216c-4.1212 3e-3 -7.4679-3.3358-7.4701-7.4588l-9.04e-4 -1.5812c-0.0049-4.1225 3.3348-7.4677 7.4586-7.4715l24.727-0.0214c4.1212-3e-3 7.4679 3.3358 7.4701 7.4586l8.93e-4 1.5812c0.0049 4.1225-3.3347 7.4677-7.4586 7.4715" fill="#ffbe94"/>
 <path d="m59.096 219.34 0.0077 6.3788c3.14e-4 1.6398-1.1004 2.9694-2.4603 2.9705l-2.3942 3e-3c-1.622 1e-3 -3.1415-0.95319-4.0704-2.5555-1.2752-2.1977-1.1812-5.1479 0.23123-7.2193l0.2424-0.35751c0.94241-1.3816 2.3471-2.1828 3.8312-2.184l2.1488-2e-3c1.3599-1e-3 2.4633 1.3267 2.4635 2.9663" fill="#ffd3b8"/>
 <path d="m77.719 244.35-25.003 0.0218c-3.0702 2e-3 -5.5642-2.4852-5.5664-5.5571l-6.83e-4 -1.1782c-0.0022-3.0719 2.4855-5.5642 5.5557-5.5667l25.003-0.0218c3.0729-3e-3 5.5642 2.4852 5.5663 5.5571l6.88e-4 1.1782c0.0049 3.0714-2.4828 5.5637-5.5557 5.5666" fill="#ffbe94"/>
 <path d="m56.029 236.22 0.0029 3.9874c8.24e-4 1.0245-0.82736 1.856-1.848 1.8567l-1.7985 2e-3c-1.2192 1e-3 -2.3603-0.59526-3.0578-1.5969-0.95702-1.3735-0.88619-3.2175 0.17381-4.5122l0.18353-0.22368c0.7066-0.86345 1.7621-1.3644 2.8765-1.3653l1.6137-1e-3c1.0233-1e-3 1.8529 0.82874 1.8538 1.8535" fill="#ffd3b8"/>
 <path d="m44.418 222.79-2.1101 6.7089c-0.78345 2.4882-2.706 4.4531-5.1776 5.2892l-0.96518 0.32682 1.4931 0.12656c3.6026 0.30641 6.9799-1.7927 8.299-5.1595l-1.5391-7.292" fill="#f09a6f"/>
 <path d="m78.759 369.22-0.07484-84.25-18.871 0.0162 0.07745 87.602 18.868-3.3686" fill="#141829"/>
 <path d="m59.814 284.99-40.527 0.0352 0.08269 94.802 40.522-7.2346-0.07745-87.602" fill="#191d33"/>
 <g transform="scale(.89875 1.1127)" fill="#f2f3ff" stroke-width="1.1713" style="font-feature-settings:normal;font-variant-caps:normal;font-variant-ligatures:no-common-ligatures;font-variant-numeric:normal" aria-label="8700">
  <path d="m27.469 57.398c6.527 0 11.129-3.6627 11.129-9.1097 0-3.8035-2.4887-6.4331-5.8227-7.701v-0.14087c3.334-1.6435 4.6957-4.3201 4.6957-6.9027 0-3.7566-3.0053-7.701-9.5793-7.701-5.7757 0-10.19 3.3809-10.19 8.3584 0 2.6766 1.4557 5.2122 4.6488 6.7618v0.14087c-3.5218 1.5496-5.7288 4.1322-5.7288 7.9358 0 4.2731 3.7096 8.3584 10.847 8.3584zm0.18783-4.0853c-3.24 0-5.2122-2.3479-5.1183-4.9305 0-2.5357 1.6435-4.5079 4.5079-5.3531 3.3809 0.93914 5.6818 2.6296 5.6818 5.7288 0 2.6296-2.0192 4.5548-5.0714 4.5548zm-0.04696-23.479c3.0992 0 4.367 2.207 4.367 4.3201 0 2.3009-1.7374 3.9914-3.8035 4.6018-2.9113-0.79827-4.9775-2.3009-4.9775-4.7896 0-2.207 1.5026-4.1322 4.414-4.1322z"/>
  <path d="m42.644 26.359v4.7896h14.369v0.09391l-12.866 25.639h6.1044l12.913-26.813v-3.7096z"/>
  <path d="m78.057 25.843c-7.1375 0-11.176 6.3862-11.176 15.872 0.04696 9.2975 3.8035 15.684 10.847 15.684 7.2784 0 11.129-6.1514 11.129-15.965 0-9.0158-3.4279-15.59-10.8-15.59zm-0.14087 4.414c3.4748 0 5.1653 4.1792 5.1653 11.27 0 7.3253-1.7844 11.458-5.1653 11.458-3.1931 0-5.2592-3.8505-5.2122-11.27-0.04696-7.654 2.1131-11.458 5.2122-11.458z"/>
  <path d="m103.19 25.843c-7.1375 0-11.176 6.3862-11.176 15.872 0.04696 9.2975 3.8035 15.684 10.847 15.684 7.2784 0 11.129-6.1514 11.129-15.965 0-9.0158-3.4279-15.59-10.8-15.59zm-0.14087 4.414c3.4748 0 5.1653 4.1792 5.1653 11.27 0 7.3253-1.7844 11.458-5.1653 11.458-3.1931 0-5.2592-3.8505-5.2122-11.27-0.04696-7.654 2.1131-11.458 5.2122-11.458z"/>
 </g>
</svg>
