<svg width="127.02mm" height="455.55mm" version="1.1" viewBox="0 0 127.02 455.55" xmlns="http://www.w3.org/2000/svg">
 <path d="m73.099 220.08-33.959-0.86953-0.97086 31.374 33.959 0.8695 0.97061-31.374" fill="#ffbe94"/>
 <path d="m83.588 195.57c-0.67942-0.68292-1.2233-1.3886-1.6478-2.1116-2.149-3.66-1.2396-7.7631 0.59931-11.565-0.15211-0.38562-0.28492-0.77755-0.40563-1.1744-0.65491-0.8799-1.1825-1.8486-1.5949-2.8731-0.81001-0.57297-1.5776-1.2259-2.297-1.9498-0.44827-0.45107-0.84849-0.93966-1.2108-1.4536-1.7353-0.25984-3.4782-0.49771-5.2381-0.58873-1.1406-0.0295-2.2952-0.0613-3.4414-0.0897-8.0254-0.20583-15.668-0.40144-15.668-0.40144s-0.66192 21.398-1.1462 37.043c-0.01734 0.54234-0.03439 1.0769-0.05256 1.6071 0.14964 4.7556-1.9068 8.8771-0.41505 13.512 1.7398 4.1576 5.9283 6.6232 10.085 6.5974 0.81307 0.0257 1.6631-0.0365 2.5481-0.19877 0.7686 9e-3 1.5459 0.0383 2.329 0.0758 0.78286 0.0377 1.5714 0.0838 2.3619 0.12626 0.79043 0.0424 1.582 0.08 2.3649 0.0954 2.3055 0.24254 4.5283-0.37072 6.6594-1.3448 0.25709-0.57996 0.55181-1.1483 0.88525-1.7047 0.41611-0.52528 0.83216-1.0508 1.2483-1.5761-0.30727-0.85958-0.30419-1.8602-0.13493-2.8578 1.3238-5.0468 4.2889-10.294 0.29015-14.802-0.32549-0.62231-0.64982-1.2558-0.94119-1.9084-0.20352-0.97303 0.06-1.9341 0.55659-2.8892 1.4976-3.107 6.2549-5.8885 4.2666-9.5685" fill="#f09a6f"/>
 <g transform="matrix(.027018 -.0052519 -.0052519 -.027018 37.017 455.56)">
  <path d="m2000.5 14558 144.79 638.8c153.46 677 833.58 1102.9 1519.1 951.3l1486.2-328.5c685.51-151.6 1116.8-823.3 963.35-1500.3l-144.78-638.7c-153.47-677-833.59-1102.9-1519.1-951.4l-1486.2 328.6c-685.51 151.6-1116.8 823.3-963.35 1500.2" fill="#dbdfff"/>
 </g>
 <g transform="matrix(.026874 -.0052238 -.0052238 -.026874 37.017 455.56)">
  <path d="m2090.8 14624 143.48 633c145.16 640.3 788.46 1043.2 1436.9 899.8l1484.9-328.2c648.4-143.4 1056.4-778.7 911.2-1419l-143.48-633c-145.15-640.3-788.45-1043.2-1436.8-899.9l-1484.9 328.3c-648.39 143.4-1056.4 778.7-911.2 1419" fill="#7aba6f"/>
 </g>
 <g transform="matrix(.025162 -.004891 -.004891 -.025162 37.017 455.56)">
  <path d="m6287.1 16300c-235.83-170.2-486.15-320.1-749.73-444.7-313.98-148.4-627.81-285.9-962.28-382.4-336.17-96.9-683.66-160-1029.8-209.4-438.6-62.6-883.16-68.5-1322.8-119.9 106.38-501.9 499.32-921.4 1039-1040.8l1427.7-315.6c736.21-162.8 1466.6 294.7 1631.5 1021.8l117.81 519.7c78.14 344.7 15 688.1-151.38 971.3" fill="#58a84c"/>
 </g>
 <g transform="translate(-23.752,-2.4209)">
  <path d="m69.998 87.961-0.03756 1.1965c-0.13729 4.4476 3.3966 8.1432 7.8935 8.2584l6.7938 0.17356-4.4442 143.65 15.089 0.38624 4.4446-143.65 8.352 0.21155c4.4969 0.11516 8.2546-3.3934 8.3916-7.841l0.0373-1.1964c0.13925-4.4916-3.4317-8.2287-7.9755-8.345l-30.066-0.77048c-4.5438-0.1163-8.3396 3.4305-8.4781 7.9245" fill="#dbdfff"/>
  <path d="m103.89 159.27-29.979-0.76699c-10.251-0.26281-18.814 7.7398-19.128 17.873l-0.87496 28.285c-0.23236 7.5026 3.4818 14.19 9.282 18.151 0.0098 1.4e-4 0.0194-2e-3 0.02922-3e-3 1.7996-0.0623 3.5875 0.0736 5.3836 0.14503 1.6809 0.0667 3.3324-0.11263 5.0069-0.11675 0.10604-3.4e-4 0.21066 7e-3 0.31416 0.0169 0.30764-0.31199 0.67266-0.56873 1.0766-0.74773l1.3029-42.11c0.06127-1.9776 1.7325-3.5403 3.7334-3.4885l23.301 0.59646c4.9818 0.12854 9.1442-3.7611 9.2966-8.6858 0.15245-4.9247-3.7627-9.0203-8.7448-9.1488" fill="#ffbe94"/>
  <path d="m113.36 172.59-1.9-0.0484c-1.5996 2.7918-4.6647 4.6434-8.1271 4.5552l-23.354-0.59636c-0.14627 0.31548-0.27017 0.64453-0.37338 0.9824l24.885 0.63711c3.7712 0.0947 7.117-2.1523 8.8698-5.53" fill="#f09a6f"/>
  <path d="m79.274 179.5c-0.13252 4.2955 3.2812 7.8658 7.6254 7.9773l30.024 0.76847c4.3442 0.11152 7.9737-3.2799 8.1065-7.5754 0.13301-4.293-3.281-7.8658-7.6254-7.9773l-4.0413-0.10375c-1.7528 3.3777-5.0986 5.6247-8.8698 5.53l-24.885-0.63711c-0.19589 0.64035-0.31229 1.3165-0.33384 2.0178l-1.85e-4 3e-5" fill="#ffbe94"/>
  <path d="m91.936 177.8-0.53288 3.7429c-0.67028 2.0986-2.6675 3.5094-4.8904 3.452l-1.9e-4 4e-5c-1.5199-0.0377-2.935-0.76218-3.8408-1.9675l-0.37499-0.49862c-0.665-0.88308-1.0082-1.9645-0.97462-3.0705l0.06002-1.9287 10.554 0.27048" fill="#ffd3b8"/>
  <path d="m112.17 204.4-25.823-0.66129c-3.9282-0.10063-7.0153-3.3302-6.8951-7.213l0.04581-1.4902c0.12042-3.8831 3.402-6.9506 7.3301-6.8504l25.824 0.66227c3.9284 0.10009 7.0154 3.3305 6.8952 7.2138l-0.046 1.4895c-0.12037 3.8834-3.4021 6.9501-7.3303 6.8495" fill="#ffbe94"/>
  <path d="m90.96 193.16-0.1856 6.0094c-0.04783 1.5444-1.1373 2.7693-2.4334 2.7363l-2.2798-0.0584c-1.5452-0.0397-2.9652-0.97673-3.8024-2.5096-1.1483-2.1026-0.96977-4.8796 0.43738-6.7933l0.24281-0.33168c0.93818-1.2767 2.3001-1.9977 3.7138-1.9598l2.0471 0.0506c1.2962 0.0351 2.3079 1.3121 2.2601 2.8566" fill="#ffd3b8"/>
  <path d="m98.426 171.61 0.23162-7.4748c0.05875-1.9233 1.4144-3.4452 3.0266-3.4049l2.8359 0.0715c1.923 0.0517 3.689 1.2154 4.7306 3.1221 1.4285 2.6158 1.2061 6.0702-0.5438 8.453l-0.30222 0.41242c-1.1673 1.5878-2.862 2.4836-4.6202 2.4384l-2.547-0.0662c-1.6119-0.0403-2.8706-1.6307-2.8114-3.5516" fill="#ffd3b8"/>
  <path d="m108.69 220.92-23.56-0.60326c-3.9282-0.10063-7.0153-3.3302-6.8952-7.2138l0.04624-1.4893c0.12008-3.8835 3.4019-6.95 7.3301-6.8494l23.56 0.60324c3.9282 0.10063 7.0152 3.33 6.8952 7.2136l-0.0462 1.4896c-0.12013 3.8833-3.4019 6.95-7.3301 6.8494" fill="#ffbe94"/>
  <path d="m89.752 209.57-0.18595 6.0089c-0.04762 1.5442-1.1371 2.769-2.4332 2.736l-2.2798-0.0584c-1.5452-0.0397-2.9652-0.97672-3.8024-2.5096-1.1483-2.1021-0.96967-4.8791 0.43718-6.7943l0.24296-0.33093c0.93809-1.2772 2.3004-1.9964 3.7137-1.9602l2.0474 0.0523c1.2959 0.0334 2.3079 1.3121 2.26 2.8563" fill="#ffd3b8"/>
  <path d="m106.74 233.59-23.822-0.60984c-2.927-0.0751-5.2272-2.4815-5.1377-5.3749l0.03442-1.1098c0.08951-2.8937 2.5348-5.1784 5.4615-5.1035l23.822 0.61005c2.9268 0.0749 5.227 2.4813 5.1374 5.3748l-0.0342 1.1097c-0.0896 2.8935-2.5348 5.1784-5.4618 5.1036" fill="#ffbe94"/>
  <path d="m86.322 225.39-0.11598 3.7556c-0.02999 0.96512-0.84342 1.7273-1.817 1.7026l-1.7128-0.0438c-1.1609-0.0299-2.2308-0.62022-2.8659-1.5811-0.87047-1.3178-0.74701-3.0532 0.30203-4.2462l0.18115-0.20589c0.69979-0.79571 1.7202-1.2406 2.7819-1.2135l1.5379 0.0394c0.97362 0.025 1.7386 0.82763 1.7086 1.793" fill="#ffd3b8"/>
  <path d="m75.663 212.44-2.2124 6.2662c-0.8205 2.3238-2.7119 4.1262-5.091 4.8513l-0.9303 0.28361 1.4181 0.15698c3.4247 0.37919 6.7044-1.5126 8.0637-4.6508l-1.2481-6.9073" fill="#f09a6f"/>
 </g>
 <g transform="translate(-23.752,-2.4209)">
  <path d="m100.03 271.51-50.13-5.888 2.2107-17.702 50.129 5.888-2.2105 17.702" fill="#e8eafc"/>
  <path d="m80.291 454.19 22.768-182.32-17.853-2.097-23.48 188.02 18.566-3.6088" fill="#141829"/>
  <path d="m61.726 457.8 23.48-188.02-38.342-4.5035-23.111 183.89 37.086 8.8088 0.8875-0.17252" fill="#191d33"/>
 </g>
 <g transform="matrix(.89833 .027241 -.033725 1.1122 0 0)" fill="#f2f3ff" stroke-width="1.0766" style="font-feature-settings:normal;font-variant-caps:normal;font-variant-ligatures:no-common-ligatures;font-variant-numeric:normal" aria-label="8500">
  <path d="m45.485 52.916c5.9994 0 10.229-3.3666 10.229-8.3732 0-3.496-2.2875-5.913-5.352-7.0784v-0.12948c3.0644-1.5106 4.3161-3.9708 4.3161-6.3447 0-3.4529-2.7623-7.0784-8.8048-7.0784-5.3088 0-9.3659 3.1076-9.3659 7.6826 0 2.4602 1.338 4.7909 4.2729 6.2152v0.12948c-3.2371 1.4243-5.2656 3.7982-5.2656 7.2942 0 3.9276 3.4097 7.6826 9.9702 7.6826zm0.17264-3.755c-2.9781 0-4.7909-2.158-4.7045-4.5319 0-2.3307 1.5106-4.1434 4.1435-4.9203 3.1076 0.86322 5.2225 2.417 5.2225 5.2656 0 2.417-1.8559 4.1866-4.6614 4.1866zm-0.04316-21.58c2.8486 0 4.014 2.0286 4.014 3.9708 0 2.1149-1.597 3.6687-3.496 4.2298-2.676-0.73374-4.5751-2.1149-4.5751-4.4024 0-2.0286 1.3812-3.7982 4.0571-3.7982z"/>
  <path d="m76.826 24.387h-14.502l-1.8559 14.157c1.1222-0.17264 2.2875-0.25896 3.8413-0.25896 5.6109 0 7.9848 2.1149 7.9848 5.3088 0 3.3666-2.9781 5.1362-6.0857 5.1362-2.5465 0-4.9635-0.82006-6.172-1.4675l-1.079 4.014c1.4675 0.82006 4.1866 1.6401 7.4237 1.6401 6.9058 0 11.351-4.3593 11.351-9.7112 0-3.4097-1.5538-5.7836-3.6687-7.1216-1.8991-1.2517-4.3593-1.8128-6.8194-1.8128-0.82006 0-1.3812 0.04316-2.0286 0.12948l0.82006-5.6109h10.79z"/>
  <path d="m91.983 23.912c-6.5605 0-10.272 5.8699-10.272 14.588 0.04316 8.5459 3.496 14.416 9.9702 14.416 6.6899 0 10.229-5.6541 10.229-14.675 0-8.2869-3.1508-14.329-9.927-14.329zm-0.12948 4.0571c3.1939 0 4.7477 3.8413 4.7477 10.359 0 6.7331-1.6401 10.531-4.7477 10.531-2.9349 0-4.834-3.5392-4.7909-10.359-0.04316-7.0352 1.9422-10.531 4.7909-10.531z"/>
  <path d="m115.08 23.912c-6.5605 0-10.272 5.8699-10.272 14.588 0.0432 8.5459 3.496 14.416 9.9702 14.416 6.69 0 10.229-5.6541 10.229-14.675 0-8.2869-3.1508-14.329-9.927-14.329zm-0.12949 4.0571c3.1939 0 4.7477 3.8413 4.7477 10.359 0 6.7331-1.6401 10.531-4.7477 10.531-2.9349 0-4.834-3.5392-4.7909-10.359-0.0432-7.0352 1.9422-10.531 4.7909-10.531z"/>
 </g>
</svg>
