<svg width="91.371mm" height="340.5mm" version="1.1" viewBox="0 0 91.371 340.5" xmlns="http://www.w3.org/2000/svg">
 <g transform="matrix(.0583 .017468 .017468 -.0583 -890.47 -12.109)">
  <path d="m15654 717.91 646.1 200.08-71.4 230.66-646.1-200.07 71.4-230.67" fill="#e8eafc"/>
 </g>
 <g transform="matrix(.057658 .017275 .017275 -.057658 -890.47 -12.109)">
  <path d="m15733 1400.8 439.4 136.08 127.2-410.63-439.4-136.08-127.2 410.63" fill="#ffbe94"/>
 </g>
 <g transform="matrix(.056749 .017003 .017003 -.056749 -890.47 -12.109)">
  <path d="m15756 1712.9c6.4 11.69 11 23.18 14 34.46 14.8 57.1-12.4 108.74-50.9 152.9 0.6 5.72 0.9 11.47 1 17.25 5.5 14.26 8.8 29.22 10.5 44.48 8.6 10.73 16.4 22.35 23.2 34.73 4.3 7.73 7.7 15.77 10.6 24.01 22.1 9.93 44.2 19.64 67.2 27.41 15 4.67 30.2 9.37 45.3 14.04 105.5 32.67 205.9 63.79 205.9 63.79s88.1-284.53 152.6-492.59c2.2-7.21 4.4-14.32 6.6-21.36 15.7-64.34 58.2-111.96 55.6-179.69-7.6-62.25-53.9-110.94-109-126.09-10.7-3.37-22.2-5.71-34.5-6.83-10.1-2.99-20.3-6.28-30.6-9.7-10.2-3.42-20.5-6.98-30.8-10.5-10.3-3.51-20.6-6.97-30.9-10.09-29.7-11.85-61.4-11.91-93.2-6.79-5.5 6.82-11.6 13.34-18 19.56-7.5 5.5-14.9 10.99-22.4 16.49 0.9 12.68-2.9 26.08-8.8 38.83-36.3 62.76-95 122.09-58.8 197.47 2 9.56 4 19.27 5.4 29.1-0.9 13.81-7.9 25.72-18.1 36.68-31.3 36.09-104.6 55.67-91.9 112.44" fill="#f09a6f"/>
 </g>
 <g transform="matrix(.0565 .016928 .016928 -.0565 -890.47 -12.109)">
  <path d="m14752 3376.5-103.4 333.71c-71 229.37 57.4 472.89 286.7 543.92l646.1 200.09c229.4 71.03 472.9-57.33 543.9-286.7l103.4-333.7c71-229.37-57.4-472.9-286.7-543.93l-646.1-200.08c-229.4-71.03-472.9 57.32-543.9 286.69" fill="#dbdfff"/>
 </g>
 <g transform="matrix(.05638 .016892 .016892 -.05638 -890.47 -12.109)">
  <path d="m16233 3837.4-100.8 325.45c-66.9 216.25-296.5 337.27-512.8 270.29l-638.5-197.72c-216.2-66.97-337.2-296.57-270.2-512.82l100.7-325.45c67-216.25 296.6-337.27 512.9-270.3l638.4 197.73c216.3 66.97 337.3 296.57 270.3 512.82" fill="#7aba6f"/>
 </g>
 <g transform="matrix(.056356 .016885 .016885 -.056356 -890.47 -12.109)">
  <path d="m15944 4368.1c-42.2-94.69-92.5-185.62-151.4-270.99-70.1-101.69-142.2-199.94-227.9-289.05-86.2-89.57-181.9-170.58-279.7-247.08-123.8-96.93-259.6-177.22-385.8-270.86 122.5-137.7 318.4-199.14 505.9-141.07l496 153.6c255.8 79.2 398.9 350.76 319.7 606.52l-56.6 182.82c-37.6 121.27-118.4 217.17-220.2 276.11" fill="#58a84c"/>
 </g>
 <g transform="matrix(.056638 .016969 .016969 -.056638 -890.47 -12.109)">
  <path d="m15865 3351.1 24.1-77.67c14.4-46.42-11.6-95.71-58-110.09l-112.7-34.89 568.6-1836c13.3-43.04-10.8-88.73-53.8-102.06l-42.9-13.28c-43.1-13.33-88.8 10.75-102.1 53.79l-568.6 1836-133.2-41.25c-46.4-14.38-95.7 11.6-110.1 58.02l-24 77.67c-12 38.58 9.6 79.55 48.2 91.5l473 146.49c38.6 11.95 79.6-9.64 91.5-48.22" fill="#dbdfff"/>
 </g>
 <g transform="matrix(.055971 .01677 .01677 -.055971 -890.47 -12.109)">
  <path d="m16282 2094.1c17.9-57.9-14.5-119.38-72.4-137.31l-400.2-123.94c-57.9-17.93-119.4 14.47-137.3 72.38-17.9 57.9 14.5 119.38 72.4 137.31l53.8 16.68c36.3-39.3 89.6-57.23 139.9-41.66l331.7 102.72c5-7.98 9.1-16.73 12.1-26.18" fill="#ffbe94"/>
 </g>
 <g transform="matrix(.05583 .016728 .016728 -.05583 -890.47 -12.109)">
  <path d="m16146 2074.6 21.3-49.02c16.9-26.08 49.1-37.73 78.8-28.54 20.3 6.3 36.6 21.54 44.3 41.39l3.1 8.21c5.7 14.58 6.2 30.63 1.6 45.55l-8.1 26.09-141-43.68" fill="#ffd3b8"/>
 </g>
 <g transform="matrix(.05618 .016832 .016832 -.05618 -890.47 -12.109)">
  <path d="m15869 1623.4 355.1 109.97c48.8 15.11 76.1 66.92 61 115.72l-10 32.2c-15.1 48.8-66.9 76.1-115.7 60.99l-355.1-109.97c-48.8-15.12-76.1-66.92-61-115.72l10-32.2c15.1-48.8 66.9-76.11 115.7-60.99" fill="#ffbe94"/>
 </g>
 <g transform="matrix(.056054 .016795 .016795 -.056054 -890.47 -12.109)">
  <path d="m16153 1861.5 25-80.89c6.5-20.79 25.7-33.32 42.9-27.97l30.3 9.39c20.6 6.37 36.1 24.46 41.6 48.43 7.5 32.88-5.3 69.91-31.4 90.62l-4.5 3.57c-17.3 13.81-38.3 18.43-57.1 12.6l-27.3-8.43c-17.2-5.34-26-26.53-19.5-47.32" fill="#ffd3b8"/>
 </g>
 <g transform="matrix(.05645 .016913 .016913 -.05645 -890.47 -12.109)">
  <path d="m15901 1405.8 323.5 100.19c48.5 15.04 75.7 66.6 60.7 115.16l-10 32.05c-15 48.56-66.6 75.74-115.1 60.7l-323.5-100.19c-48.6-15.04-75.8-66.6-60.7-115.16l9.9-32.05c15-48.56 66.6-75.74 115.2-60.7" fill="#ffbe94"/>
 </g>
 <g transform="matrix(.056321 .016875 .016875 -.056321 -890.47 -12.109)">
  <path d="m16153 1635.4 24.9-80.51c6.4-20.69 25.5-33.15 42.7-27.83l30.2 9.35c20.5 6.34 35.9 24.34 41.3 48.2 7.5 32.72-5.3 69.58-31.2 90.18l-4.5 3.56c-17.3 13.74-38.1 18.34-56.8 12.54l-27.2-8.4c-17.1-5.31-25.8-26.4-19.4-47.09" fill="#ffd3b8"/>
 </g>
 <g transform="matrix(.056643 .016971 .016971 -.056643 -890.47 -12.109)">
  <path d="m15921 1238.5 322.8 99.95c36 11.17 56.2 49.46 45 85.52l-7.3 23.8c-11.2 36.06-49.5 56.24-85.6 45.07l-322.7-99.96c-36.1-11.17-56.3-49.45-45.1-85.51l7.4-23.8c11.1-36.06 49.4-56.24 85.5-45.07" fill="#ffbe94"/>
 </g>
 <g transform="matrix(.05655 .016943 .016943 -.05655 -890.47 -12.109)">
  <path d="m16192 1428.7 15.6-50.12c4-12.88 17.6-20.1 30.4-16.12l22.6 7c15.4 4.74 27.4 16.69 32.2 32 6.7 21-1.4 43.89-19.8 56.02l-3.2 2.1c-12.2 8.09-27.4 10.26-41.4 5.93l-20.3-6.29c-12.9-3.97-20-17.64-16.1-30.52" fill="#ffd3b8"/>
 </g>
 <g transform="matrix(.057511 .017231 .017231 -.057511 -890.47 -12.109)">
  <path d="m15450 2215.4 388.8 120.43c133 41.18 274.2-33.23 315.4-166.2l114.9-371.15c30.5-98.44 6.4-200.61-54.8-274.37-0.2-0.03-0.3-0.04-0.4-0.07-23.8-5.8-46.6-14.17-69.8-21.73-21.8-7.06-44-10.76-65.9-16.87-1.4-0.39-2.7-0.86-4-1.38-5.2 3-10.9 5.05-16.8 5.94l-171.2 552.54c-8 25.95-35.5 40.47-61.5 32.44l-302.3-93.61c-64.6-20.01-133.2 16.15-153.2 80.78-20 64.62 16.1 133.24 80.8 153.25" fill="#ffbe94"/>
 </g>
 <g transform="matrix(.054952 .016464 .016464 -.054952 -890.47 -12.109)">
  <path d="m16292 2168.6-31.8 102.66c-8.1 26.38-32.5 42.27-54.4 35.49l-38.5-11.93c-26.1-8.08-45.8-31.03-52.7-61.45-9.5-41.72 6.7-88.72 39.8-114.99l5.7-4.53c22-17.52 48.6-23.39 72.5-16l34.6 10.71c21.9 6.78 33 33.66 24.8 60.04" fill="#ffd3b8"/>
 </g>
 <g transform="matrix(.055868 .016739 .016739 -.055868 -890.47 -12.109)">
  <path d="m15828 2063 25.3 7.86c32.1-31.97 80.3-45.61 126.5-31.29l311.9 96.58c3.1-3.76 6-7.77 8.7-11.98l-332.3-102.91c-50.4-15.59-103.8 2.36-140.1 41.74" fill="#f09a6f"/>
 </g>
 <g transform="matrix(.057028 .017086 .017086 -.057028 -890.47 -12.109)">
  <path d="m16149 1629.1 52.3-75.43c19.4-27.97 51-45.02 85-45.87l13.3-0.33-18.1-7.36c-43.7-17.76-93.9-4.68-123.4 32.17l-9.1 96.82" fill="#f09a6f"/>
 </g>
 <g transform="matrix(.057533 .017238 .017238 -.057533 -890.47 -12.109)">
  <path d="m16056 787.42-233.1-72.204 522.42-1719.6h255.5l-544.82 1791.8" fill="#141829"/>
 </g>
 <g transform="matrix(.05947 .017818 .017818 -.05947 -890.47 -12.109)">
  <path d="m16587-959.4-569.85 1871.2-484.4-150.02 523.35-1721.2h530.9" fill="#191d33"/>
 </g>
 <g transform="matrix(1.0289 -.010249 .0096797 .97177 0 0)" fill="#f2f3ff" stroke-width="1.0975" style="font-feature-settings:normal;font-variant-caps:normal;font-variant-ligatures:no-common-ligatures;font-variant-numeric:normal" aria-label="8600">
  <path d="m17.351 23.086c-4.0038 0-7.4356 2.7719-7.4356 7.3476 0 2.3319 1.2319 4.7957 3.6078 6.4237l0.044 0.08799c-2.3319 1.5399-4.4878 4.0918-4.4878 7.8756 0 4.1798 2.9478 7.5676 7.7876 7.5676 4.5318 0 8.0076-3.2118 8.0076-8.1396 0-3.4318-1.8479-6.0277-4.4878-7.6116v-0.13199c2.8598-1.8479 3.8278-4.3558 3.8278-6.5117 0-3.8278-2.7279-6.9076-6.8196-6.9076zm-0.35198 26.047c-2.1559 0-3.3438-2.1119-3.3438-4.9277 0-2.3319 1.1879-4.4438 3.0358-5.6317 1.8479 1.1439 3.6078 2.9038 3.6078 5.8957 0 2.9478-1.3199 4.6638-3.2558 4.6638zm0.17599-22.791c1.8479 0 2.6839 1.8039 2.6839 4.1358 0 1.8919-0.92395 3.6958-2.3759 4.6198-1.7159-1.0119-3.1238-2.4199-3.1238-4.8397 0-2.1559 1.0119-3.9158 2.7719-3.9158z"/>
  <path d="m40.854 23.086c-0.52797 0.044-1.4079 0.08799-2.5079 0.30798-2.4639 0.48397-5.1917 1.9359-6.9956 4.1358-2.4639 2.9478-4.2238 7.2156-4.2238 13.111 0 6.9076 2.9038 11.747 8.1396 11.747 5.1477 0 7.6556-4.7517 7.6556-9.9875 0-5.4117-2.5959-8.7995-6.3357-8.7995-2.0239 0-3.5198 1.0119-4.6198 2.4639h-0.13199c0.70396-3.9158 2.5959-7.8316 6.8196-8.8435 0.83596-0.17599 1.5839-0.26399 2.1999-0.26399zm-5.6317 25.827c-1.9799 0-3.3878-2.5959-3.3878-7.3036 0-1.0999 0.13199-1.8479 0.26399-2.1559 0.65996-1.6719 1.8039-2.4199 2.9478-2.4199 2.0679 0 3.1678 2.1999 3.2118 5.4997 0 4.0918-1.0999 6.3797-2.9918 6.3797z"/>
  <path d="m52.875 52.388c4.3998 0 7.9196-4.3998 7.9196-14.739 0-7.8756-1.9359-14.563-7.6556-14.563-5.3677 0-8.0956 5.8517-8.0956 14.739 0 8.2716 2.3759 14.563 7.7876 14.563zm0.13199-4.0038c-2.3319 0-3.2998-3.8278-3.2558-10.647-0.044-6.7756 1.0119-10.647 3.2558-10.647 2.2879 0 3.0798 4.2238 3.0798 10.647 0 6.6876-0.83596 10.647-3.0358 10.647z"/>
  <path d="m70.835 52.388c4.3998 0 7.9196-4.3998 7.9196-14.739 0-7.8756-1.9359-14.563-7.6556-14.563-5.3677 0-8.0956 5.8517-8.0956 14.739 0 8.2716 2.3759 14.563 7.7876 14.563zm0.13199-4.0038c-2.3319 0-3.2998-3.8278-3.2558-10.647-0.044-6.7756 1.0119-10.647 3.2558-10.647 2.2879 0 3.0798 4.2238 3.0798 10.647 0 6.6876-0.83596 10.647-3.0358 10.647z"/>
 </g>
</svg>
