<svg width="113.03mm" height="395.75mm" version="1.1" viewBox="0 0 113.03 395.75" xmlns="http://www.w3.org/2000/svg">
 <g transform="matrix(.088205 .0084309 .0084309 -.088205 -1342.9 174.78)">
  <path d="m15730 401.51 570 72.452-25.9 203.51-570-72.452 25.9-203.51" fill="#e8eafc"/>
 </g>
 <g transform="matrix(.087548 .0083681 .0083681 -.087548 -1342.9 174.78)">
  <path d="m15868 981.09 386.3 49.102 45.9-360.99-386.3-49.1-45.9 360.99" fill="#ffbe94"/>
 </g>
 <g transform="matrix(.086673 .0082845 .0082845 -.086673 -1342.9 174.78)">
  <path d="m15880 1264.5c7 8.75 12.5 17.61 16.6 26.53 20.6 45.17 5.6 91.93-19.9 134.14 1.3 4.65 2.4 9.38 3.4 14.14 6.5 11.04 11.5 22.95 15.1 35.36 8.7 7.63 16.8 16.14 24.3 25.41 4.7 5.78 8.7 11.94 12.3 18.35 19.7 5.03 39.5 9.84 59.7 12.94 13.1 1.68 26.4 3.37 39.5 5.05 92.2 11.72 180.1 22.88 180.1 22.88s31.6-248.67 54.7-430.52c0.8-6.3 1.6-12.51 2.4-18.67 3.6-55.62 31.9-101.28 19.9-157.05-15.4-50.492-60.8-84.102-108.7-88.63-9.4-1.247-19.2-1.509-29.6-0.646-8.9-1-17.8-2.243-26.8-3.591-8.9-1.347-18-2.8-27-4.213-9.1-1.412-18.2-2.773-27.2-3.861-26.2-5.506-52.5-0.94-78.2 7.936-3.6 6.464-7.6 12.747-12.1 18.845-5.4 5.643-10.7 11.284-16.1 16.926 2.6 10.378 1.4 22.039-1.7 33.473-20.9 57.297-60.9 115.02-19.9 172.23 3 7.63 6.1 15.4 8.7 23.34 1.3 11.58-2.9 22.48-9.7 33.04-20.7 34.48-78.6 61.38-59.8 106.59" fill="#f09a6f"/>
 </g>
 <g transform="matrix(.087945 .0084061 .0084061 -.087945 -1342.9 174.78)">
  <path d="m15002 2841.7-12.2 95.62c-31.7 249.32 144.7 477.13 394.1 508.82l363.4 46.2c249.4 31.69 477.2-144.73 508.9-394.05l12.1-95.62c31.7-249.32-144.7-477.12-394-508.81l-363.5-46.21c-249.4-31.69-477.2 144.74-508.8 394.05" fill="#dbdfff"/>
 </g>
 <g transform="matrix(.087801 .0083922 .0083922 -.087801 -1342.9 174.78)">
  <path d="m16270 3006.8-11.5 91c-30.2 237.26-247 405.16-484.2 375l-359.3-45.67c-237.3-30.16-405.2-246.95-375-484.22l11.5-90.99c30.2-237.27 247-405.16 484.2-375l359.3 45.67c237.3 30.16 405.2 246.95 375 484.21" fill="#7aba6f"/>
 </g>
 <g transform="matrix(.08766 .0083788 .0083788 -.08766 -1342.9 174.78)">
  <path d="m16122 3367.3c-45.5-67.58-96.8-131.14-154-189.23-68.1-69.19-137.3-135.46-215.8-192.79-78.9-57.63-164-107.34-250.1-153.27-109.1-58.2-225.1-101.89-335.6-157.23 76.1-123.27 219.5-197.49 372.6-178.03l404.9 51.46c208.7 26.54 356.5 217.32 330 426.12l-19 149.24c-12.6 99-62.1 184.25-133 243.73" fill="#58a84c"/>
 </g>
 <g transform="matrix(.086336 .0082522 .0082522 -.086336 -1342.9 174.78)">
  <path d="m16245 2615.9 8.7-68.01c5.1-40.65-23.6-77.8-64.3-82.96l-98.7-12.55 204.4-1607.8c4.8-37.686-21.9-72.12-59.6-76.911l-37.5-4.774c-37.7-4.791-72.1 21.876-76.9 59.561l-204.4 1607.8-116.6-14.83c-40.7-5.16-77.8 23.6-83 64.25l-8.7 68.02c-4.3 33.78 19.7 64.65 53.4 68.95l414.3 52.65c33.8 4.29 64.6-19.61 68.9-53.4" fill="#dbdfff"/>
 </g>
 <g transform="matrix(.086081 .0082279 .0082279 -.086081 -1342.9 174.78)">
  <path d="m16294 1523c6.4-50.25-29.2-96.17-79.4-102.56l-347.4-44.15c-50.2-6.39-96.1 29.18-102.5 79.43-6.4 50.26 29.2 96.18 79.4 102.57l46.8 5.94c24.1-37.59 65.4-60.06 109.1-54.52l287.9 36.59c3-7.3 5.1-15.09 6.1-23.3" fill="#ffbe94"/>
 </g>
 <g transform="matrix(.08593 .0082135 .0082135 -.08593 -1342.9 174.78)">
  <path d="m16173 1530.9 10.4-43.4c10.2-23.9 35-38.14 60.7-34.86 17.6 2.24 33.3 12.42 42.4 27.64l3.8 6.3c6.7 11.18 9.5 24.3 7.9 37.24l-2.9 22.62-122.3-15.54" fill="#ffd3b8"/>
 </g>
 <g transform="matrix(.086169 .0082363 .0082363 -.086169 -1342.9 174.78)">
  <path d="m15924 1191.2 298.5 37.93c45.4 5.77 77.5 47.25 71.7 92.65l-2.2 17.41c-5.8 45.4-47.2 77.53-92.6 71.75l-298.5-37.93c-45.4-5.77-77.5-47.25-71.7-92.65l2.2-17.41c5.8-45.4 47.2-77.52 92.6-71.75" fill="#ffbe94"/>
 </g>
 <g transform="matrix(.086041 .008224 .008224 -.086041 -1342.9 174.78)">
  <path d="m16181 1349.7 9-70.35c2.3-18.08 16.3-31.18 31.3-29.28l26.4 3.35c17.9 2.28 33.3 14.95 41.3 33.93 10.9 26.03 5.7 58.43-12.8 79.28l-3.2 3.6c-12.3 13.9-28.9 20.75-45.3 18.67l-23.7-3.01c-15-1.91-25.3-18.11-23-36.19" fill="#ffd3b8"/>
 </g>
 <g transform="matrix(.086342 .0082528 .0082528 -.086342 -1342.9 174.78)">
  <path d="m15951 999.49 271.7 34.543c45.3 5.76 77.4 47.15 71.6 92.46l-2.2 17.38c-5.7 45.3-47.1 77.36-92.4 71.6l-271.8-34.54c-45.3-5.76-77.3-47.15-71.6-92.46l2.2-17.37c5.8-45.31 47.2-77.371 92.5-71.613" fill="#ffbe94"/>
 </g>
 <g transform="matrix(.086213 .0082404 .0082404 -.086213 -1342.9 174.78)">
  <path d="m16181 1156.1 8.9-70.21c2.3-18.04 16.3-31.12 31.2-29.22l26.4 3.35c17.8 2.27 33.2 14.91 41.2 33.85 10.9 25.98 5.7 58.32-12.7 79.12l-3.2 3.6c-12.3 13.87-28.9 20.71-45.2 18.63l-23.7-3c-15-1.91-25.2-18.07-22.9-36.12" fill="#ffd3b8"/>
 </g>
 <g transform="matrix(.086448 .0082629 .0082629 -.086448 -1342.9 174.78)">
  <path d="m15968 852.38 274.4 34.88c33.7 4.285 57.6 35.093 53.3 68.808l-1.6 12.932c-4.3 33.72-35.1 57.57-68.8 53.29l-274.5-34.882c-33.7-4.286-57.5-35.092-53.2-68.808l1.6-12.931c4.3-33.717 35.1-57.575 68.8-53.289" fill="#ffbe94"/>
 </g>
 <g transform="matrix(.086356 .0082542 .0082542 -.086356 -1342.9 174.78)">
  <path d="m16212 973.06 5.6-43.812c1.4-11.257 11.7-19.227 22.9-17.8l19.8 2.509c13.4 1.702 25.1 9.859 31.3 21.842 8.6 16.435 5.2 36.597-8.3 49.33l-2.3 2.2c-9 8.491-21.3 12.51-33.5 10.953l-17.7-2.252c-11.3-1.428-19.2-11.712-17.8-22.97" fill="#ffd3b8"/>
 </g>
 <g transform="matrix(.08781 .0083932 .0083932 -.08781 -1342.9 174.78)">
  <path d="m15671 1697.7 340 43.22c116.2 14.77 222.4-67.49 237.2-183.74l41.3-324.48c10.9-86.06-23.9-167.27-85.5-219.5-0.1-0.01-0.2 0-0.3-0.01-20.6-1.34-40.7-4.96-61.1-7.84-19-2.69-38-2.52-57-4.4-1.2-0.12-2.4-0.31-3.6-0.55-3.8 3.24-8.3 5.77-13 7.37l-61.4 483.06c-2.9 22.69-23.7 38.74-46.4 35.86l-264.2-33.59c-56.5-7.18-108.1 32.8-115.3 89.3s32.8 108.12 89.3 115.3" fill="#ffbe94"/>
 </g>
 <g transform="matrix(.084843 .0081095 .0081095 -.084843 -1342.9 174.78)">
  <path d="m16297 1616.6-11.3 88.75c-2.9 22.81-20.6 39.35-39.5 36.94l-33.3-4.23c-22.5-2.87-42-18.85-52.1-42.8-13.8-32.84-7.2-73.71 16.1-100.01l4-4.55c15.6-17.54 36.6-26.18 57.2-23.56l29.9 3.8c18.9 2.41 31.9 22.85 29 45.66" fill="#ffd3b8"/>
 </g>
 <g transform="matrix(.086015 .0082216 .0082216 -.086015 -1342.9 174.78)">
  <path d="m15903 1565.4 22 2.8c21.7-30.92 59.4-49.09 99.5-44l270.4 34.37c2-3.55 3.8-7.26 5.4-11.11l-288.1-36.62c-43.7-5.55-85 16.94-109.2 54.56" fill="#f09a6f"/>
 </g>
 <g transform="matrix(.087037 .0083193 .0083193 -.087037 -1342.9 174.78)">
  <path d="m16193 1128.1 32.4-70.19c12-26.03 35.7-44.76 63.8-50.43l11-2.21-16.1-3.47c-38.8-8.362-78.6 9.8-97.7 44.66l6.6 81.64" fill="#f09a6f"/>
 </g>
 <g transform="matrix(.086323 .025084 .008251 -.26243 -1342.9 -24.479)">
  <path d="m16245 432.15-207.5-26.365 51.6-405.79h210.8l-54.9 432.15" fill="#141829"/>
 </g>
 <g transform="matrix(.08872 .025781 .0084802 -.26972 -1342.9 -24.479)">
  <path d="m16300 0-60.4 475.57-433.5-55.094 53.5-420.47h440.4" fill="#191d33"/>
 </g>
 <g transform="matrix(1.0278 -.048716 .046009 .97073 0 0)" fill="#f2f3ff" stroke-width="1.155" style="font-feature-settings:normal;font-variant-caps:normal;font-variant-ligatures:no-common-ligatures;font-variant-numeric:normal" aria-label="8300">
  <path d="m25.852 35.218c-4.2137 0-7.8254 2.9172-7.8254 7.7328 0 2.4541 1.2965 5.0472 3.797 6.7604l0.04631 0.09261c-2.4541 1.6207-4.723 4.3063-4.723 8.2885 0 4.3989 3.1024 7.9643 8.1959 7.9643 4.7693 0 8.4274-3.3802 8.4274-8.5663 0-3.6117-1.9448-6.3437-4.723-8.0106v-0.13891c3.0098-1.9448 4.0285-4.5841 4.0285-6.853 0-4.0285-2.8709-7.2698-7.1772-7.2698zm-0.37044 27.412c-2.2689 0-3.5191-2.2226-3.5191-5.1861 0-2.4541 1.2502-4.6767 3.195-5.927 1.9448 1.2039 3.797 3.0561 3.797 6.2048 0 3.1024-1.3891 4.9083-3.4265 4.9083zm0.18522-23.986c1.9448 0 2.8246 1.8985 2.8246 4.3526 0 1.9911-0.97239 3.8896-2.5004 4.862-1.8059-1.065-3.2876-2.5467-3.2876-5.0935 0-2.2689 1.065-4.1211 2.9172-4.1211z"/>
  <path d="m36.141 64.668c1.2502 0.78717 3.3802 1.3891 5.6028 1.3891 6.0659 0 9.4461-4.26 9.4461-8.983 0-4.3526-2.4078-6.8993-5.2324-7.7791v-0.09261c2.7783-1.2965 4.3989-3.8433 4.3989-6.8993 0-3.8433-2.5467-7.0846-7.4087-7.0846-2.3615 0-4.6304 0.78717-5.8343 1.667l0.83348 3.7043c1.0187-0.69456 2.3152-1.2965 3.7507-1.2965 2.2226 0 3.7043 1.4354 3.7043 3.9822 0 3.2876-3.0098 4.5378-5.2324 4.5378h-0.60196v3.658h0.83348c3.2876 0 5.8343 1.8059 5.8343 5.4176 0 3.0561-1.8059 5.0935-4.862 5.0935-1.667 0-3.3339-0.55565-4.3989-1.2039z"/>
  <path d="m63.238 66.057c4.6304 0 8.3348-4.6304 8.3348-15.512 0-8.2885-2.0374-15.327-8.057-15.327-5.6491 0-8.52 6.1585-8.52 15.512 0 8.7052 2.5004 15.327 8.1959 15.327zm0.13891-4.2137c-2.4541 0-3.4728-4.0285-3.4265-11.206-0.0463-7.1309 1.065-11.206 3.4265-11.206 2.4078 0 3.2413 4.4452 3.2413 11.206 0 7.0383-0.87978 11.206-3.195 11.206z"/>
  <path d="m82.14 66.057c4.6304 0 8.3348-4.6304 8.3348-15.512 0-8.2885-2.0374-15.327-8.057-15.327-5.6491 0-8.52 6.1585-8.52 15.512 0 8.7052 2.5004 15.327 8.1959 15.327zm0.13891-4.2137c-2.4541 0-3.4728-4.0285-3.4265-11.206-0.0463-7.1309 1.065-11.206 3.4265-11.206 2.4078 0 3.2413 4.4452 3.2413 11.206 0 7.0383-0.87978 11.206-3.195 11.206z"/>
 </g>
</svg>
