<svg width="52.767mm" height="23.986mm" version="1.1" viewBox="0 0 52.767 23.986" xmlns="http://www.w3.org/2000/svg">
 <g transform="translate(129.88 -299.07)" fill="#fff">
  <g transform="matrix(.96696 0 0 1.0342 -84.276 161.58)" stroke-width=".54182" style="font-feature-settings:normal;font-variant-caps:normal;font-variant-ligatures:no-common-ligatures;font-variant-numeric:normal" aria-label="OKSJONID">
   <path d="m-39.743 147.99q0 2.561-0.95948 3.9367-0.95948 1.3757-2.7444 1.3757-1.792 0-2.7514-1.3687-0.95948-1.3757-0.95948-3.9578 0-2.561 0.95948-3.9226 0.95948-1.3687 2.7656-1.3687 1.7849 0 2.7373 1.3757 0.95242 1.3687 0.95242 3.9296zm-5.4535 0q0 1.7638 0.44446 2.688t1.3052 0.9242q1.7355 0 1.7355-3.6122t-1.7214-3.6122q-0.87482 0-1.3193 0.9242-0.44446 0.91715-0.44446 2.688z"/>
   <path d="m-31.806 153.17h-2.0459l-1.6932-4.4094-0.76899 0.76899v3.6404h-1.919v-10.314h1.919v5.1149l0.67022-1.545 1.7567-3.5698h2.053l-2.3846 4.4658z"/>
   <path d="m-26.197 150.32q0 1.4463-0.73372 2.2153-0.72666 0.769-2.1024 0.769-1.3475 0-2.2929-0.52913v-1.8978q1.157 0.75488 2.1235 0.75488 0.55029 0 0.82543-0.30336 0.2822-0.30336 0.2822-0.82543 0-0.51502-0.33158-0.93832-0.33158-0.43035-1.0935-0.95242-0.66317-0.45857-1.0089-0.87482-0.33864-0.42329-0.52912-0.94536-0.18343-0.52207-0.18343-1.2135 0-1.3263 0.73372-2.1024 0.74077-0.77604 1.9824-0.77604 1.1852 0 2.2788 0.66316l-0.63495 1.538q-0.33864-0.19754-0.71255-0.35275-0.36686-0.15521-0.79016-0.15521-0.46563 0-0.71961 0.31042-0.24692 0.30337-0.24692 0.83249 0 0.52207 0.29631 0.91009 0.30336 0.38803 1.0512 0.88188 1.0089 0.67727 1.4039 1.3828 0.40213 0.7055 0.40213 1.6085z"/>
   <path d="m-25.725 156.14q-0.74783 0-1.1852-0.17638v-1.672q0.45857 0.1411 0.86776 0.1411 0.58556 0 0.85365-0.37391 0.27514-0.37392 0.27514-1.1147v-10.096h1.919v9.9969q0 1.0159-0.34569 1.7638-0.33864 0.74783-0.96653 1.1358-0.62084 0.39508-1.4181 0.39508z"/>
   <path d="m-14.063 147.99q0 2.561-0.95948 3.9367-0.95948 1.3757-2.7444 1.3757-1.792 0-2.7514-1.3687-0.95948-1.3757-0.95948-3.9578 0-2.561 0.95948-3.9226 0.95948-1.3687 2.7656-1.3687 1.7849 0 2.7373 1.3757 0.95242 1.3687 0.95242 3.9296zm-5.4535 0q0 1.7638 0.44446 2.688 0.44446 0.9242 1.3052 0.9242 1.7355 0 1.7355-3.6122t-1.7214-3.6122q-0.87482 0-1.3193 0.9242-0.44446 0.91715-0.44446 2.688z"/>
   <path d="m-5.3288 153.17h-2.3423l-3.1889-7.4712h-0.09171q0.17638 0.85365 0.17638 1.8343v5.6369h-1.7779v-10.314h2.3564l3.1606 7.3936h0.077605q-0.13404-0.74077-0.13404-1.7637v-5.6299h1.7637z"/>
   <path d="m-3.1488 153.17v-10.314h1.8061v10.314z"/>
   <path d="m7.4125 147.91q0 2.5539-1.0441 3.9085-1.0371 1.3475-2.9913 1.3475h-2.5257v-10.314h2.7585q1.799 0 2.8008 1.3334 1.0018 1.3263 1.0018 3.725zm-1.9683 0.0564q0-3.4569-1.9048-3.4569h-0.76899v6.9774h0.62084q1.0512 0 1.5521-0.87482 0.5009-0.88187 0.5009-2.6456z"/>
  </g>
  <g transform="matrix(.96696 0 0 1.0342 -83.703 161.58)" stroke-width=".34174" style="font-feature-settings:normal;font-variant-caps:normal;font-variant-ligatures:no-common-ligatures;font-variant-numeric:normal" aria-label="AUTO">
   <path d="m-44.097 139.56-0.37378-1.6419h-1.6953l-0.37378 1.6419h-1.2103l1.6108-6.5322h1.6419l1.6152 6.5322zm-0.60071-2.7143-0.34708-1.5129q-0.03115-0.13794-0.14239-0.68971-0.10679-0.55621-0.12904-0.74309-0.05785 0.38267-0.14684 0.84544-0.08899 0.45832-0.46277 2.1002z"/>
   <path d="m-38.035 133.05v4.2094q0 1.1614-0.52506 1.7754-0.52506 0.60961-1.5173 0.60961-0.97003 0-1.4773-0.60516-0.50726-0.60961-0.50726-1.7977v-4.1916h1.2014v4.2806q0 1.2415 0.82319 1.2415 0.38267 0 0.59181-0.31593 0.20914-0.31593 0.20914-0.89884v-4.3073z"/>
   <path d="m-34.646 139.56h-1.2059v-5.442h-1.2459v-1.0635h3.6977v1.0635h-1.2459z"/>
   <path d="m-28.094 136.3q0 1.6152-0.60516 2.4829-0.60516 0.86769-1.7309 0.86769-1.1302 0-1.7354-0.86324-0.60516-0.86769-0.60516-2.4963 0-1.6152 0.60516-2.474 0.60516-0.86324 1.7443-0.86324 1.1258 0 1.7265 0.86769 0.60071 0.86324 0.60071 2.4785zm-3.4396 0q0 1.1124 0.28033 1.6953t0.82319 0.58291q1.0946 0 1.0946-2.2782 0-2.2782-1.0857-2.2782-0.55176 0-0.83209 0.58291-0.28033 0.57846-0.28033 1.6953z"/>
  </g>
 </g>
</svg>
