<svg width="54.541mm" height="21.044mm" version="1.1" viewBox="0 0 54.541 21.044" xmlns="http://www.w3.org/2000/svg">
 <g transform="translate(120.44 -301.1)" fill="#fff">
  <g transform="matrix(.96696 0 0 1.0342 -144.91 163.6)" stroke-width=".54182" style="font-feature-settings:normal;font-variant-caps:normal;font-variant-ligatures:no-common-ligatures;font-variant-numeric:normal" aria-label="AUCTIONS">
   <path d="m31.1 153.17-0.59262-2.6033h-2.6879l-0.59262 2.6033h-1.919l2.5539-10.357h2.6033l2.561 10.357zm-0.95242-4.3035-0.55029-2.3987q-0.04939-0.2187-0.22576-1.0935-0.16932-0.88187-0.2046-1.1782-0.09171 0.60673-0.23281 1.3404-0.1411 0.72667-0.73372 3.33z"/>
   <path d="m40.292 142.85v6.674q0 1.8414-0.83249 2.8149-0.83249 0.96654-2.4057 0.96654-1.538 0-2.3423-0.95948-0.80427-0.96653-0.80427-2.8502v-6.6458h1.9048v6.7869q0 1.9683 1.3052 1.9683 0.60673 0 0.93831-0.5009 0.33158-0.5009 0.33158-1.4251v-6.8292z"/>
   <path d="m45.499 144.38q-0.82543 0-1.3052 0.96653-0.47268 0.96654-0.47268 2.688 0 3.5839 1.8696 3.5839 0.81838 0 1.7144-0.52206v1.7073q-0.75488 0.50091-1.9331 0.50091-1.7426 0-2.6809-1.3828-0.93126-1.3898-0.93126-3.9014 0-2.5116 0.95948-3.9155 0.96653-1.4039 2.6809-1.4039 0.5644 0 1.0794 0.15521 0.52207 0.15521 1.1147 0.54323l-0.63495 1.5592q-0.31748-0.2187-0.67728-0.39508-0.3598-0.18343-0.7831-0.18343z"/>
   <path d="m51.933 153.17h-1.9119v-8.6282h-1.9754v-1.6861h5.8627v1.6861h-1.9754z"/>
   <path d="m55.348 153.17v-10.314h1.8061v10.314z"/>
   <path d="m66.445 147.99q0 2.561-0.95948 3.9367-0.95948 1.3757-2.7444 1.3757-1.792 0-2.7514-1.3687-0.95948-1.3757-0.95948-3.9578 0-2.561 0.95948-3.9226 0.95948-1.3687 2.7656-1.3687 1.7849 0 2.7373 1.3757 0.95242 1.3687 0.95242 3.9296zm-5.4535 0q0 1.7638 0.44446 2.688t1.3052 0.9242q1.7355 0 1.7355-3.6122t-1.7214-3.6122q-0.87482 0-1.3193 0.9242-0.44446 0.91715-0.44446 2.688z"/>
   <path d="m75.179 153.17h-2.3423l-3.1889-7.4712h-0.09171q0.17637 0.85365 0.17637 1.8343v5.6369h-1.7779v-10.314h2.3564l3.1606 7.3936h0.07761q-0.13404-0.74077-0.13404-1.7637v-5.6299h1.7637z"/>
   <path d="m81.712 150.32q0 1.4463-0.73372 2.2153-0.72666 0.769-2.1024 0.769-1.3475 0-2.2929-0.52913v-1.8978q1.157 0.75488 2.1236 0.75488 0.55029 0 0.82543-0.30336 0.2822-0.30336 0.2822-0.82543 0-0.51502-0.33158-0.93832-0.33158-0.43035-1.0935-0.95242-0.66317-0.45857-1.0089-0.87482-0.33864-0.42329-0.52912-0.94536-0.18343-0.52207-0.18343-1.2135 0-1.3263 0.73372-2.1024 0.74077-0.77604 1.9824-0.77604 1.1852 0 2.2788 0.66316l-0.63495 1.538q-0.33864-0.19754-0.71255-0.35275-0.36686-0.15521-0.79016-0.15521-0.46563 0-0.71961 0.31042-0.24692 0.30337-0.24692 0.83249 0 0.52207 0.29631 0.91009 0.30336 0.38803 1.0512 0.88188 1.0089 0.67727 1.4039 1.3828 0.40213 0.7055 0.40213 1.6085z"/>
  </g>
  <g transform="matrix(.96696 0 0 1.0342 -145.27 163.6)" stroke-width=".34174" style="font-feature-settings:normal;font-variant-caps:normal;font-variant-ligatures:no-common-ligatures;font-variant-numeric:normal" aria-label="CAR">
   <path d="m28.04 134.02q-0.52061 0-0.82319 0.60961-0.29813 0.6096-0.29813 1.6953 0 2.2604 1.1792 2.2604 0.51616 0 1.0813-0.32927v1.0768q-0.47612 0.31593-1.2192 0.31593-1.0991 0-1.6909-0.87214-0.58736-0.87659-0.58736-2.4607t0.60516-2.4696q0.60961-0.88549 1.6909-0.88549 0.35598 0 0.6808 0.0979 0.32928 0.0979 0.70305 0.34263l-0.40047 0.98338q-0.20024-0.13794-0.42717-0.24918-0.22694-0.11569-0.49392-0.11569z"/>
   <path d="m33.443 139.56-0.37377-1.6419h-1.6953l-0.37377 1.6419h-1.2103l1.6108-6.5322h1.6419l1.6152 6.5322zm-0.60071-2.7143-0.34708-1.5129q-0.03115-0.13794-0.14239-0.68971-0.10679-0.55621-0.12904-0.74309-0.05785 0.38267-0.14684 0.84544-0.08899 0.45832-0.46277 2.1002z"/>
   <path d="m36.716 137.03v2.5319h-1.2103v-6.5055h1.5841q1.0056 0 1.4817 0.47612 0.48057 0.47612 0.48057 1.455 0 1.2326-0.83209 1.722l1.2504 2.8523h-1.2949l-1.0279-2.5319zm0-1.0412h0.31148q0.42717 0 0.61406-0.24028 0.18689-0.24473 0.18689-0.7253 0-0.49837-0.20024-0.7075-0.19579-0.21359-0.60961-0.21359h-0.30258z"/>
  </g>
 </g>
</svg>
