<svg width="40.065mm" height="21.053mm" version="1.1" viewBox="0 0 40.065 21.053" xmlns="http://www.w3.org/2000/svg">
 <g transform="translate(237.8 -225.11)" fill="#fff">
  <g transform="matrix(.96696 0 0 1.0342 -126.69 87.613)" stroke-width=".54182" style="font-feature-settings:normal;font-variant-caps:normal;font-variant-ligatures:no-common-ligatures;font-variant-numeric:normal" aria-label="IZSOLES">
   <path d="m-114.9 153.17v-10.314h1.8061v10.314z"/>
   <path d="m-105.93 153.17h-5.5805v-1.3404l3.2947-7.3019h-3.1959v-1.672h5.3759v1.3404l-3.2947 7.2948h3.4005z"/>
   <path d="m-100.02 150.32q0 1.4463-0.73372 2.2153-0.72666 0.769-2.1024 0.769-1.3475 0-2.2929-0.52913v-1.8978q1.157 0.75488 2.1236 0.75488 0.55029 0 0.82543-0.30336 0.2822-0.30336 0.2822-0.82543 0-0.51502-0.33158-0.93832-0.33159-0.43035-1.0935-0.95242-0.66317-0.45857-1.0089-0.87482-0.33864-0.42329-0.52912-0.94536-0.18343-0.52207-0.18343-1.2135 0-1.3263 0.73372-2.1024 0.74077-0.77604 1.9824-0.77604 1.1852 0 2.2788 0.66316l-0.63495 1.538q-0.33864-0.19754-0.71255-0.35275-0.36686-0.15521-0.79016-0.15521-0.46563 0-0.71961 0.31042-0.24692 0.30337-0.24692 0.83249 0 0.52207 0.2963 0.91009 0.30337 0.38803 1.0512 0.88188 1.0089 0.67727 1.4039 1.3828 0.40213 0.7055 0.40213 1.6085z"/>
   <path d="m-91.641 147.99q0 2.561-0.95948 3.9367-0.95948 1.3757-2.7444 1.3757-1.792 0-2.7514-1.3687-0.95948-1.3757-0.95948-3.9578 0-2.561 0.95948-3.9226 0.95948-1.3687 2.7656-1.3687 1.7849 0 2.7373 1.3757 0.95242 1.3687 0.95242 3.9296zm-5.4535 0q0 1.7638 0.44446 2.688t1.3052 0.9242q1.7355 0 1.7355-3.6122t-1.7214-3.6122q-0.87482 0-1.3193 0.9242-0.44446 0.91715-0.44446 2.688z"/>
   <path d="m-90.131 153.17v-10.314h1.919v8.6353h2.6597v1.6791z"/>
   <path d="m-79.668 153.17h-4.6492v-10.314h4.6492v1.6579h-2.7303v2.4551h2.5327v1.665h-2.5327v2.8573h2.7303z"/>
   <path d="m-73.467 150.32q0 1.4463-0.73372 2.2153-0.72666 0.769-2.1024 0.769-1.3475 0-2.2929-0.52913v-1.8978q1.157 0.75488 2.1236 0.75488 0.55029 0 0.82543-0.30336 0.2822-0.30336 0.2822-0.82543 0-0.51502-0.33158-0.93832-0.33158-0.43035-1.0935-0.95242-0.66317-0.45857-1.0089-0.87482-0.33864-0.42329-0.52912-0.94536-0.18343-0.52207-0.18343-1.2135 0-1.3263 0.73372-2.1024 0.74077-0.77604 1.9824-0.77604 1.1852 0 2.2788 0.66316l-0.63495 1.538q-0.33864-0.19754-0.71255-0.35275-0.36686-0.15521-0.79016-0.15521-0.46563 0-0.71961 0.31042-0.24692 0.30337-0.24692 0.83249 0 0.52207 0.29631 0.91009 0.30336 0.38803 1.0512 0.88188 1.0089 0.67727 1.4039 1.3828 0.40213 0.7055 0.40213 1.6085z"/>
  </g>
  <g transform="matrix(.96696 0 0 1.0342 -125.48 87.613)" stroke-width=".34174" style="font-feature-settings:normal;font-variant-caps:normal;font-variant-ligatures:no-common-ligatures;font-variant-numeric:normal" aria-label="AUTO">
   <path d="m-112.5 139.56-0.37378-1.6419h-1.6953l-0.37378 1.6419h-1.2103l1.6108-6.5322h1.6419l1.6152 6.5322zm-0.60071-2.7143-0.34708-1.5129q-0.0312-0.13794-0.14239-0.68971-0.10679-0.55621-0.12904-0.74309-0.0579 0.38267-0.14684 0.84544-0.089 0.45832-0.46277 2.1002z"/>
   <path d="m-106.44 133.05v4.2094q0 1.1614-0.52506 1.7754-0.52507 0.60961-1.5174 0.60961-0.97003 0-1.4773-0.60516-0.50726-0.60961-0.50726-1.7977v-4.1916h1.2014v4.2806q0 1.2415 0.82319 1.2415 0.38267 0 0.59181-0.31593 0.20913-0.31593 0.20913-0.89884v-4.3073z"/>
   <path d="m-103.05 139.56h-1.2059v-5.442h-1.2459v-1.0635h3.6977v1.0635h-1.2459z"/>
   <path d="m-96.501 136.3q0 1.6152-0.60516 2.4829-0.60516 0.86769-1.7309 0.86769-1.1302 0-1.7354-0.86324-0.60516-0.86769-0.60516-2.4963 0-1.6152 0.60516-2.474 0.60516-0.86324 1.7443-0.86324 1.1258 0 1.7265 0.86769 0.60071 0.86324 0.60071 2.4785zm-3.4396 0q0 1.1124 0.28033 1.6953t0.82319 0.58291q1.0946 0 1.0946-2.2782 0-2.2782-1.0857-2.2782-0.55176 0-0.83209 0.58291-0.28033 0.57846-0.28033 1.6953z"/>
  </g>
 </g>
</svg>
