<svg width="64.351mm" height="21.724mm" version="1.1" viewBox="0 0 64.351 21.724" xmlns="http://www.w3.org/2000/svg">
 <g transform="translate(-188.32 -309.01)" fill="#fff">
  <g transform="matrix(.96696 0 0 1.0342 101.94 172.83)" stroke-width=".54182" style="font-feature-settings:normal;font-variant-caps:normal;font-variant-ligatures:no-common-ligatures;font-variant-numeric:normal" aria-label="АУКЦИОНЫ ">
   <path d="m95.128 142.16-0.59262-2.6033h-2.6879l-0.59262 2.6033h-1.919l2.5539-10.357h2.6033l2.561 10.357zm-0.95242-4.3035-0.55029-2.3987q-0.04939-0.21871-0.22576-1.0935-0.16932-0.88188-0.20459-1.1782-0.09171 0.60673-0.23282 1.3404-0.1411 0.72666-0.73372 3.33z"/>
   <path d="m98.585 142.31q-0.74077 0-1.2417-0.19754v-1.7073q0.51501 0.20459 1.0653 0.20459 0.8466 0 1.3052-1.5733l-2.6456-7.182h2.0107l1.3122 4.0284q0.16227 0.55735 0.2046 0.95242h0.0564l0.0988-0.47973 0.10582-0.47269 1.1218-4.0284h1.9401l-2.2999 7.2948q-0.55029 1.7285-1.2628 2.4481-0.7055 0.71255-1.7708 0.71255z"/>
   <path d="m111.57 142.16h-2.1518l-2.6456-5.2277v5.2277h-1.9048v-10.314h1.9048v4.9949l2.688-4.9949h2.053l-2.829 4.9667z"/>
   <path d="m118.85 140.55h1.1711v4.5646h-1.8625v-2.949h-5.6793v-10.314h1.919v8.6212h2.5327v-8.6212h1.919z"/>
   <path d="m121.15 131.85h1.7779v5.6652q0 0.88187-0.13404 1.7426h0.0776l3.1465-7.4077h2.3564v10.314h-1.7638v-5.651q0-1.0441 0.16227-1.8343h-0.0917l-3.1606 7.4853h-2.3705z"/>
   <path d="m137.3 136.99q0 2.561-0.95947 3.9367-0.95948 1.3757-2.7444 1.3757-1.792 0-2.7514-1.3687-0.95948-1.3757-0.95948-3.9578 0-2.561 0.95948-3.9226 0.95947-1.3687 2.7656-1.3687 1.7849 0 2.7373 1.3757 0.95242 1.3687 0.95242 3.9296zm-5.4535 0q0 1.7637 0.44447 2.688 0.44446 0.9242 1.3052 0.9242 1.7355 0 1.7355-3.6122t-1.7214-3.6122q-0.87482 0-1.3193 0.9242-0.44447 0.91715-0.44447 2.688z"/>
   <path d="m145.18 142.16h-1.919v-4.5222h-2.5327v4.5222h-1.919v-10.314h1.919v4.0989h2.5327v-4.0989h1.919z"/>
   <path d="m147 142.16v-10.314h1.919v4.0284h0.49385q3.21 0 3.21 3.0054 0 1.5592-0.82543 2.4199-0.82543 0.86071-2.3422 0.86071zm1.919-1.665h0.47974q1.284 0 1.284-1.545 0-0.74782-0.31747-1.0724-0.31042-0.32453-1.0653-0.32453h-0.38097zm6.9703 1.665h-1.926v-10.314h1.926z"/>
  </g>
  <g transform="matrix(.96696 0 0 1.0342 101.94 172.83)" stroke-width=".34174" style="font-feature-settings:normal;font-variant-caps:normal;font-variant-ligatures:no-common-ligatures;font-variant-numeric:normal" aria-label="АВТОМОБИЛЕЙ">
   <path d="m92.989 152.61-0.37378-1.6419h-1.6953l-0.37377 1.6419h-1.2103l1.6108-6.5322h1.6419l1.6152 6.5322zm-0.60071-2.7143-0.34708-1.5129q-0.03115-0.13794-0.14239-0.6897-0.10679-0.55621-0.12904-0.7431-0.05785 0.38268-0.14684 0.84544-0.08899 0.45832-0.46277 2.1003z"/>
   <path d="m95.051 146.1h1.6597q1.0145 0 1.4773 0.39602 0.46277 0.39158 0.46277 1.2504 0 0.56511-0.24473 0.94778-0.24473 0.37823-0.66745 0.45832v0.0445q0.55176 0.13794 0.7965 0.51616 0.24473 0.37823 0.24473 1.0056 0 0.88549-0.47612 1.3883-0.47167 0.49836-1.2949 0.49836h-1.9579zm1.1391 2.6164h0.55621q0.38267 0 0.53841-0.20468 0.15574-0.20469 0.15574-0.60961 0-0.40493-0.17799-0.57846-0.17799-0.17799-0.56066-0.17799h-0.51172zm0 1.0101v1.8199h0.60961q0.37822 0 0.56066-0.23139 0.18689-0.23138 0.18689-0.7164 0-0.87214-0.76535-0.87214z"/>
   <path d="m101.94 152.61h-1.2059v-5.442h-1.2459v-1.0635h3.6977v1.0635h-1.2459z"/>
   <path d="m108.44 149.34q0 1.6152-0.60516 2.4829t-1.7309 0.86769q-1.1302 0-1.7354-0.86324-0.60516-0.86769-0.60516-2.4963 0-1.6152 0.60516-2.474 0.60516-0.86324 1.7443-0.86324 1.1258 0 1.7265 0.86769 0.60071 0.86324 0.60071 2.4785zm-3.4396 0q0 1.1124 0.28033 1.6953t0.82319 0.58291q1.0946 0 1.0946-2.2782 0-2.2782-1.0857-2.2782-0.55176 0-0.83209 0.58291-0.28033 0.57846-0.28033 1.6953z"/>
   <path d="m111.98 152.61-1.237-5.5399h-0.0489q0.0845 0.64076 0.0845 1.1747v4.3652h-1.1213v-6.5054h1.86l1.1124 5.1127h0.0356l1.1035-5.1127h1.8867v6.5054h-1.148v-4.4096q0-0.54732 0.0623-1.1213h-0.0356l-1.2326 5.531z"/>
   <path d="m121.55 149.34q0 1.6152-0.60515 2.4829-0.60516 0.86769-1.7309 0.86769-1.1302 0-1.7354-0.86324-0.60516-0.86769-0.60516-2.4963 0-1.6152 0.60516-2.474 0.60516-0.86324 1.7443-0.86324 1.1258 0 1.7265 0.86769 0.6007 0.86324 0.6007 2.4785zm-3.4396 0q0 1.1124 0.28033 1.6953t0.82319 0.58291q1.0946 0 1.0946-2.2782 0-2.2782-1.0857-2.2782-0.55176 0-0.83209 0.58291-0.28033 0.57846-0.28033 1.6953z"/>
   <path d="m126.36 150.54q0 0.98783-0.50727 1.5307-0.50282 0.53841-1.4417 0.53841h-1.6419v-6.5054h3.0881v1.0546h-1.8778v1.4862h0.38267q0.98783 0 1.4906 0.47611 0.50727 0.47612 0.50727 1.4195zm-2.3806 1.019h0.37377q0.7876 0 0.7876-0.97449 0-0.46721-0.20024-0.6719-0.19578-0.20914-0.66745-0.20914h-0.29368z"/>
   <path d="m127.47 146.1h1.1213v3.5731q0 0.55621-0.0845 1.0991h0.0489l1.9846-4.6722h1.4862v6.5054h-1.1124v-3.5642q0-0.65856 0.10234-1.1569h-0.0579l-1.9935 4.7211h-1.4951z"/>
   <path d="m137.46 152.61h-1.2103v-5.442h-0.97448q-0.20024 2.2515-0.40047 3.7199-0.13349 0.93889-0.48502 1.375-0.34708 0.43607-0.92999 0.43607-0.36042 0-0.59181-0.0979v-1.0012q0.13349 0.0534 0.32928 0.0534 0.24918 0 0.37823-0.39157 0.13349-0.39158 0.29812-1.7576 0.16909-1.3661 0.35153-3.3996h3.2349z"/>
   <path d="m141.8 152.61h-2.9324v-6.5054h2.9324v1.0457h-1.722v1.5485h1.5974v1.0501h-1.5974v1.8021h1.722z"/>
   <path d="m143.01 146.1h1.1213v3.5731q0 0.55621-0.0845 1.0991h0.049l1.9846-4.6722h1.4862v6.5054h-1.1125v-3.5642q0-0.65856 0.10235-1.1569h-0.0579l-1.9935 4.7211h-1.4951zm3.9024-1.9623q-0.089 0.74754-0.48946 1.0946-0.39603 0.34708-1.1703 0.34708-0.75645 0-1.1347-0.33818-0.37822-0.34263-0.44942-1.1035h0.98339q0.0489 0.44496 0.18688 0.6007 0.14239 0.15574 0.44052 0.15574 0.29368 0 0.43607-0.17798 0.14684-0.17799 0.19579-0.57846z"/>
  </g>
 </g>
</svg>
