<svg width="622.44mm" height="1246.4mm" version="1.1" viewBox="0 0 622.44 1246.4" xmlns="http://www.w3.org/2000/svg">
 <g transform="translate(331.25 474.34)">
  <g transform="matrix(.082039 0 0 -.082039 -1182.4 772.01)">
   <path d="m16300 9242.1-125 579.44-377 2328.5-624.6 134.3v-0.1c-255.3 133.6-557 182.1-860.6 116.6l-932.2-201c-193.4-41.7-366.9-125.2-513.4-238.9l-861.9-420.8 630.9-1944.1 235.9-1093.3 3427.9 739.35" fill="#1a1a1a"/>
  </g>
  <g transform="matrix(.074533 0 0 -.074533 -1182.4 772.01)">
   <path d="m16271 13086-182.1 636.1-847.7-182.9-847.6-182.8 96.2-654.6c5.6-38.2 14.8-75.7 27.3-112 27.1-78.7 69.9-151.7 126.2-214.1l390.2-432.9c72-79.8 163.3-139.6 265.2-173.6 215.5-71.9 453-20.6 619.7 133.7 78.8 73 137.4 165.1 170.1 267.5l177.1 555.2c25.6 80.1 34.5 164.2 26.7 247.1-3.5 38.2-10.6 76.1-21.3 113.3" fill="#d1d1d1"/>
  </g>
  <g transform="matrix(.077466 0 0 -.077466 -1182.4 772.01)">
   <path d="m15921 10927c-151.3 145.7-261.8 327-316.2 530.3-6.2 23 11.2 44.9 32.5 50.5 23 6 44.8-11.2 50.5-32.6 14.6-54.3 31.6-102.5 54.6-153.6 39.6-87.8 88.8-166.9 149.7-239.5 30.2-36 62.7-70.1 96.7-102.6 6.1-5.9 12.3-11.7 18.6-17.4l-328 1520.5-4.1-0.9c7.5-79.8-1.1-160.7-25.7-237.8l-170.4-534.2c-31.5-98.5-87.8-187.1-163.7-257.4-160.3-148.4-388.9-197.7-596.2-128.5-98 32.7-185.9 90.2-255.1 167l-375.5 416.5c-54.2 60-95.4 130.2-121.4 206l-4.2-0.9 620.6-2877.2 1716.3 370.19-266.9 1237.4c-42.8 19.5-78.3 51.6-112.1 84.2" fill="#631d1d"/>
  </g>
  <g transform="matrix(.072923 0 0 -.072923 -1182.4 772.01)">
   <path d="m16280 11385c19.8-91.6-38.5-181.9-130.1-201.7-91.6-19.7-181.9 38.5-201.7 130.1-19.7 91.7 38.5 181.9 130.2 201.7 91.6 19.8 181.9-38.5 201.6-130.1" fill="#d1cc77"/>
  </g>
  <g transform="matrix(.073701 0 0 -.073701 -1182.4 772.01)">
   <path d="m16280 10468c19.6-90.6-38-180-128.7-199.5-90.7-19.6-180 38.1-199.5 128.7-19.6 90.7 38 180 128.7 199.6 90.7 19.5 180-38.1 199.5-128.8" fill="#d1cc77"/>
  </g>
  <g transform="matrix(.075586 0 0 -.075586 -1182.4 772.01)">
   <path d="m16300 11724-345.6-74.6-20.8 96.5 345.6 74.6 20.8-96.5" fill="#381010"/>
  </g>
  <g transform="matrix(.076198 0 0 -.076198 -1182.4 772.01)">
   <path d="m16255 11162c-34.6 33.1-67.5 67.7-98.2 104.4-61.9 73.8-112 154.2-152.2 243.4-23.5 52-40.7 101-55.5 156.2-5.9 21.8-28 39.3-51.4 33.1-21.7-5.7-39.3-27.9-33.1-51.3 55.4-206.7 167.7-391 321.5-539.1 34.4-33.2 70.5-65.7 114-85.6l-26.2 121.3c-6.3 5.8-12.6 11.7-18.9 17.6" fill="#d1cc77"/>
  </g>
  <g transform="matrix(.072897 0 0 -.072897 -1182.4 772.01)">
   <path d="m14966 13779-48.6-206.4c-4.2-119.5 84.4-221.8 208.2-240.5l172.9-26.2c78.1-11.8 158.5 10.9 218.4 61.7l8.4 7.1c71 60.4 169.9 80.4 258.7 52.5 78.7-24.8 166.1-12 234.9 34.3l144.8 97.4c97.5 65.6 136 185.3 93 288.8l-127 182.2-1163.7-250.9" fill="#e0e0e0"/>
  </g>
  <g transform="matrix(.072872 0 0 -.072872 -1182.4 772.01)">
   <path d="m16243 13300c22 92.2-81 163.1-159.2 109.6l-232.3-159c-41 35.4-99.5 53.2-160.6 43.7-65.3-10.2-118.1-48.9-145.2-99.6l-288 86.5c-90.8 27.3-167.5-71.5-118.5-152.7l33.2-54.9c15.6-25.8 19.1-57.2 9.7-85.8-29.6-90.2 67.6-169.4 149.9-122.1l241 138.3c0.1 0 0.1 0.1 0.2 0.1 41.1-41.8 104.5-63.8 171-53.4 63.2 9.8 114.8 46.5 142.5 94.9l252.3-54.6c92.8-20 161.4 84.9 105.8 161.9-17.7 24.4-23.8 55.4-16.8 84.7l15 62.4" fill="#631d1d"/>
  </g>
  <g transform="matrix(.085624 0 0 -.085624 -1182.4 772.01)">
   <path d="m16300 0h-4872.9v8408h4872.9v-8408" fill="#001421"/>
  </g>
  <g transform="matrix(.089577 0 0 -.089577 -1182.4 772.01)">
   <path d="m16300 8036.9h-6096.5v562.84h6096.5v-562.84" fill="#7c9396"/>
  </g>
  <g transform="matrix(.08173 0 0 -.08173 -1182.4 772.01)">
   <path d="m16300 9205.9h-1294.2v67.63c0 83.9 68.1 151.92 152 151.92h990.3c83.9 0 151.9-68.02 151.9-151.92v-67.63" fill="#ad6a3d"/>
  </g>
  <g transform="matrix(.08173 0 0 -.08173 -1182.4 772.01)">
   <path d="m16300 9234.7h-1294.2v43.76h1294.2v-43.76" fill="#d48b59"/>
  </g>
  <g transform="matrix(.078582 0 0 -.078582 -1182.4 772.01)">
   <path d="m16297 14114c-4.5 121-78.4 216.4-165.1 213.2-27.6-1.1-53.1-12-75-30.3-59 89.7-130.6 170.4-212 239.5-92.1 769.8-761.5 1352.5-1549.9 1322.8-811.2-30.6-1448.1-698.1-1447.5-1503.1-52.8-61.8-98.8-129.3-137.3-201.5-27.2 26.4-60.3 41.4-95.5 40.1-86.7-3.3-153.2-104-148.7-225 3.8-99.8 54.8-182.2 121.1-206.2-1.8-15.1-3.3-30.3-4.5-45.5-3.4-43.3-4.4-87.2-2.7-131.6 21.3-567.8 461.6-1020.9 1012.2-1073.2 213.2-216.9 513.6-346.8 841.5-334.5 324.5 12.2 611.4 161.3 807.6 389.5 580 62.5 1020.9 564.3 998.6 1156.1-1.7 44.4-6 88.1-12.7 131-3 19.7-6.6 39.1-10.7 58.5 50.8 37.5 83.9 113.7 80.6 200.2" fill="#ebbb99"/>
  </g>
  <g transform="matrix(.075667 0 0 -.075667 -1182.4 772.01)">
   <path d="m16285 14611c14.6-387.4-287.6-713.2-674.9-727.8-387.3-14.5-713.1 287.6-727.7 674.9-14.6 387.4 287.6 713.2 674.9 727.8 387.3 14.5 713.1-287.6 727.7-674.9" fill="#665142"/>
  </g>
  <g transform="matrix(.075204 0 0 -.075204 -1182.4 772.01)">
   <path d="m16287 14697c-12.7 335.5-294.9 597.2-630.4 584.6-335.5-12.7-597.2-294.9-584.6-630.4s294.9-597.2 630.4-584.6 597.2 294.9 584.6 630.4" fill="#3b2515"/>
  </g>
  <g transform="matrix(.074988 0 0 -.074988 -1182.4 772.01)">
   <path d="m16299 14738c-11.9 317-278.6 564.3-595.6 552.3-23.1-0.8-45.8-3.1-68-6.6l662.1-614.1c1.9 22.5 2.4 45.3 1.5 68.4" fill="#86bcc2"/>
  </g>
  <g transform="matrix(.073598 0 0 -.073598 -1182.4 772.01)">
   <path d="m15437 14972c12.2-323 283.9-575 606.9-562.8 92.6 3.5 179.4 28.3 255.8 69.6l-812.5 753.5c-35.4-79.3-53.7-167.7-50.2-260.3" fill="#86bcc2"/>
  </g>
  <g transform="matrix(.074977 0 0 -.074977 -1182.4 772.01)">
   <path d="m16300 14672-662.3 614.2c-195.9-30.7-357.5-159.7-435.1-333.5l797.6-739.6c167.4 90.4 283.9 261.3 299.8 458.9" fill="#9cdae0"/>
  </g>
  <g transform="matrix(.06893 0 0 -.06893 -1182.4 772.01)">
   <path d="m15963 16023c5.9-154.7-64.9-283.1-158.1-286.6-93.1-3.5-173.4 119.1-179.2 273.9s65 283.1 158.1 286.6c93.2 3.5 173.4-119.1 179.2-273.9" fill="#2c2733"/>
  </g>
  <g transform="matrix(.068685 0 0 -.068685 -1182.4 772.01)">
   <path d="m15943 16201c-20-36-71.2 2.8-103.4-12-6.2-2.2-12.4-5.5-18.6-10.4-5.6-3.8-10.9-8.4-15.7-13.7-16.9-18.2-26.8-38.2-32.5-59.2-1.7-6.3-3-12.7-4-19.2-0.3-1.4-0.7-2.8-1.2-4.1-13.6-33.3 0.3-77-4.6-111.6-2.9-20.2-30.9-22.6-37.6-3.4-10.7 30.2-14 62-14.5 93.2 0 6.2 0.1 12.5 0.4 18.7 0.4 12.3 1.3 24.6 2.3 36.9 0 0.5 0.1 1 0.1 1.4 1 6.8 2 13.6 3.3 20.1 2.4 13.6 5.5 26.4 8.8 38.2 1.8 7 3.9 13.8 6.2 20.6 18.3 53.7 51.1 99.2 112.9 103.2 0.8 0.1 1.5 0.1 2.3 0.1 6.5-0.1 12.9-0.9 19.1-2.4 0.9-0.2 1.8-0.5 2.7-0.8 40.5-14.5 68.8-45.1 76.7-91.7-0.8-1.1-1.7-2.4-2.7-3.9" fill="#807194"/>
  </g>
  <g transform="matrix(.072051 0 0 -.072051 -1182.4 772.01)">
   <path d="m13965 16294c-168.1-6.4-299.2-147.8-292.9-315.8l11.4-303.3c9.3-245.5 290.5-379.6 487-232.2 80 59.9 125.5 155.3 121.7 255.1l-11.4 303.3c-6.4 168.1-147.7 299.2-315.8 292.9" fill="#ebebeb"/>
  </g>
  <g transform="matrix(.078182 0 0 -.078182 -1182.4 772.01)">
   <path d="m15995 15134c-154.9-5.9-275.8-136.2-269.9-291.1l10.5-279.5c8.5-226.2 267.7-349.8 448.8-214 73.7 55.3 115.6 143.2 112.1 235.2l-10.5 279.5c-5.8 154.9-136.1 275.7-291 269.9" fill="#ebebeb"/>
  </g>
  <g transform="matrix(.070975 0 0 -.070975 -1182.4 772.01)">
   <path d="m16115 14963c5-5.3 9.9-10.9 14.5-16.7 91.2-114.3 80.2-274.7-24.5-358.3-104.8-83.5-263.6-58.5-354.8 55.8-4.6 5.8-9 11.8-13.1 17.9 8.3-38.2 25.2-75.1 51.1-107.6 91.2-114.3 259.2-132 375.3-39.4 116 92.5 136.2 260.2 45 374.6-25.9 32.5-58.1 57.2-93.5 73.7" fill="#ad7d5d"/>
  </g>
  <g transform="matrix(.070455 0 0 -.070455 -1182.4 772.01)">
   <path d="m15896 16227c11.3-64.2-221.2-159-519.3-211.8s-549.1-43.6-560.4 20.6c-11.4 64.1 221.1 159 519.2 211.8 298.2 52.8 549.1 43.6 560.5-20.6" fill="#ebebeb"/>
  </g>
  <g transform="matrix(.072001 0 0 -.072001 -1182.4 772.01)">
   <path d="m16254 14290c45.5-199.2-54.1-406.2-224.1-465.9l-56-19.7c-139-48.8-287-46.3-423.7 7.2-185.3 72.6-342.6 218.5-444.7 412.7l-118.6 225.4 97.1-98.5c61.1-62 130.3-112.2 205-148.7 159.6-78.1 334-106.9 506.8-83.8l63.6 8.5c27.4 3.6 54.4 10.5 80.7 20.4l313.9 142.4" fill="#fff"/>
  </g>
  <g transform="matrix(.067665 0 0 -.067665 -1182.4 772.01)">
   <path d="m15798 15074c-21.1 63-54 157.6-1.4 214.1 49.5 53.2 143.4 44.5 209.3 53.5 73.3 10.1 147.4 31.4 204.2 81.1 66.5 58.1 80 144.3 86.2 227.7 3.8 49.8-73.8 49.6-77.5 0-3.3-43.9-6.8-91.1-28.7-130.5-16.9-30.3-43-51.8-73.6-67.5-65.4-33.8-139.6-35.1-211-43.7-77.8-9.4-159-34.5-195-111.1-36.3-77.5-13.1-167.2 12.7-244.2 15.8-47.1 90.7-26.9 74.8 20.6" fill="#c48e6a"/>
  </g>
  <g transform="matrix(.062569 0 0 -.062569 -1182.4 772.01)">
   <path d="m16273 13960c21.8 181.2 26.6 363.6 21.4 545.9-2.8 99-8.3 197.8-15 296.5-5.5 81.1-9.7 162.8-18.6 243.6-17.7 107.6-47.9 212.2-80.7 316-195.9-93.4-392.1-186.3-589.6-276-54.3-58.8-107.8-118.3-160.6-178.5-152.4-203.8-284.5-422.3-404.3-646.7-37.3-71.6-73.5-143.8-108.7-216.5-137.3-283.4-260-573.5-384.6-862.6-9.2-21.5-20-41.1-32.5-59.1-104.4-264.8-213.2-527.7-314.3-793.8-106.9-281.3-209-564.4-308-848.6-62.6-179.3-123.9-359.1-184.6-539.1-38.2-69.2-62.5-143.3-73.4-218.7-5.6-16.6-11.2-33.2-16.7-49.8 3.1-12.6 6.5-25.1 10.1-37.7-1.5-193.8 83.9-386.1 248.5-514.5l414.7-323.51c281.2-219.32 686.9-169.17 906.2 112l76 97.31c219.3 281.2 169.2 686.9-112 906.3l-47.9 37.3c1 11.8 2.1 23.7 3.6 35.6 8.6 70.7 17.3 142.5 37.8 211 14.4 48 29.6 95.9 44.6 143.7 30.3 96.1 61.9 191.9 97.2 286.4 11.2 30.2 22.9 60.1 34.9 89.8 17.2 82.8 38.5 164.7 65.8 245.5 17.5 51.5 36.7 102.6 57.5 153.1 32.4 106.6 72.9 210.9 117.6 314.3 130 301.4 312.3 576 464.9 865.8 35.8 68 69.5 137 107.9 203.6 26.4 45.6 55 89.2 85.3 131.7 19.9 109.8 41.2 219.3 57.5 329.7" fill="#202224"/>
  </g>
  <g transform="matrix(.059571 0 0 -.059571 -1182.4 772.01)">
   <path d="m15225 11240 176.7 102.1c229.4 132.4 522.6 53.8 655.1-175.6l122.5-212.2c121.1-209.7 49.2-477.9-160.5-599l-247.8-143.1c-209.7-121.1-477.9-49.2-599 160.5l-122.5 212.3c-132.5 229.3-53.9 522.6 175.5 655" fill="#262626"/>
  </g>
  <g transform="matrix(.059626 0 0 -.059626 -1182.4 772.01)">
   <path d="m15342 10277-160.6 346.3c-70.1 151.1-4.4 330.4 146.7 400.5l339.5 157.5c151.1 70.1 330.5 4.4 400.6-146.7l160.6-346.3c71.6-154.4 4.5-337.6-149.9-409.3l-327.6-151.9c-154.4-71.6-337.6-4.5-409.3 149.9" fill="#d1d1d1"/>
  </g>
  <g transform="matrix(.05468 0 0 -.05468 -1182.4 772.01)">
   <path d="m16286 11508c13.7-63.8 0.5-120.7-29.4-127.2-30-6.5-65.5 40-79.2 103.7-13.8 63.8-0.6 120.7 29.4 127.2 29.9 6.4 65.4-40 79.2-103.7" fill="#d1cc77"/>
  </g>
  <g transform="matrix(.053944 0 0 -.053944 -1182.4 772.01)">
   <path d="m16290 11783c9.5-44.2 0.4-83.7-20.4-88.2s-45.4 27.7-54.9 71.9c-9.6 44.3-0.4 83.7 20.4 88.2 20.7 4.5 45.3-27.7 54.9-71.9" fill="#d1cc77"/>
  </g>
  <g transform="matrix(.061419 0 0 -.061419 -1182.4 772.01)">
   <path d="m15891 9909.6c57.4-31.05 126.6-14.3 154.5 37.4l26 48c28 51.67 4.2 118.77-53.2 149.87l-157.1 85 36.4 69.8c56.4 13.6 96.4 46.7 128.3 87.4 6.9 8.8 13.4 17.9 19.8 27.2 11.7 18.2 22.8 36.8 33.7 55.8 5.5 9.5 10.9 19.1 16.2 28.7 46.8 92.5 97.6 186.3 148.5 278.4 5.6 10.3 9 16.7 9 16.7 46.5 85.9 6.9 197.3-88.4 248.9-25.6 13.9-52.6 21.9-79.3 24.7l-1.5 0.9c-95.3 51.6-210.3 23.7-256.8-62.2l-90.3-166.8c-23.6 28.9-53.6 54.2-89.2 73.5-19.5 10.5-39.5 18.5-59.7 24.4-2.6 0.7-5.2 1.4-7.8 2.1-2.7 0.7-5.5 1.4-8.2 2.1-1.1 0.2-2.2 0.4-3.3 0.7-22.4 4.9-44.9 7.2-67 6.8l-34.7 18.8c-98.6 53.4-217.5 24.6-265.6-64.3l-436.4-806.3c-48.1-88.9-7.1-204.15 91.5-257.51l613.8-332.21 192-103.87c38.1-20.64 84.1-9.5 102.7 24.87l31.1 57.42c18.6 34.38 2.8 78.98-35.4 99.63l-191.9 103.87 23 42.57 167-90.38c51.9-28.09 114.5-12.94 139.9 33.85l28.7 53.08c25.3 46.8 3.8 107.51-48.2 135.6l-167 90.38 21.8 40.16 157.1-85.03" fill="#ebbb99"/>
  </g>
  <g transform="matrix(.059848 0 0 -.059848 -1182.4 772.01)">
   <path d="m16040 10680c5.4 1.2 10.8 2.6 16.1 4.2 145.2 42.8 216.5 190.6 159.1 329.9-16.3 39.7-41.3 74.4-72 102.7 3.4-6.8 6.7-13.7 9.6-20.8 57.3-139.4-2.4-283.7-133.5-322.4-61.1-18.1-127-9.9-185.7 18.1l-26.8 14.5c-55.5 33.6-102.1 85.5-128.6 149.7-2.9 7.1-5.4 14.2-7.8 21.3-3.2-38.4 2.7-78.7 19-118.3 44.1-107.2 151.4-178.2 264.7-185.7l323.4-175 22.3 41.2-259.8 140.6" fill="#ad7d5d"/>
  </g>
  <g transform="matrix(.059287 0 0 -.059287 -1182.4 772.01)">
   <path d="m15724 10612 553.9-299.8 22.5 41.6-553.9 299.8-22.5-41.6" fill="#ad7d5d"/>
  </g>
  <g transform="matrix(.058751 0 0 -.058751 -1182.4 772.01)">
   <path d="m15718 10434 559-302.5 22.7 42-558.9 302.5-22.8-42" fill="#ad7d5d"/>
  </g>
  <g transform="matrix(.05994 0 0 -.05994 -1182.4 772.01)">
   <path d="m16299 10630-71.1-131.4 71.7 129.8-0.6 1.6" fill="#c27744"/>
  </g>
  <g transform="matrix(.059192 0 0 -.059192 -1182.4 772.01)">
   <path d="m16300 10385-312.5 169.1-22.2-41 312.5-169.1 22.2 41" fill="#87532f"/>
  </g>
  <g transform="matrix(.058655 0 0 -.058655 -1182.4 772.01)">
   <path d="m16300 10204-315.4 170.7-22.3-41.3 315.3-170.7 22.4 41.3" fill="#87532f"/>
  </g>
  <g transform="matrix(.06199 0 0 -.06199 -1182.4 772.01)">
   <path d="m15637 10626 123.4-347.4 539.4 996.7-298.4 161.5-393.8-727.8c14.9-26.1 24.9-54.3 29.4-83" fill="#c27744"/>
  </g>
  <g transform="matrix(.059938 0 0 -.059938 -1182.4 772.01)">
   <path d="m16172 10990c7.6-47.7 0.7-96.7-23.2-140.8-38.6-71.4-112.6-112.9-193.7-117.8l-35.2-65.1 308.6-167 71.1 131.4-127.6 359.3" fill="#87532f"/>
  </g>
  <g transform="matrix(.057561 0 0 -.057561 -1182.4 772.01)">
   <path d="m16020 10076 280.1-151.65-141 408.65-139.1-257" fill="#c27744"/>
  </g>
  <g transform="matrix(.058198 0 0 -.058198 -1182.4 772.01)">
   <path d="m15982 10220 139.5-404.13 40.7-22.06 137.6 254.19-317.8 172" fill="#87532f"/>
  </g>
  <g transform="matrix(.066217 0 0 -.066217 -1182.4 772.01)">
   <path d="m16118 10444c-182.1-336.5-555.2-487.32-833.3-336.8-278.1 150.5-355.9 545.3-173.8 881.8s555.2 487.3 833.3 336.8 355.9-545.3 173.8-881.8" fill="#d48b59"/>
  </g>
  <g transform="matrix(.065494 0 0 -.065494 -1182.4 772.01)">
   <path d="m16038 11330c-18.4 14.7-38.1 27.6-58.5 39.5-61.8 35.8-221.7 128.1-223.2 124.9l85.6-58.5c222.6-152.1 353.4-448.6 237.6-662.6l-108.9-201.1c-104.1-192.5-337.7-279.8-565.4-219.7-2.1-4.7-4.2-9.4-6.4-14.1l-1.8-3.3 52.6-20.9c247.5-98.3 518-13.7 632.4 197.7l108.9 201.2c109.6 202.5 43.3 460.9-152.9 616.9" fill="#7a4b2b"/>
  </g>
  <g transform="matrix(.065048 0 0 -.065048 -1182.4 772.01)">
   <path d="m16074 10634 109.6 202.5c116.6 215.5 35.4 493.7-188.7 646.9l-544 371.6-702.2-1146.6 688.5-273.5c249.2-98.9 521.6-13.8 636.8 199.1" fill="#ad6a3d"/>
  </g>
  <g transform="matrix(.063496 0 0 -.063496 -1182.4 772.01)">
   <path d="m16065 11289c-234.9-433.9-748.5-610.8-1147.2-395-398.8 215.8-531.6 742.5-296.8 1176.4 234.9 434 748.5 610.8 1147.2 395 398.7-215.7 531.6-742.5 296.8-1176.4" fill="#d48b59"/>
  </g>
  <g transform="matrix(.062707 0 0 -.062707 -1182.4 772.01)">
   <path d="m16099 11541c-201-371.2-640.4-522.6-981.6-337.9-341.2 184.6-454.9 635.3-253.9 1006.6 200.9 371.3 640.4 522.6 981.5 337.9 341.2-184.6 454.9-635.3 254-1006.6" fill="#7a4b2b"/>
  </g>
  <g transform="matrix(.090048 0 0 -.090048 -1182.4 772.01)">
   <path d="m16167 9787c-20.8 123.66-71.6 233.65-143.2 323.15-32.9 67.3-74 130.6-122.7 187.8-73.7 146.9-197.6 266.2-357.5 326.4l-1064.6 400.4c-33 15.4-65.9 30.7-99 45.8-38.5 9-77.5 16.2-116.2 24.2-0.4-2.9-0.9-5.8-1.7-8.7-5.7-20.5-10.7-41.2-14.8-62.2-1.8-9.1-3.4-18.3-4.9-27.6-0.2-1-1.4-9.6-1.8-12.4-0.2-2-0.5-4.5-0.5-4.4-4.2-38.8-6-77.7-5.1-116.7 0.8-33.7 3.4-67.4 7.7-100.9 0.1-1.3 0.4-2.9 0.6-4.1 0.6-4.5 1.3-9 2-13.5 1.3-8 2.6-15.9 4-23.7 2.9-15.8 6-31.6 9.4-47.3 14.8-67.9 34.7-134.7 57.1-200.5 14.1-41.2 29.3-82.1 44.9-122.7 44.1-78.3 91.8-154.3 143.6-227.1 3.6-5 6.7-9.5 9.8-13.7l573.8-215.79 103.8-55.04 170.7-1018.2 937.3 115.51-132.7 851.24" fill="#202224"/>
  </g>
  <g transform="matrix(.090422 0 0 -.090422 -1182.4 772.01)">
   <path d="m16292 8333.5-1260.6 18.28 4.8 327.39c3.3 228.48 191.2 411.02 419.7 407.7l433.2-6.28c228.5-3.31 411-191.22 407.7-419.7l-4.8-327.39" fill="#262626"/>
  </g>
  <g transform="matrix(.089748 0 0 -.089748 -1182.4 772.01)">
   <path d="m15266 8416.7 4.7 326.94c2.4 165.08 138.2 296.96 303.2 294.56l429.4-6.22c165.1-2.4 297-138.16 294.6-303.23l-4.7-326.94-1027.2 14.89" fill="#d1d1d1"/>
  </g>
  <g transform="matrix(.089064 0 0 -.089064 -1182.4 772.01)">
   <path d="m16182 8993.9-596.2 8.64c-65.7 0.96-119.8-51.53-120.7-117.24l-2.6-174.98-133.4 1.93c-63.6 0.92-115.8-49.82-116.7-113.35-0.9-63.52 49.8-115.76 113.3-116.68l133.5-1.94v-4.08l834.1-12.1 5.9 409.11c1 65.7-51.5 119.74-117.2 120.69" fill="#ebbb99"/>
  </g>
  <g transform="matrix(.086136 0 0 -.086136 -1182.4 772.01)">
   <path d="m16295 8759.8-30.7 0.44 5.3 368.44 30.7-0.45-5.3-368.43" fill="#ad7d5d"/>
  </g>
  <g transform="matrix(.087249 0 0 -.087249 -1182.4 772.01)">
   <path d="m16295 8645.1-30.3 0.44 5.3 363.74 30.3-0.44-5.3-363.74" fill="#ad7d5d"/>
  </g>
  <g transform="matrix(.08831 0 0 -.08831 -1182.4 772.01)">
   <path d="m16295 8538.4-30 0.44 5.2 359.36 30-0.43-5.2-359.37" fill="#ad7d5d"/>
  </g>
  <g transform="matrix(.085447 0 0 -.085447 -1182.4 772.01)">
   <path d="m16261 9047c-18 3.95-35.4 8.89-53.1 16.04-2.4 0.1-4.7 0.19-7 0.39-7.3 0.61-14.5 1.52-21.5 2.78-5.1-0.49-10.2-0.99-15.3-1.4 10.4-1.99 20.7-4.43 30.8-6.78 35.7-8.39 62.5-26.12 73.8-62.82 11.2-36.21 7.4-77.91-19.4-106.49-9.1-9.79-21.3-17.48-34.7-23.07-23.8-14.23-50.2-22.46-78.1-26.77 1.6-2.05 4-3.58 7.2-3.96 40.2-4.87 91.8 9.22 120.1 39.32 28.4 30.17 36.3 72.86 28.2 112.64-4.9 23.85-15.3 44.41-31 60.12" fill="#ad7d5d"/>
  </g>
 </g>
</svg>
