<svg width="198" height="48" viewBox="0 0 198 48" fill="none" xmlns="http://www.w3.org/2000/svg"><path d="M21.0296 11.36v5.54h-3V14H8.14961v2.9h-3l.02-5.54h.56c.84-.0267 1.43334-.64 1.78-1.84.34667-1.2.56-2.91333.64-5.14l.16-4.38H19.0696v11.36h1.96zm-10.02-6.68c-.0667 1.66667-.2067 3.06667-.42 4.2-.2133 1.12-.54 1.9467-.97999 2.48h6.25999V2.64h-4.8l-.06 2.04zM27.874 14.16c-1.1333 0-2.1533-.2333-3.06-.7-.8933-.48-1.5933-1.14-2.1-1.98-.5067-.84-.76-1.79333-.76-2.86 0-1.06667.2533-2.02.76-2.86.5067-.84 1.2067-1.49333 2.1-1.96.9067-.48 1.9267-.72 3.06-.72s2.1467.24 3.04.72c.8933.46667 1.5933 1.12 2.1 1.96.5067.84.76 1.79333.76 2.86 0 1.06667-.2533 2.02-.76 2.86-.5067.84-1.2067 1.5-2.1 1.98-.8933.4667-1.9067.7-3.04.7zm0-2.56c.8 0 1.4533-.2667 1.96-.8.52-.5467.78-1.27333.78-2.18 0-.90667-.26-1.62667-.78-2.16-.5067-.54667-1.16-.82-1.96-.82s-1.46.27333-1.98.82c-.52.53333-.78 1.25333-.78 2.16 0 .90667.26 1.6333.78 2.18.52.5333 1.18.8 1.98.8zM49.804 8.38c1.2667.42667 1.9 1.28 1.9 2.56 0 .9733-.3667 1.7267-1.1 2.26-.7333.5333-1.8267.8-3.28.8h-5.74V3.24h5.5c1.3467 0 2.4.24667 3.16.74.76.48 1.14 1.16 1.14 2.04 0 .53333-.14 1.00667-.42 1.42-.2667.4-.6533.71333-1.16.94zm-5.36-.72h2.36c1.0933 0 1.64-.38667 1.64-1.16 0-.76-.5467-1.14-1.64-1.14h-2.36v2.3zm2.62 4.22c1.1467 0 1.72-.3933 1.72-1.18 0-.4133-.1333-.71333-.4-.9-.2667-.2-.6867-.3-1.26-.3h-2.68v2.38h2.62zM64.3454 3.24V14h-3.12V5.8h-3.4l-.1 1.9c-.0533 1.41333-.1867 2.5867-.4 3.52-.2133.9333-.56 1.6667-1.04 2.2-.48.5333-1.1467.8-2 .8-.4533 0-.9933-.08-1.62-.24l.16-2.56c.2133.0267.3667.04.46.04.4667 0 .8133-.1667 1.04-.5.24-.3467.4-.78.48-1.3.08-.53333.14-1.23333.18-2.1l.16-4.32h9.2zM71.5257 3.08c1.6667 0 2.9467.4 3.84 1.2.8933.78667 1.34 1.98 1.34 3.58V14h-2.92v-1.34c-.5867 1-1.68 1.5-3.28 1.5-.8267 0-1.5467-.14-2.16-.42-.6-.28-1.06-.6667-1.38-1.16-.32-.4933-.48-1.0533-.48-1.68 0-1 .3733-1.78666 1.12-2.36.76-.57333 1.9267-.86 3.5-.86h2.48c0-.68-.2067-1.2-.62-1.56-.4133-.37333-1.0333-.56-1.86-.56-.5733 0-1.14.09333-1.7.28-.5467.17333-1.0133.41333-1.4.72l-1.12-2.18c.5867-.41333 1.2867-.73333 2.1-.96.8267-.22667 1.6733-.34 2.54-.34zm-.24 8.98c.5333 0 1.0067-.12 1.42-.36.4133-.2533.7067-.62.88-1.1V9.5h-2.14c-1.28 0-1.92.42-1.92 1.26 0 .4.1533.72.46.96.32.2267.7533.34 1.3.34zM84.536 14.16c-1.1466 0-2.18-.2333-3.1-.7-.9066-.48-1.62-1.14-2.14-1.98-.5066-.84-.76-1.79333-.76-2.86 0-1.06667.2534-2.02.76-2.86.52-.84 1.2334-1.49333 2.14-1.96.92-.48 1.9534-.72 3.1-.72 1.1334 0 2.12.24 2.96.72.8534.46667 1.4734 1.14 1.86 2.02l-2.42 1.3c-.56-.98667-1.3666-1.48-2.42-1.48-.8133 0-1.4866.26667-2.02.8-.5333.53333-.8 1.26-.8 2.18 0 .92.2667 1.6467.8 2.18.5334.5333 1.2067.8 2.02.8 1.0667 0 1.8734-.4933 2.42-1.48l2.42 1.32c-.3866.8533-1.0066 1.52-1.86 2-.84.48-1.8266.72-2.96.72zM91.252 3.24h3.1v4.2h4.68v-4.2h3.12V14h-3.12V9.98h-4.68V14h-3.1V3.24zM110.179 14.16c-1.134 0-2.154-.2333-3.06-.7-.894-.48-1.594-1.14-2.1-1.98-.507-.84-.76-1.79333-.76-2.86 0-1.06667.253-2.02.76-2.86.506-.84 1.206-1.49333 2.1-1.96.906-.48 1.926-.72 3.06-.72 1.133 0 2.146.24 3.04.72.893.46667 1.593 1.12 2.1 1.96.506.84.76 1.79333.76 2.86 0 1.06667-.254 2.02-.76 2.86-.507.84-1.207 1.5-2.1 1.98-.894.4667-1.907.7-3.04.7zm0-2.56c.8 0 1.453-.2667 1.96-.8.52-.5467.78-1.27333.78-2.18 0-.90667-.26-1.62667-.78-2.16-.507-.54667-1.16-.82-1.96-.82s-1.46.27333-1.98.82c-.52.53333-.78 1.25333-.78 2.16 0 .90667.26 1.6333.78 2.18.52.5333 1.18.8 1.98.8zM126.845 5.8h-5.52V14h-3.1V3.24h8.62V5.8zM133.089 14.16c-1.134 0-2.154-.2333-3.06-.7-.894-.48-1.593-1.14-2.1-1.98-.507-.84-.76-1.79333-.76-2.86 0-1.06667.253-2.02.76-2.86.507-.84 1.206-1.49333 2.1-1.96.906-.48 1.926-.72 3.06-.72 1.133 0 2.146.24 3.04.72.893.46667 1.593 1.12 2.1 1.96.507.84.76 1.79333.76 2.86 0 1.06667-.253 2.02-.76 2.86-.507.84-1.207 1.5-2.1 1.98-.894.4667-1.907.7-3.04.7zm0-2.56c.8 0 1.453-.2667 1.96-.8.52-.5467.78-1.27333.78-2.18 0-.90667-.26-1.62667-.78-2.16-.507-.54667-1.16-.82-1.96-.82s-1.46.27333-1.98.82c-.52.53333-.78 1.25333-.78 2.16 0 .90667.26 1.6333.78 2.18.52.5333 1.18.8 1.98.8zM150.979 3.08c1.666 0 2.946.4 3.84 1.2.893.78667 1.34 1.98 1.34 3.58V14h-2.92v-1.34c-.587 1-1.68 1.5-3.28 1.5-.827 0-1.547-.14-2.16-.42-.6-.28-1.06-.6667-1.38-1.16-.32-.4933-.48-1.0533-.48-1.68 0-1 .373-1.78666 1.12-2.36.76-.57333 1.926-.86 3.5-.86h2.48c0-.68-.207-1.2-.62-1.56-.414-.37333-1.034-.56-1.86-.56-.574 0-1.14.09333-1.7.28-.547.17333-1.014.41333-1.4.72l-1.12-2.18c.586-.41333 1.286-.73333 2.1-.96.826-.22667 1.673-.34 2.54-.34zm-.24 8.98c.533 0 1.006-.12 1.42-.36.413-.2533.707-.62.88-1.1V9.5h-2.14c-1.28 0-1.92.42-1.92 1.26 0 .4.153.72.46.96.32.2267.753.34 1.3.34zM167.089 8.38c1.267.42667 1.9 1.28 1.9 2.56 0 .9733-.367 1.7267-1.1 2.26-.733.5333-1.827.8-3.28.8h-5.74V3.24h5.5c1.347 0 2.4.24667 3.16.74.76.48 1.14 1.16 1.14 2.04 0 .53333-.14 1.00667-.42 1.42-.267.4-.653.71333-1.16.94zm-5.36-.72h2.36c1.093 0 1.64-.38667 1.64-1.16 0-.76-.547-1.14-1.64-1.14h-2.36v2.3zm2.62 4.22c1.147 0 1.72-.3933 1.72-1.18 0-.4133-.133-.71333-.4-.9-.267-.2-.687-.3-1.26-.3h-2.68v2.38h2.62zM180.351 5.8h-3.64V14h-3.1V5.8h-3.64V3.24h10.38V5.8zM186.604 14.16c-1.133 0-2.153-.2333-3.06-.7-.893-.48-1.593-1.14-2.1-1.98-.506-.84-.76-1.79333-.76-2.86 0-1.06667.254-2.02.76-2.86.507-.84 1.207-1.49333 2.1-1.96.907-.48 1.927-.72 3.06-.72 1.134 0 2.147.24 3.04.72.894.46667 1.594 1.12 2.1 1.96.507.84.76 1.79333.76 2.86 0 1.06667-.253 2.02-.76 2.86-.506.84-1.206 1.5-2.1 1.98-.893.4667-1.906.7-3.04.7zm0-2.56c.8 0 1.454-.2667 1.96-.8.52-.5467.78-1.27333.78-2.18 0-.90667-.26-1.62667-.78-2.16-.506-.54667-1.16-.82-1.96-.82s-1.46.27333-1.98.82c-.52.53333-.78 1.25333-.78 2.16 0 .90667.26 1.6333.78 2.18.52.5333 1.18.8 1.98.8zM8.17336 38.4c.64.2 1.13334.5067 1.48001.92.36003.4133.54003.9067.54003 1.48 0 .68-.23337 1.28-.70004 1.8-.46666.5067-1.10666.9-1.92 1.18-.81333.28-1.73333.42-2.76.42-.84 0-1.66666-.0867-2.48-.26-.81333-.1733-1.566662-.4333-2.2599957-.78l.8399997-2.18c1.133336.5467 2.386666.82 3.759996.82.73334 0 1.30667-.1067 1.72-.32.42667-.2267.64-.54.64-.94 0-.3467-.14666-.6067-.44-.78-.29333-.1867-.72-.28-1.28-.28h-2.2v-1.94h1.92c.54667 0 .96667-.0867 1.26-.26.29334-.1733.44-.4267.44-.76 0-.3467-.18666-.6133-.56-.8-.36-.1867-.88-.28-1.56-.28-1.04 0-2.17333.2467-3.4.74l-.759996-2.16c1.493336-.6533 2.946666-.98 4.359996-.98.97334 0 1.84.12 2.6.36.77334.24 1.38001.5933 1.82001 1.06.44.4533.65999.9867.65999 1.6 0 .5067-.15333.9667-.46 1.38-.30666.4-.72666.72-1.26.96zM16.6429 33.08c1.6667 0 2.9467.4 3.84 1.2.8933.7867 1.34 1.98 1.34 3.58V44h-2.92v-1.34c-.5867 1-1.68 1.5-3.28 1.5-.8267 0-1.5467-.14-2.16-.42-.6-.28-1.06-.6667-1.38-1.16-.32-.4933-.48-1.0533-.48-1.68 0-1 .3733-1.7867 1.12-2.36.76-.5733 1.9267-.86 3.5-.86h2.48c0-.68-.2067-1.2-.62-1.56-.4133-.3733-1.0333-.56-1.86-.56-.5733 0-1.14.0933-1.7.28-.5467.1733-1.0133.4133-1.4.72l-1.12-2.18c.5867-.4133 1.2867-.7333 2.1-.96.8267-.2267 1.6733-.34 2.54-.34zm-.24 8.98c.5333 0 1.0067-.12 1.42-.36.4133-.2533.7067-.62.88-1.1v-1.1h-2.14c-1.28 0-1.92.42-1.92 1.26 0 .4.1533.72.46.96.32.2267.7533.34 1.3.34zM34.8532 33.24V44h-3.12v-8.2h-3.4l-.1 1.9c-.0533 1.4133-.1867 2.5867-.4 3.52-.2133.9333-.56 1.6667-1.04 2.2-.48.5333-1.1467.8-2 .8-.4533 0-.9933-.08-1.62-.24l.16-2.56c.2133.0267.3667.04.46.04.4667 0 .8133-.1667 1.04-.5.24-.3467.4-.78.48-1.3.08-.5333.14-1.2333.18-2.1l.16-4.32h9.2zM37.8535 33.24h3.1v6.4l5.24-6.4h2.86V44h-3.1v-6.4l-5.22 6.4h-2.88V33.24zM68.4727 33.24V44h-16.42V33.24h3.1v8.2h3.58v-8.2h3.1v8.2h3.54v-8.2h3.1zM71.4668 33.24h3.1v6.4l5.24-6.4h2.86V44h-3.1v-6.4l-5.22 6.4h-2.88V33.24zM93.886 38.38c1.2667.4267 1.9 1.28 1.9 2.56 0 .9733-.3666 1.7267-1.1 2.26-.7333.5333-1.8266.8-3.28.8h-5.74V33.24h5.5c1.3467 0 2.4.2467 3.16.74.76.48 1.14 1.16 1.14 2.04 0 .5333-.14 1.0067-.42 1.42-.2666.4-.6533.7133-1.16.94zm-5.36-.72h2.36c1.0934 0 1.64-.3867 1.64-1.16 0-.76-.5466-1.14-1.64-1.14h-2.36v2.3zm2.62 4.22c1.1467 0 1.72-.3933 1.72-1.18 0-.4133-.1333-.7133-.4-.9-.2666-.2-.6866-.3-1.26-.3h-2.68v2.38h2.62zM103.227 44.16c-1.146 0-2.18-.2333-3.1-.7-.9062-.48-1.6196-1.14-2.1396-1.98-.5066-.84-.76-1.7933-.76-2.86s.2534-2.02.76-2.86c.52-.84 1.2334-1.4933 2.1396-1.96.92-.48 1.954-.72 3.1-.72 1.134 0 2.12.24 2.96.72.854.4667 1.474 1.14 1.86 2.02l-2.42 1.3c-.56-.9867-1.366-1.48-2.42-1.48-.813 0-1.486.2667-2.02.8-.533.5333-.8 1.26-.8 2.18 0 .92.267 1.6467.8 2.18.534.5333 1.207.8 2.02.8 1.067 0 1.874-.4933 2.42-1.48l2.42 1.32c-.386.8533-1.006 1.52-1.86 2-.84.48-1.826.72-2.96.72zM119.23 33.24V44h-2.78v-3.08h-2.3L112.11 44h-3.32l2.46-3.52c-.747-.2933-1.32-.7133-1.72-1.26-.387-.56-.58-1.2333-.58-2.02 0-1.2667.453-2.24 1.36-2.92.92-.6933 2.18-1.04 3.78-1.04h5.14zm-5.08 2.54c-.667 0-1.173.12-1.52.36-.333.24-.5.6267-.5 1.16 0 .5333.16.9267.48 1.18.333.24.833.36 1.5.36h2.34v-3.06h-2.3zM132.573 30v14h-3.24V32.6h-2.8V30h6.04zM146.129 39.92h-1.62V44h-3.12V33.24h3.12v4.18h1.68l2.92-4.18h3.32l-3.76 5.16 4.02 5.6h-3.68l-2.88-4.08zM160.561 33.08c1 0 1.906.2333 2.72.7.826.4533 1.473 1.1 1.94 1.94.466.8267.7 1.7933.7 2.9s-.234 2.08-.7 2.92c-.467.8267-1.114 1.4733-1.94 1.94-.814.4533-1.72.68-2.72.68-1.374 0-2.454-.4333-3.24-1.3v5.02h-3.12V33.24h2.98v1.24c.773-.9333 1.9-1.4 3.38-1.4zm-.54 8.52c.8 0 1.453-.2667 1.96-.8.52-.5467.78-1.2733.78-2.18 0-.9067-.26-1.6267-.78-2.16-.507-.5467-1.16-.82-1.96-.82s-1.46.2733-1.98.82c-.507.5333-.76 1.2533-.76 2.16 0 .9067.253 1.6333.76 2.18.52.5333 1.18.8 1.98.8zM173.147 44.16c-1.133 0-2.153-.2333-3.06-.7-.893-.48-1.593-1.14-2.1-1.98-.506-.84-.76-1.7933-.76-2.86s.254-2.02.76-2.86c.507-.84 1.207-1.4933 2.1-1.96.907-.48 1.927-.72 3.06-.72 1.134 0 2.147.24 3.04.72.894.4667 1.594 1.12 2.1 1.96.507.84.76 1.7933.76 2.86s-.253 2.02-.76 2.86c-.506.84-1.206 1.5-2.1 1.98-.893.4667-1.906.7-3.04.7zm0-2.56c.8 0 1.454-.2667 1.96-.8.52-.5467.78-1.2733.78-2.18 0-.9067-.26-1.6267-.78-2.16-.506-.5467-1.16-.82-1.96-.82s-1.46.2733-1.98.82c-.52.5333-.78 1.2533-.78 2.16 0 .9067.26 1.6333.78 2.18.52.5333 1.18.8 1.98.8zM185.933 39.92h-1.62V44h-3.12V33.24h3.12v4.18h1.68l2.92-4.18h3.32l-3.76 5.16 4.02 5.6h-3.68l-2.88-4.08zM193.565 30h3.72l-.62 9.14h-2.48l-.62-9.14zm1.86 14.16c-.546 0-1.006-.1733-1.38-.52-.36-.36-.54-.7933-.54-1.3s.18-.9267.54-1.26c.36-.3467.82-.52 1.38-.52.56 0 1.02.1733 1.38.52.36.3333.54.7533.54 1.26s-.186.94-.56 1.3c-.36.3467-.813.52-1.36.52z" fill="#fff"/></svg>