<svg width="282" height="20" viewBox="0 0 282 20" fill="none" xmlns="http://www.w3.org/2000/svg"><path d="M17.0966 8.98c0 1.8533-.6467 3.3067-1.94 4.36-1.2933 1.0533-3.12 1.62-5.48001 1.7v1.48h-1.86v-1.48c-2.36-.0933-4.19334-.6667-5.5-1.72C1.02325 12.2667.376587 10.82.376587 8.98c0-1.85333.646663-3.30667 1.940003-4.36 1.30666-1.05333 3.14-1.62667 5.5-1.72V1.48h1.86V2.9c2.34671.09333 4.16671.67333 5.46001 1.74 1.3067 1.05333 1.96 2.5 1.96 4.34zm-7.42001 4.5c1.78671-.1067 3.14671-.54 4.08001-1.3.9467-.7733 1.42-1.8467 1.42-3.22 0-1.34667-.48-2.4-1.44-3.16-.9467-.77333-2.3-1.21333-4.06001-1.32v9zm-7.36-4.5c0 1.36.47333 2.4267 1.42 3.2.96.76 2.32 1.1933 4.08 1.3v-9c-1.78667.10667-3.15334.54-4.1 1.3-.93334.76-1.4 1.82667-1.4 3.2zM19.8522 5.4h1.92V16h-1.92V5.4zm.96-2.04c-.3733 0-.6867-.12-.94-.36-.24-.24-.36-.53333-.36-.88 0-.34667.12-.64.36-.88.2533-.253333.5667-.379999.94-.379999.3733 0 .68.119999.92.359999.2533.22667.38.51333.38.86 0 .36-.1267.66667-.38.92-.24.24-.5467.36-.92.36zM25.5163 5.4h1.92v4.5h6.04V5.4h1.92V16h-1.92v-4.44h-6.04V16h-1.92V5.4zM42.9096 5.3c1.4666 0 2.5866.36 3.36 1.08.7866.72 1.18 1.79333 1.18 3.22V16h-1.82v-1.4c-.32.4933-.78.8733-1.38 1.14-.5867.2533-1.2867.38-2.1.38-1.1867 0-2.14-.2867-2.86-.86-.7067-.5733-1.06-1.3267-1.06-2.26 0-.9333.34-1.68 1.02-2.24.68-.5733 1.76-.86 3.24-.86h3.04v-.38c0-.82667-.24-1.46-.72-1.9-.48-.44-1.1867-.66-2.12-.66-.6267 0-1.24.10667-1.84.32-.6.2-1.1067.47333-1.52.82l-.8-1.44c.5466-.44 1.2-.77333 1.96-1 .76-.24 1.5666-.36 2.42-.36zm-.44 9.34c.7333 0 1.3666-.16 1.9-.48.5333-.3333.92-.8 1.16-1.4v-1.48h-2.96c-1.6267 0-2.44.5467-2.44 1.64 0 .5333.2066.9533.62 1.26.4133.3067.9866.46 1.72.46zM50.9069 5.4h1.92v4.5h6.04V5.4h1.92V16h-1.92v-4.44h-6.04V16h-1.92V5.4zM69.1402 16.12c-1.08 0-2.0467-.2333-2.9-.7-.84-.4667-1.5-1.1067-1.98-1.92-.48-.8267-.72-1.76-.72-2.8 0-1.04.24-1.96667.72-2.78.48-.82667 1.14-1.46667 1.98-1.92.8533-.46667 1.82-.7 2.9-.7.96 0 1.8133.19333 2.56.58.76.38667 1.3466.94667 1.76 1.68l-1.46.94c-.3334-.50667-.7467-.88667-1.24-1.14-.4934-.25333-1.04-.38-1.64-.38-.6934 0-1.32.15333-1.88.46-.5467.30667-.98.74667-1.3 1.32-.3067.56-.46 1.20667-.46 1.94 0 .7467.1533 1.4067.46 1.98.32.56.7533.9933 1.3 1.3.56.3067 1.1866.46 1.88.46.6 0 1.1466-.1267 1.64-.38.4933-.2533.9066-.6333 1.24-1.14l1.46.92c-.4134.7333-1 1.3-1.76 1.7-.7467.3867-1.6.58-2.56.58zM85.2692 5.4l-5.14 11.66c-.4533 1.08-.9866 1.84-1.6 2.28-.6.44-1.3266.66-2.18.66-.52 0-1.0266-.0867-1.52-.26-.48-.16-.88-.4-1.2-.72l.82-1.44c.5467.52 1.18.78 1.9.78.4667 0 .8534-.1267 1.16-.38.32-.24.6067-.66.86-1.26l.34-.74-4.68-10.58h2l3.7 8.48 3.66-8.48h1.88zM91.6821 16.12c-1.08 0-2.06-.2333-2.94-.7-.8667-.4667-1.5467-1.1133-2.04-1.94-.4934-.8267-.74-1.7533-.74-2.78 0-1.04.2466-1.97333.74-2.8.4933-.82667 1.1733-1.47333 2.04-1.94.88-.46667 1.86-.7 2.94-.7.9333 0 1.7733.14667 2.52.44.76.29333 1.4.72 1.92 1.28l-1.12 1.12c-.8534-.84-1.9334-1.26-3.24-1.26-1.04 0-1.9267.3-2.66.9-.7334.58667-1.1734 1.36-1.32 2.32h5.32v1.42h-5.28c.1733.92.62 1.6667 1.34 2.24.72.56 1.5866.84 2.6.84 1.2933 0 2.3733-.4267 3.24-1.28l1.12 1.1c-.52.5733-1.16 1.0067-1.92 1.3-.76.2933-1.6.44-2.52.44zM110.705 5.4V16h-1.74V8.26l-3.96 6.54h-.84l-3.92-6.56V16h-1.76V5.4h1.98l4.16 7.16 4.28-7.16h1.8zM118.982 16.12c-1.053 0-2-.2333-2.84-.7-.84-.4667-1.5-1.1067-1.98-1.92-.467-.8267-.7-1.76-.7-2.8 0-1.04.233-1.96667.7-2.78.48-.82667 1.14-1.46667 1.98-1.92.84-.46667 1.787-.7 2.84-.7s1.993.23333 2.82.7c.84.45333 1.493 1.09333 1.96 1.92.48.81333.72 1.74.72 2.78 0 1.04-.24 1.9733-.72 2.8-.467.8133-1.12 1.4533-1.96 1.92-.827.4667-1.767.7-2.82.7zm0-1.68c.68 0 1.287-.1533 1.82-.46.547-.32.973-.76 1.28-1.32.307-.5733.46-1.2267.46-1.96 0-.73333-.153-1.38-.46-1.94-.307-.57333-.733-1.01333-1.28-1.32-.533-.30667-1.14-.46-1.82-.46-.68 0-1.293.15333-1.84.46-.533.30667-.96.74667-1.28 1.32-.307.56-.46 1.20667-.46 1.94 0 .7333.153 1.3867.46 1.96.32.56.747 1 1.28 1.32.547.3067 1.16.46 1.84.46zM143.406 14.32v4.14h-1.8V16h-8.86v2.46h-1.82v-4.14h.56c.68-.04 1.146-.52 1.4-1.44.253-.92.426-2.22.52-3.9l.16-3.58h8.22v8.92h1.62zm-8.24-5.2c-.054 1.3333-.167 2.44-.34 3.32-.16.8667-.46 1.4933-.9 1.88h5.94V7.08h-4.6l-.1 2.04zM150.447 16.12c-1.053 0-2-.2333-2.84-.7-.84-.4667-1.5-1.1067-1.98-1.92-.467-.8267-.7-1.76-.7-2.8 0-1.04.233-1.96667.7-2.78.48-.82667 1.14-1.46667 1.98-1.92.84-.46667 1.787-.7 2.84-.7s1.993.23333 2.82.7c.84.45333 1.493 1.09333 1.96 1.92.48.81333.72 1.74.72 2.78 0 1.04-.24 1.9733-.72 2.8-.467.8133-1.12 1.4533-1.96 1.92-.827.4667-1.767.7-2.82.7zm0-1.68c.68 0 1.287-.1533 1.82-.46.547-.32.973-.76 1.28-1.32.307-.5733.46-1.2267.46-1.96 0-.73333-.153-1.38-.46-1.94-.307-.57333-.733-1.01333-1.28-1.32-.533-.30667-1.14-.46-1.82-.46-.68 0-1.293.15333-1.84.46-.533.30667-.96.74667-1.28 1.32-.307.56-.46 1.20667-.46 1.94 0 .7333.153 1.3867.46 1.96.32.56.747 1 1.28 1.32.547.3067 1.16.46 1.84.46zM173.031 14.26V16h-10.06v-1.36l5.7-5.5c.693-.66667 1.159-1.24 1.399-1.72.24-.49333.36-.98667.36-1.48 0-.73333-.26-1.3-.78-1.7-.506-.41333-1.239-.62-2.199-.62-1.547 0-2.741.50667-3.581 1.52l-1.36-1.18c.547-.66667 1.26-1.18667 2.14-1.56.894-.37333 1.887-.56 2.98-.56 1.467 0 2.634.35333 3.5 1.06.867.69333 1.3 1.64 1.3 2.84 0 .74667-.159 1.45333-.479 2.12-.32.66667-.927 1.42667-1.821 2.28l-4.28 4.12h7.181zM180.336 16.16c-1.106 0-2.093-.28-2.96-.84-.853-.5733-1.526-1.4-2.02-2.48-.493-1.08-.74-2.36-.74-3.84s.247-2.76.74-3.84c.494-1.08 1.167-1.9 2.02-2.46.867-.57333 1.854-.86 2.96-.86 1.094 0 2.067.28667 2.92.86.867.56 1.547 1.38 2.04 2.46.494 1.08.74 2.36.74 3.84s-.246 2.76-.74 3.84c-.493 1.08-1.173 1.9067-2.04 2.48-.853.56-1.826.84-2.92.84zm0-1.78c1.12 0 2.014-.46 2.68-1.38.68-.92 1.02-2.2533 1.02-4 0-1.74667-.34-3.08-1.02-4-.666-.92-1.56-1.38-2.68-1.38-1.133 0-2.04.46-2.72 1.38-.666.92-1 2.25333-1 4 0 1.7467.334 3.08 1 4 .68.92 1.587 1.38 2.72 1.38zM199.047 16.16c-1.106 0-2.093-.28-2.96-.84-.853-.5733-1.526-1.4-2.02-2.48-.493-1.08-.74-2.36-.74-3.84s.247-2.76.74-3.84c.494-1.08 1.167-1.9 2.02-2.46.867-.57333 1.854-.86 2.96-.86 1.094 0 2.067.28667 2.92.86.867.56 1.547 1.38 2.04 2.46.494 1.08.74 2.36.74 3.84s-.246 2.76-.74 3.84c-.493 1.08-1.173 1.9067-2.04 2.48-.853.56-1.826.84-2.92.84zm0-1.78c1.12 0 2.014-.46 2.68-1.38.68-.92 1.02-2.2533 1.02-4 0-1.74667-.34-3.08-1.02-4-.666-.92-1.56-1.38-2.68-1.38-1.133 0-2.04.46-2.72 1.38-.666.92-1 2.25333-1 4 0 1.7467.334 3.08 1 4 .68.92 1.587 1.38 2.72 1.38zM212.387 16.16c-1.107 0-2.093-.28-2.96-.84-.853-.5733-1.527-1.4-2.02-2.48-.493-1.08-.74-2.36-.74-3.84s.247-2.76.74-3.84 1.167-1.9 2.02-2.46c.867-.57333 1.853-.86 2.96-.86 1.093 0 2.067.28667 2.92.86.867.56 1.547 1.38 2.04 2.46.493 1.08.74 2.36.74 3.84s-.247 2.76-.74 3.84-1.173 1.9067-2.04 2.48c-.853.56-1.827.84-2.92.84zm0-1.78c1.12 0 2.013-.46 2.68-1.38.68-.92 1.02-2.2533 1.02-4 0-1.74667-.34-3.08-1.02-4-.667-.92-1.56-1.38-2.68-1.38-1.133 0-2.04.46-2.72 1.38-.667.92-1 2.25333-1 4 0 1.7467.333 3.08 1 4 .68.92 1.587 1.38 2.72 1.38zM225.727 16.16c-1.107 0-2.093-.28-2.96-.84-.853-.5733-1.527-1.4-2.02-2.48-.493-1.08-.74-2.36-.74-3.84s.247-2.76.74-3.84 1.167-1.9 2.02-2.46c.867-.57333 1.853-.86 2.96-.86 1.093 0 2.067.28667 2.92.86.867.56 1.547 1.38 2.04 2.46.493 1.08.74 2.36.74 3.84s-.247 2.76-.74 3.84-1.173 1.9067-2.04 2.48c-.853.56-1.827.84-2.92.84zm0-1.78c1.12 0 2.013-.46 2.68-1.38.68-.92 1.02-2.2533 1.02-4 0-1.74667-.34-3.08-1.02-4-.667-.92-1.56-1.38-2.68-1.38-1.133 0-2.04.46-2.72 1.38-.667.92-1 2.25333-1 4 0 1.7467.333 3.08 1 4 .68.92 1.587 1.38 2.72 1.38zM245.658 16.16c-1.867 0-3.32-.5333-4.36-1.6-1.04-1.0667-1.56-2.6-1.56-4.6V2h2v7.88c0 3 1.313 4.5 3.94 4.5 1.28 0 2.26-.3667 2.94-1.1.68-.7467 1.02-1.88 1.02-3.4V2h1.94v7.96c0 2.0133-.52 3.5533-1.56 4.62-1.04 1.0533-2.493 1.58-4.36 1.58zM259.758 16.16c-1.053 0-2.073-.16-3.06-.48-.973-.3333-1.74-.76-2.3-1.28l.74-1.56c.533.48 1.213.8733 2.04 1.18.84.2933 1.7.44 2.58.44 1.16 0 2.027-.1933 2.6-.58.573-.4.86-.9267.86-1.58 0-.48-.16-.8667-.48-1.16-.307-.3067-.693-.54-1.16-.7-.453-.16-1.1-.34-1.94-.54-1.053-.25333-1.907-.50667-2.56-.76-.64-.25333-1.193-.64-1.66-1.16-.453-.53333-.68-1.24667-.68-2.14 0-.74667.193-1.42.58-2.02.4-.6 1-1.08 1.8-1.44.8-.36 1.793-.54 2.98-.54.827 0 1.64.10667 2.44.32.8.21333 1.487.52 2.06.92l-.66 1.6c-.587-.37333-1.213-.65333-1.88-.84-.667-.2-1.32-.3-1.96-.3-1.133 0-1.987.20667-2.56.62-.56.41333-.84.94667-.84 1.6 0 .48.16.87333.48 1.18.32.29333.713.52667 1.18.7.48.16 1.127.33333 1.94.52 1.053.25333 1.9.50667 2.54.76.64.25333 1.187.64 1.64 1.16.467.52.7 1.22.7 2.1 0 .7333-.2 1.4067-.6 2.02-.4.6-1.007 1.08-1.82 1.44-.813.3467-1.813.52-3 .52zM268.1 2h5.9c1.48 0 2.793.29333 3.94.88 1.147.58667 2.033 1.41333 2.66 2.48.64 1.05333.96 2.26667.96 3.64 0 1.3733-.32 2.5933-.96 3.66-.627 1.0533-1.513 1.8733-2.66 2.46-1.147.5867-2.46.88-3.94.88h-5.9V2zm5.78 12.26c1.133 0 2.127-.22 2.98-.66.867-.44 1.533-1.0533 2-1.84.467-.8.7-1.72.7-2.76 0-1.04-.233-1.95333-.7-2.74-.467-.8-1.133-1.42-2-1.86-.853-.44-1.847-.66-2.98-.66h-3.78v10.52h3.78z" fill="#fff"/></svg>