<svg width="228" height="17" viewBox="0 0 228 17" fill="none" xmlns="http://www.w3.org/2000/svg"><path d="M5.99552 2c1.81334 0 3.24.43333 4.27998 1.3 1.04.86667 1.56 2.06 1.56 3.58s-.52 2.71333-1.56 3.58c-1.03998.8667-2.46664 1.3-4.27998 1.3h-3.46V16H.535522V2H5.99552zm-.06 8.02c1.26667 0 2.23334-.26667 2.9-.8.66667-.54667 1-1.32667 1-2.34 0-1.01333-.33333-1.78667-1-2.32-.66666-.54667-1.63333-.82-2.9-.82h-3.4v6.28h3.4zM14.1218 5.4h1.92V16h-1.92V5.4zm.96-2.04c-.3734 0-.6867-.12-.94-.36-.24-.24-.36-.53333-.36-.88 0-.34667.12-.64.36-.88.2533-.253333.5666-.379999.94-.379999.3733 0 .68.119999.92.359999.2533.22667.38.51333.38.86 0 .36-.1267.66667-.38.92-.24.24-.5467.36-.92.36zM34.8858 5.4V16h-15.1V5.4h1.92v8.92h4.68V5.4h1.92v8.92h4.66V5.4h1.92zM48.194 10.76c0 .1467-.0134.34-.04.58h-8.6c.12.9333.5266 1.6867 1.22 2.26.7066.56 1.58.84 2.62.84 1.2666 0 2.2866-.4267 3.06-1.28l1.06 1.24c-.48.56-1.08.9867-1.8 1.28-.7067.2933-1.5.44-2.38.44-1.12 0-2.1134-.2267-2.98-.68-.8667-.4667-1.54-1.1133-2.02-1.94-.4667-.8267-.7-1.76-.7-2.8 0-1.02667.2266-1.95333.68-2.78.4666-.82667 1.1-1.46667 1.9-1.92.8133-.46667 1.7266-.7 2.74-.7 1.0133 0 1.9133.23333 2.7.7.8.45333 1.42 1.09333 1.86 1.92.4533.82667.68 1.77333.68 2.84zm-5.24-3.84c-.92 0-1.6934.28-2.32.84-.6134.56-.9734 1.29333-1.08 2.2h6.8c-.1067-.89333-.4734-1.62-1.1-2.18-.6134-.57333-1.38-.86-2.3-.86zM51.1726 5.4h1.92v4.5h6.04V5.4h1.92V16h-1.92v-4.44h-6.04V16h-1.92V5.4zM64.7858 5.4h1.92v4.5h6.04V5.4h1.92V16h-1.92v-4.44h-6.04V16h-1.92V5.4zM86.8991 5.4V16h-1.72v-3.36H81.8791l-2.32 3.36h-2.06l2.58-3.62c-.8-.24-1.4133-.6333-1.84-1.18-.4267-.56-.64-1.25333-.64-2.08 0-1.21333.4134-2.13333 1.24-2.76.8267-.64 1.9667-.96 3.42-.96h4.64zm-7.34 3.78c0 .70667.22 1.2333.66 1.58.4533.3333 1.1267.5 2.02.5h2.94V7.08h-2.86c-1.84 0-2.76.7-2.76 2.1zM101.756 10.48c.707.1867 1.254.4867 1.64.9.387.4133.58.9267.58 1.54 0 .6267-.213 1.1867-.64 1.68-.426.48-1.02.86-1.78 1.14-.746.2667-1.5864.4-2.5197.4-.7867 0-1.56-.1-2.32-.3-.7467-.2133-1.4133-.5133-2-.9l.58-1.46c.5067.32 1.0867.5733 1.74.76.6533.1733 1.3133.26 1.98.26.9067 0 1.6267-.1533 2.1597-.46.547-.32.82-.7467.82-1.28 0-.4933-.22-.8733-.66-1.14-.426-.2667-1.033-.4-1.8197-.4h-1.94V9.84h1.8c.7197 0 1.2867-.12667 1.6997-.38.414-.25333.62-.6.62-1.04 0-.48-.246-.85333-.74-1.12-.48-.26667-1.133-.4-1.9597-.4-1.0533 0-2.1667.27333-3.34.82l-.52-1.48c1.2933-.65333 2.6467-.98 4.06-.98.8537 0 1.6197.12 2.2997.36.68.24 1.214.58 1.6 1.02.387.44.58.94.58 1.5 0 .52-.173.98667-.52 1.4-.346.41333-.813.7267-1.4.94zM110.675 5.3c1.467 0 2.587.36 3.36 1.08.787.72 1.18 1.79333 1.18 3.22V16h-1.82v-1.4c-.32.4933-.78.8733-1.38 1.14-.586.2533-1.286.38-2.1.38-1.186 0-2.14-.2867-2.86-.86-.706-.5733-1.06-1.3267-1.06-2.26 0-.9333.34-1.68 1.02-2.24.68-.5733 1.76-.86 3.24-.86h3.04v-.38c0-.82667-.24-1.46-.72-1.9-.48-.44-1.186-.66-2.12-.66-.626 0-1.24.10667-1.84.32-.6.2-1.106.47333-1.52.82l-.8-1.44c.547-.44 1.2-.77333 1.96-1 .76-.24 1.567-.36 2.42-.36zm-.44 9.34c.734 0 1.367-.16 1.9-.48.534-.3333.92-.8 1.16-1.4v-1.48h-2.96c-1.626 0-2.44.5467-2.44 1.64 0 .5333.207.9533.62 1.26.414.3067.987.46 1.72.46zM128.504 7.88c1.373.13333 2.42.56 3.14 1.28.72.70667 1.08 1.6133 1.08 2.72 0 .8-.2 1.5267-.6 2.18-.4.64-1 1.1533-1.8 1.54-.787.3733-1.754.56-2.9.56-1 0-1.96-.1467-2.88-.44-.92-.3067-1.674-.7267-2.26-1.26l.92-1.58c.48.4533 1.093.82 1.84 1.1.746.2667 1.54.4 2.38.4 1.04 0 1.846-.22 2.42-.66.586-.44.88-1.0467.88-1.82 0-.7733-.287-1.3733-.86-1.8-.574-.42667-1.44-.64-2.6-.64h-1.12v-1.4l3.52-4.32h-6.74V2h9.24v1.36l-3.66 4.52zM140.309 16.16c-1.107 0-2.093-.28-2.96-.84-.853-.5733-1.527-1.4-2.02-2.48-.493-1.08-.74-2.36-.74-3.84s.247-2.76.74-3.84 1.167-1.9 2.02-2.46c.867-.57333 1.853-.86 2.96-.86 1.093 0 2.067.28667 2.92.86.867.56 1.547 1.38 2.04 2.46.493 1.08.74 2.36.74 3.84s-.247 2.76-.74 3.84-1.173 1.9067-2.04 2.48c-.853.56-1.827.84-2.92.84zm0-1.78c1.12 0 2.013-.46 2.68-1.38.68-.92 1.02-2.2533 1.02-4 0-1.74667-.34-3.08-1.02-4-.667-.92-1.56-1.38-2.68-1.38-1.133 0-2.04.46-2.72 1.38-.667.92-1 2.25333-1 4 0 1.7467.333 3.08 1 4 .68.92 1.587 1.38 2.72 1.38zM160.82 16l-3.06-4.06-3.1 4.06h-2.14l4.18-5.42-3.98-5.18h2.14l2.92 3.82 2.9-3.82h2.1l-4 5.18L163 16h-2.18zM172.24 10.5c1.374.3467 2.06 1.2067 2.06 2.58 0 .9333-.353 1.6533-1.06 2.16-.693.5067-1.733.76-3.12.76h-5.1V5.4h4.92c1.254 0 2.234.24 2.94.72.707.46667 1.06 1.13333 1.06 2 0 .56-.153 1.04667-.46 1.46-.293.4-.706.7067-1.24.92zm-5.34-.54h2.88c.734 0 1.287-.13333 1.66-.4.387-.26667.58-.65333.58-1.16 0-1.01333-.746-1.52-2.24-1.52h-2.88v3.08zm3.08 4.56c.8 0 1.4-.1267 1.8-.38.4-.2533.6-.6467.6-1.18 0-.5467-.186-.9533-.56-1.22-.36-.2667-.933-.4-1.72-.4h-3.2v3.18h3.08zM177.305 5.4h1.92v7.72l6.5-7.72h1.74V16h-1.92V8.28l-6.48 7.72h-1.76V5.4zM200.292 5.4V16h-1.92V7.08h-4.56l-.12 2.36c-.067 1.4267-.193 2.62-.38 3.58-.187.9467-.493 1.7067-.92 2.28-.427.5733-1.02.86-1.78.86-.347 0-.74-.06-1.18-.18l.12-1.62c.173.04.333.06.48.06.533 0 .933-.2333 1.2-.7.267-.4667.44-1.02.52-1.66.08-.64.153-1.5533.22-2.74l.18-3.92h8.14zM204.005 5.4h1.92v7.72l6.5-7.72h1.74V16h-1.92V8.28l-6.48 7.72h-1.76V5.4zM217.891 5.4h1.92v4.5h6.04V5.4h1.92V16h-1.92v-4.44h-6.04V16h-1.92V5.4z" fill="#fff"/></svg>