<svg width="266" height="18" viewBox="0 0 266 18" fill="none" xmlns="http://www.w3.org/2000/svg"><path d="M18.0326 0v14H.492554V0H2.47255v12.26h5.82V0h1.96005v12.26h5.82V0h1.96zM29.2871 8.5c1.3733.34667 2.06 1.20667 2.06 2.58 0 .9333-.3533 1.6533-1.06 2.16-.6933.5067-1.7333.76-3.12.76h-5.1V3.4h4.92c1.2533 0 2.2333.24 2.94.72.7067.46667 1.06 1.13333 1.06 2 0 .56-.1533 1.04667-.46 1.46-.2933.4-.7067.70667-1.24.92zm-5.34-.54h2.88c.7333 0 1.2867-.13333 1.66-.4.3867-.26667.58-.65333.58-1.16 0-1.01333-.7467-1.52-2.24-1.52h-2.88v3.08zm3.08 4.56c.8 0 1.4-.1267 1.8-.38.4-.2533.6-.6467.6-1.18 0-.5467-.1867-.9533-.56-1.22-.36-.26667-.9333-.4-1.72-.4h-3.2v3.18h3.08zM34.3522 3.4h1.92v7.72l6.5-7.72h1.74V14h-1.92V6.28l-6.48 7.72h-1.76V3.4zM59.019 12.32v4.14h-1.8V14h-8.86v2.46h-1.82v-4.14h.56c.68-.04 1.1466-.52 1.4-1.44.2533-.92.4266-2.22.52-3.9l.16-3.58h8.22v8.92h1.62zm-8.24-5.2c-.0534 1.33333-.1667 2.44-.34 3.32-.16.8667-.46 1.4933-.9 1.88h5.94V5.08h-4.6l-.1 2.04zM65.6402 9.52h-2.2V14h-1.92V3.4h1.92v4.48h2.24l3.44-4.48h2.06l-4.02 5.1 4.3 5.5h-2.26l-3.56-4.48zM82.7018 8.76c0 .14667-.0134.34-.04.58h-8.6c.12.9333.5266 1.6867 1.22 2.26.7066.56 1.58.84 2.62.84 1.2666 0 2.2866-.4267 3.06-1.28l1.06 1.24c-.48.56-1.08.9867-1.8 1.28-.7067.2933-1.5.44-2.38.44-1.12 0-2.1134-.2267-2.98-.68-.8667-.4667-1.54-1.1133-2.02-1.94-.4667-.8267-.7-1.76-.7-2.8 0-1.02667.2266-1.95333.68-2.78.4666-.82667 1.1-1.46667 1.9-1.92.8133-.46667 1.7266-.7 2.74-.7 1.0133 0 1.9133.23333 2.7.7.8.45333 1.42 1.09333 1.86 1.92.4533.82667.68 1.77333.68 2.84zm-5.24-3.84c-.92 0-1.6934.28-2.32.84-.6134.56-.9734 1.29333-1.08 2.2h6.8c-.1067-.89333-.4734-1.62-1.1-2.18-.6134-.57333-1.38-.86-2.3-.86zM100.511 3.4l-5.1395 11.66c-.4534 1.08-.9867 1.84-1.6 2.28-.6.44-1.3267.66-2.18.66-.52 0-1.0267-.0867-1.52-.26-.48-.16-.88-.4-1.2-.72l.82-1.44c.5466.52 1.18.78 1.9.78.4666 0 .8533-.1267 1.16-.38.32-.24.6066-.66.86-1.26l.34-.74-4.68-10.58h2l3.7 8.48 3.66-8.48h1.8795zM106.597 9.52h-2.2V14h-1.92V3.4h1.92v4.48h2.24l3.44-4.48h2.06l-4.02 5.1 4.3 5.5h-2.26l-3.56-4.48zM123.53 3.4V14h-1.92V5.08h-4.56l-.12 2.36c-.066 1.42667-.193 2.62-.38 3.58-.186.9467-.493 1.7067-.92 2.28-.426.5733-1.02.86-1.78.86-.346 0-.74-.06-1.18-.18l.12-1.62c.174.04.334.06.48.06.534 0 .934-.2333 1.2-.7.267-.4667.44-1.02.52-1.66.08-.64.154-1.55333.22-2.74l.18-3.92h8.14zM131.023 3.3c1.467 0 2.587.36 3.36 1.08.787.72 1.18 1.79333 1.18 3.22V14h-1.82v-1.4c-.32.4933-.78.8733-1.38 1.14-.587.2533-1.287.38-2.1.38-1.187 0-2.14-.2867-2.86-.86-.707-.5733-1.06-1.3267-1.06-2.26 0-.9333.34-1.68 1.02-2.24.68-.57333 1.76-.86 3.24-.86h3.04v-.38c0-.82667-.24-1.46-.72-1.9-.48-.44-1.187-.66-2.12-.66-.627 0-1.24.10667-1.84.32-.6.2-1.107.47333-1.52.82l-.8-1.44c.547-.44 1.2-.77333 1.96-1 .76-.24 1.567-.36 2.42-.36zm-.44 9.34c.733 0 1.367-.16 1.9-.48.533-.3333.92-.8 1.16-1.4V9.28h-2.96c-1.627 0-2.44.54667-2.44 1.64 0 .5333.207.9533.62 1.26.413.3067.987.46 1.72.46zM149.8 12.32v4.14H148V14h-8.86v2.46h-1.82v-4.14h.56c.68-.04 1.147-.52 1.4-1.44.254-.92.427-2.22.52-3.9l.16-3.58h8.22v8.92h1.62zm-8.24-5.2c-.053 1.33333-.166 2.44-.34 3.32-.16.8667-.46 1.4933-.9 1.88h5.94V5.08h-4.6l-.1 2.04zM156.081 3.3c1.467 0 2.587.36 3.36 1.08.787.72 1.18 1.79333 1.18 3.22V14h-1.82v-1.4c-.32.4933-.78.8733-1.38 1.14-.586.2533-1.286.38-2.1.38-1.186 0-2.14-.2867-2.86-.86-.706-.5733-1.06-1.3267-1.06-2.26 0-.9333.34-1.68 1.02-2.24.68-.57333 1.76-.86 3.24-.86h3.04v-.38c0-.82667-.24-1.46-.72-1.9-.48-.44-1.186-.66-2.12-.66-.626 0-1.24.10667-1.84.32-.6.2-1.106.47333-1.52.82l-.8-1.44c.547-.44 1.2-.77333 1.96-1 .76-.24 1.567-.36 2.42-.36zm-.44 9.34c.734 0 1.367-.16 1.9-.48.534-.3333.92-.8 1.16-1.4V9.28h-2.96c-1.626 0-2.44.54667-2.44 1.64 0 .5333.207.9533.62 1.26.414.3067.987.46 1.72.46zM164.079 3.4h1.92v4.5h6.04V3.4h1.92V14h-1.92V9.56h-6.04V14h-1.92V3.4zM177.692 3.4h1.92v4.5h6.04V3.4h1.92V14h-1.92V9.56h-6.04V14h-1.92V3.4zM199.805 3.4V14h-1.72v-3.36H194.785l-2.32 3.36h-2.06l2.58-3.62c-.8-.24-1.413-.63333-1.84-1.18-.426-.56-.64-1.25333-.64-2.08 0-1.21333.414-2.13333 1.24-2.76.827-.64 1.967-.96 3.42-.96h4.64zm-7.34 3.78c0 .70667.22 1.23333.66 1.58.454.33333 1.127.5 2.02.5h2.94V5.08h-2.86c-1.84 0-2.76.7-2.76 2.1zM218.383 3.4l-5.14 11.66c-.454 1.08-.987 1.84-1.6 2.28-.6.44-1.327.66-2.18.66-.52 0-1.027-.0867-1.52-.26-.48-.16-.88-.4-1.2-.72l.82-1.44c.546.52 1.18.78 1.9.78.466 0 .853-.1267 1.16-.38.32-.24.606-.66.86-1.26l.34-.74-4.68-10.58h2l3.7 8.48 3.66-8.48h1.88zM228.148 5.08h-5.88V14h-1.92V3.4h7.8v1.68zM234.185 14.12c-1.053 0-2-.2333-2.84-.7-.84-.4667-1.5-1.1067-1.98-1.92-.466-.8267-.7-1.76-.7-2.8 0-1.04.234-1.96667.7-2.78.48-.82667 1.14-1.46667 1.98-1.92.84-.46667 1.787-.7 2.84-.7 1.054 0 1.994.23333 2.82.7.84.45333 1.494 1.09333 1.96 1.92.48.81333.72 1.74.72 2.78 0 1.04-.24 1.9733-.72 2.8-.466.8133-1.12 1.4533-1.96 1.92-.826.4667-1.766.7-2.82.7zm0-1.68c.68 0 1.287-.1533 1.82-.46.547-.32.974-.76 1.28-1.32.307-.5733.46-1.22667.46-1.96s-.153-1.38-.46-1.94c-.306-.57333-.733-1.01333-1.28-1.32-.533-.30667-1.14-.46-1.82-.46-.68 0-1.293.15333-1.84.46-.533.30667-.96.74667-1.28 1.32-.306.56-.46 1.20667-.46 1.94s.154 1.3867.46 1.96c.32.56.747 1 1.28 1.32.547.3067 1.16.46 1.84.46zM253.16 12.32v4.14h-1.8V14h-8.86v2.46h-1.82v-4.14h.56c.68-.04 1.146-.52 1.4-1.44.253-.92.426-2.22.52-3.9l.16-3.58h8.22v8.92h1.62zm-8.24-5.2c-.054 1.33333-.167 2.44-.34 3.32-.16.8667-.46 1.4933-.9 1.88h5.94V5.08h-4.6l-.1 2.04zM255.661 3.4h1.92v7.72l6.5-7.72h1.74V14h-1.92V6.28l-6.48 7.72h-1.76V3.4z" fill="#fff"/></svg>