<svg width="150" height="20" viewBox="0 0 150 20" fill="none" xmlns="http://www.w3.org/2000/svg"><g clip-path="url(#clip0)" fill="#fff"><path d="M15.5851 15.8511H5.90429l-1.32978 3.4042c-.10639.266-.31915.4255-.58511.4255H.372377c-.3723403 0-.478723-.1595-.3723403-.4787L8.45749.585106c.05319-.159574.21276-.265957.47872-.265957h4.04259c.2659 0 .3723.106383.4787.265957L21.4894 19.1489c.1064.266-.0532.5851-.3723.5851h-3.4043c-.3723 0-.5851-.1595-.7447-.4787l-1.383-3.4042zm-8.19145-3.7234H14.149l-3.1383-7.97876h-.3724L7.39365 12.1277zM24.2021.797872c0-.319149.1596-.478723.4787-.478723h3.1383c.3192 0 .4787.159574.4787.478723V11.117c0 2.8724 1.5958 4.9468 4.5745 4.9468 2.8723 0 4.5745-1.9681 4.5745-4.9468V.797872c0-.319149.1595-.478723.4787-.478723h3.1383c.3191 0 .4787.159574.4787.478723V11.1702c0 5.0532-3.3511 8.8298-8.7234 8.8298-5.3723 0-8.7234-3.8298-8.7234-8.8298V.797872h.1064zM61.4894.265961c.3191 0 .4787.159574.4787.478723V3.72341c0 .31915-.1596.47872-.4787.47872h-6.1702V19.2021c0 .3192-.1596.4788-.4787.4788h-3.1383c-.3192 0-.4787-.1596-.4787-.4788V4.20213h-6.2766c-.3192 0-.4788-.15957-.4788-.47872V.797876c0-.319149.1596-.478724.4788-.478724h16.5425V.265961zM73.298 0c5.5851 0 10.2127 4.30851 10.2127 10 0 5.7447-4.5744 10-10.2127 10s-10.2128-4.2553-10.2128-10c0-5.69149 4.5745-10 10.2128-10zm-6.0639 10c0 3.5106 2.5 6.117 6.0639 6.117 3.5106 0 6.0106-2.5532 6.0106-6.117 0-3.61702-2.5-6.11702-6.0106-6.11702-3.5639 0-6.0639 2.55319-6.0639 6.11702zM101.702.159571c.16 0 .266.106383.266.265957V10.4255c0 .1596-.106.266-.266.266H100c-.1595 0-.2659-.1064-.2659-.266V6.59574l.1064-2.87234h-.1064l-1.5426 3.98936-1.2234 2.81914c-.0531.1596-.1595.2128-.3191.2128h-1.3298c-.1596 0-.2659-.0532-.3191-.2128L93.883 7.71276 92.2873 3.7234h-.1064l.1064 2.92553v3.82977c0 .1596-.1064.266-.266.266h-1.6489c-.1596 0-.266-.1064-.266-.266V.425528c0-.159574.1064-.265957.266-.265957h2.2872c.1596 0 .266.053191.3192.212766l1.5425 3.563833 1.5426 3.88297h.0532l1.5425-3.88297L99.149.372337c.0532-.159575.1596-.212766.3723-.212766h2.1807zM109.468 0C112.5 0 115 2.34043 115 5.42553c0 3.1383-2.5 5.42557-5.532 5.42557s-5.532-2.28727-5.532-5.42557C103.883 2.34043 106.383 0 109.468 0zm-3.298 5.42553c0 1.9149 1.33 3.29787 3.298 3.29787 1.915 0 3.245-1.38297 3.245-3.29787 0-1.96808-1.33-3.35106-3.245-3.35106-1.968.05319-3.298 1.38298-3.298 3.35106zM124.681 10.6915c-.16 0-.213-.0532-.266-.1596l-2.66-3.35105-2.659-3.7766h-.107l.16 3.24468v3.72337c0 .1596-.106.266-.266.266h-1.649c-.159 0-.266-.1064-.266-.266V.425528c0-.159574.107-.265957.266-.265957h1.489c.16 0 .266.053191.373.159574l2.925 3.670215 2.447 3.45745h.107l-.16-3.24469V.425528c0-.159574.106-.265957.266-.265957h1.649c.159 0 .266.106383.266.265957V10.4255c0 .1596-.107.266-.266.266h-1.649zM136.915.159571c.159 0 .266.106383.266.265957V1.96808c0 .15958-.107.26596-.266.26596h-5.851v1.96809h5.159c.16 0 .266.10638.266.26595v1.54256c0 .15957-.106.26595-.266.26595h-5.159v2.28724h6.01c.16 0 .266.10638.266.26596v1.54251c0 .1596-.106.266-.266.266h-7.978c-.16 0-.266-.1064-.266-.266V.425528c0-.159574.159-.265957.266-.265957h7.819zM145.479 10.4255c0 .1596-.107.266-.266.266h-1.702c-.16 0-.266-.1064-.266-.266V7.97872L138.83.372337c-.053-.106383 0-.212766.159-.212766h2.128c.106 0 .213.053191.266.159574l2.979 5.478725h.159l2.82-5.425533c.053-.106383.159-.159575.265-.159575h2.128c.16 0 .213.106383.16.212766l-4.415 7.553192v2.44678zM90.2128 19.6272c-.0532 0-.1064-.0532-.1064-.1064v-4.3085c0-.0532.0532-.1064.1064-.1064h3.2447c.0532 0 .1064.0532.1064.1064v.6915c0 .0532-.0532.1064-.1064.1064h-2.3936v3.5106c0 .0532-.0532.1064-.1064.1064h-.7447zM96.5959 15.1064c1.0106 0 1.7553.7447 1.7553 1.649 0 .9574-.7447 1.6489-1.7553 1.6489h-1.2234v1.117c0 .0532-.0532.1064-.1064.1064h-.7447c-.0532 0-.1064-.0532-.1064-.1064v-4.3085c0-.0532.0532-.1064.1064-.1064h2.0745zm0 2.3936c.5319 0 .7978-.3191.7978-.7446 0-.4256-.2659-.7447-.7978-.7447h-1.2234V17.5h1.2234zM101.33 15.0532c1.33 0 2.393 1.0107 2.393 2.3404 0 1.3298-1.063 2.3405-2.393 2.3405-1.33 0-2.3938-1.0107-2.3938-2.3405 0-1.3297 1.0638-2.3404 2.3938-2.3404zm-1.4364 2.3404c0 .8511.5854 1.4362 1.4364 1.4362.851 0 1.383-.5851 1.383-1.4362 0-.851-.585-1.4361-1.383-1.4361-.851 0-1.4364.5851-1.4364 1.4361zM106.915 18.7234v-3.5106c0-.0532.053-.1064.106-.1064h.692c.053 0 .106.0532.106.1064v3.5106h1.436v-3.5106c0-.0532.054-.1064.107-.1064h.691c.053 0 .107.0532.107.1064v4.3085c0 .0532-.054.1064-.107.1064h-5.478c-.054 0-.107-.0532-.107-.1064v-4.3085c0-.0532.053-.1064.107-.1064h.691c.053 0 .106.0532.106.1064v3.5106h1.543zM112.075 15.1064c.053 0 .106.0532.106.1064v4.3085c0 .0532-.053.1064-.106.1064h-.745c-.053 0-.106-.0532-.106-.1064v-4.3085c0-.0532.053-.1064.106-.1064h.745zM116.064 15.1064c.053 0 .106.0532.106.1064v1.5958h2.075v-1.5958c0-.0532.053-.1064.106-.1064h.745c.053 0 .106.0532.106.1064v4.3085c0 .0532-.053.1064-.106.1064h-.745c-.053 0-.106-.0532-.106-.1064v-1.8085h-2.075v1.8085c0 .0532-.053.1064-.106.1064h-.745c-.053 0-.106-.0532-.106-.1064v-4.3085c0-.0532.053-.1064.106-.1064h.745zM123.67 18.7234h-2.287l-.319.7979c0 .0532-.053.1064-.16.1064h-.851c-.106 0-.106-.0532-.106-.1064l1.968-4.3617c0-.0532.053-.0532.106-.0532h.958c.053 0 .106 0 .106.0532l1.862 4.3617c0 .0532 0 .1596-.106.1596h-.798c-.107 0-.16-.0532-.16-.1064l-.213-.8511zm-1.915-.851h1.596l-.745-1.8617h-.106l-.745 1.8617zM131.33 18.7234h-2.287l-.32.7979c0 .0532-.053.1064-.159.1064h-.851c-.107 0-.107-.0532-.107-.1064l1.969-4.3617c0-.0532.053-.0532.106-.0532h.957c.054 0 .107 0 .107.0532l1.861 4.3617c0 .0532 0 .1596-.106.1596h-.798c-.106 0-.159-.0532-.159-.1064l-.213-.8511zm-1.915-.851h1.596l-.745-1.8617h-.106l-.745 1.8617zM136.809 17.2341c.478.1595.797.5851.797 1.0638 0 .8511-.638 1.383-1.542 1.383h-2.394c-.053 0-.106-.0532-.106-.1064V15.266c0-.0532.053-.1064.106-.1064h2.234c.851 0 1.436.5319 1.436 1.2234 0 .3723-.159.6383-.478.7979v.0532h-.053zm-2.341-.3724h1.383c.266 0 .479-.1595.479-.4255s-.16-.4255-.479-.4255h-1.383v.851zm0 1.8617h1.543c.372 0 .638-.2127.638-.4787 0-.3191-.213-.4787-.638-.4787h-1.543v.9574zM141.968 15.1064c.053 0 .106.0532.106.1064v.6915c0 .0532-.053.1064-.106.1064h-1.436v3.5106c0 .0532-.053.1064-.107.1064h-.744c-.053 0-.107-.0532-.107-.1064v-3.5106h-1.436c-.053 0-.106-.0532-.106-.1064v-.6915c0-.0532.053-.1064.106-.1064h3.83zM144.734 15.0532c1.33 0 2.394 1.0107 2.394 2.3404 0 1.3298-1.064 2.3405-2.394 2.3405s-2.394-1.0107-2.394-2.3405c0-1.3297 1.064-2.3404 2.394-2.3404zm-1.436 2.3404c0 .8511.585 1.4362 1.436 1.4362s1.383-.5851 1.383-1.4362c0-.851-.585-1.4361-1.383-1.4361-.851 0-1.436.5851-1.436 1.4361z"/></g><defs><clipPath id="clip0"><path fill="#fff" d="M0 0h149.787v20H0z"/></clipPath></defs></svg>