<?xml version="1.0" encoding="utf-8"?>
<!-- Generator: Adobe Illustrator 23.0.3, SVG Export Plug-In . SVG Version: 6.00 Build 0)  -->
<svg version="1.1" id="Слой_1" xmlns="http://www.w3.org/2000/svg" xmlns:xlink="http://www.w3.org/1999/xlink" x="0px" y="0px"
	 viewBox="0 0 500 500" style="enable-background:new 0 0 500 500;" xml:space="preserve">
<style type="text/css">
	.st0{display:none;}
	.st1{display:inline;fill:url(#SVGID_1_);}
	.st2{display:inline;fill:#C97E11;}
	.st3{display:inline;fill:#FFFFFF;}
	.st4{display:inline;fill:#D9DADA;}
	.st5{fill:#D9DADA;}
	.st6{fill:#FFFFFF;}
	.st7{fill:url(#SVGID_2_);}
</style>
<g class="st0">
	<linearGradient id="SVGID_1_" gradientUnits="userSpaceOnUse" x1="252.968" y1="472.9759" x2="254.6368" y2="248.241">
		<stop  offset="0" style="stop-color:#FF8200"/>
		<stop  offset="0.3665" style="stop-color:#FF9B00"/>
		<stop  offset="0.7333" style="stop-color:#FFAD00"/>
		<stop  offset="0.9944" style="stop-color:#FFB400"/>
	</linearGradient>
	<rect x="52.74" y="223.87" class="st1" width="402.16" height="268.1"/>
	<path class="st2" d="M52.73,490.6l0.02,1.38h401.94v-1.38H52.73z"/>
	<path class="st3" d="M231.27,235.04l0.01,33.51H52.74v44.68h178.58L231.47,492l44.68-0.04L276,313.23h178.9v-44.68H275.96
		l-0.01-33.51H231.27z"/>
	<path class="st2" d="M52.73,235.04H454.9v-11.17H52.73V235.04z"/>
	<rect x="230.99" y="223.87" class="st4" width="44.68" height="11.17"/>
</g>
<g>
	
		<rect x="329.58" y="6.54" transform="matrix(0.7071 -0.7071 0.7071 0.7071 69.0925 258.2112)" class="st5" width="33.31" height="78.34"/>
	
		<rect x="124.83" y="29.05" transform="matrix(0.7071 -0.7071 0.7071 0.7071 15.7162 129.3493)" class="st5" width="78.34" height="33.31"/>
	<path class="st6" d="M330.34,6.23h-53.23v108.34L330.34,6.23z"/>
	<path class="st6" d="M232.52,114.8V6.46H179.3L232.52,114.8z"/>
	<linearGradient id="SVGID_2_" gradientUnits="userSpaceOnUse" x1="251.058" y1="238.4694" x2="254.4268" y2="153.8064">
		<stop  offset="0.0194" style="stop-color:#FF8200"/>
		<stop  offset="0.5741" style="stop-color:#FFA000"/>
		<stop  offset="1" style="stop-color:#FFB300"/>
	</linearGradient>
	<rect x="19.22" y="114.61" class="st7" width="469.19" height="109.26"/>
	<rect x="232.43" y="95.61" class="st5" width="44.68" height="19"/>
	<path class="st6" d="M232.44,114.57L124.52,61.34v53.23H232.44l0.12,109.3l44.74-0.03l-0.12-109.27H385.6V61.34l-108.59,53.23
		H232.44z"/>
</g>
</svg>
